<svg width="708" height="401" viewBox="0 0 708 401" fill="none" xmlns="http://www.w3.org/2000/svg">
<path d="M207 5.70777e-08V401H208V1.90259e-08L207 5.70777e-08ZM307 7.61036e-08V401H308V0L307 7.61036e-08ZM407 3.80518e-08V401H408V3.80518e-08H407ZM507 7.61036e-08V401H508V0L507 7.61036e-08ZM607 3.80518e-08V401H608V3.80518e-08H607ZM707 3.80518e-08V401H708V3.80518e-08H707ZM4.31648e-08 370H707V369H0L4.31648e-08 370ZM4.31648e-08 322H707V321H0L4.31648e-08 322ZM4.31648e-08 274H707V273H0L4.31648e-08 274ZM4.31648e-08 226H707V225H0L4.31648e-08 226ZM4.31648e-08 178H707V177H0L4.31648e-08 178ZM4.31648e-08 130H707V129H0L4.31648e-08 130ZM4.31648e-08 82H707V81H0L4.31648e-08 82Z" fill="#E2E8ED"/>
</svg>
