<svg width="46" height="48" viewBox="0 0 46 48" fill="none" xmlns="http://www.w3.org/2000/svg">
<rect width="46" height="48" rx="4" fill="white"/>
<path fill-rule="evenodd" clip-rule="evenodd" d="M15.5003 25.6667C15.9606 25.6667 16.3337 26.0398 16.3337 26.5V29.8333C16.3337 30.0543 16.4215 30.2663 16.5777 30.4226C16.734 30.5789 16.946 30.6667 17.167 30.6667H28.8337C29.0547 30.6667 29.2666 30.5789 29.4229 30.4226C29.5792 30.2663 29.667 30.0543 29.667 29.8333V26.5C29.667 26.0398 30.0401 25.6667 30.5003 25.6667C30.9606 25.6667 31.3337 26.0398 31.3337 26.5V29.8333C31.3337 30.4964 31.0703 31.1323 30.6014 31.6011C30.1326 32.0699 29.4967 32.3333 28.8337 32.3333H17.167C16.504 32.3333 15.8681 32.0699 15.3992 31.6011C14.9304 31.1323 14.667 30.4964 14.667 29.8333V26.5C14.667 26.0398 15.0401 25.6667 15.5003 25.6667Z" fill="#2D2D2D"/>
<path fill-rule="evenodd" clip-rule="evenodd" d="M18.2441 21.7441C18.5695 21.4186 19.0971 21.4186 19.4226 21.7441L23 25.3215L26.5774 21.7441C26.9029 21.4186 27.4305 21.4186 27.7559 21.7441C28.0814 22.0695 28.0814 22.5972 27.7559 22.9226L23.5893 27.0893C23.2638 27.4147 22.7362 27.4147 22.4107 27.0893L18.2441 22.9226C17.9186 22.5972 17.9186 22.0695 18.2441 21.7441Z" fill="#2D2D2D"/>
<path fill-rule="evenodd" clip-rule="evenodd" d="M23.0003 15.6667C23.4606 15.6667 23.8337 16.0398 23.8337 16.5V26.5C23.8337 26.9603 23.4606 27.3334 23.0003 27.3334C22.5401 27.3334 22.167 26.9603 22.167 26.5V16.5C22.167 16.0398 22.5401 15.6667 23.0003 15.6667Z" fill="#2D2D2D"/>
</svg>
