<svg width="200" height="153" viewBox="0 0 200 153" fill="none" xmlns="http://www.w3.org/2000/svg">
<path d="M128.094 15.577L126.185 15.1627L125.752 13.2561C125.744 13.2231 125.726 13.1937 125.7 13.1726C125.673 13.1515 125.641 13.1399 125.607 13.1399C125.573 13.1399 125.54 13.1515 125.514 13.1726C125.488 13.1937 125.469 13.2231 125.462 13.2561L125.027 15.1698L123.117 15.6241C123.084 15.6312 123.055 15.6497 123.033 15.6763C123.012 15.7029 123.001 15.7361 123.002 15.77C123.003 15.8036 123.015 15.8358 123.037 15.8617C123.058 15.8877 123.087 15.9059 123.12 15.9136L125.029 16.3279L125.462 18.2322C125.469 18.2651 125.488 18.2946 125.514 18.3157C125.54 18.3368 125.573 18.3483 125.607 18.3483C125.641 18.3483 125.673 18.3368 125.7 18.3157C125.726 18.2946 125.744 18.2651 125.752 18.2322L126.187 16.3185L128.096 15.8665C128.129 15.8592 128.159 15.8409 128.18 15.8146C128.201 15.7882 128.213 15.7555 128.213 15.7218C128.213 15.688 128.201 15.6553 128.18 15.629C128.159 15.6027 128.129 15.5843 128.096 15.577H128.094ZM21.6184 23.8462L24.2432 23.2742L24.8506 20.6543C24.8615 20.6098 24.887 20.5703 24.9231 20.542C24.9592 20.5137 25.0037 20.4983 25.0495 20.4983C25.0954 20.4983 25.1399 20.5137 25.176 20.542C25.212 20.5703 25.2376 20.6098 25.2485 20.6543L25.8464 23.286L28.4736 23.9098C28.5189 23.92 28.5592 23.9455 28.5879 23.9819C28.6166 24.0183 28.632 24.0635 28.6314 24.1098C28.6301 24.1558 28.6137 24.2001 28.5848 24.2358C28.5559 24.2715 28.516 24.2967 28.4713 24.3076L25.8441 24.8772L25.2485 27.4971C25.2376 27.5416 25.212 27.5812 25.176 27.6095C25.1399 27.6378 25.0954 27.6531 25.0495 27.6531C25.0037 27.6531 24.9592 27.6378 24.9231 27.6095C24.887 27.5812 24.8615 27.5416 24.8506 27.4971L24.2527 24.8654L21.6278 24.2417C21.5827 24.2318 21.5424 24.2068 21.5134 24.1708C21.4845 24.1349 21.4688 24.0901 21.4688 24.0439C21.4688 23.9978 21.4845 23.953 21.5134 23.9171C21.5424 23.8811 21.5827 23.8561 21.6278 23.8462H21.6184ZM32.6545 1.73379L34.0105 1.43956L34.3189 0.0837165C34.324 0.0600189 34.3372 0.0387831 34.356 0.0235475C34.3749 0.0083119 34.3983 0 34.4226 0C34.4468 0 34.4703 0.0083119 34.4892 0.0235475C34.5079 0.0387831 34.521 0.0600189 34.5261 0.0837165L34.8345 1.44426L36.1929 1.76674C36.2174 1.77047 36.2397 1.78285 36.2558 1.80163C36.272 1.82042 36.2809 1.84437 36.2809 1.86915C36.2809 1.89392 36.272 1.91786 36.2558 1.93665C36.2397 1.95543 36.2174 1.96782 36.1929 1.97154L34.8369 2.26812L34.5285 3.62397C34.5234 3.64766 34.5104 3.6689 34.4916 3.68413C34.4727 3.69937 34.4492 3.70768 34.4249 3.70768C34.4007 3.70768 34.3771 3.69937 34.3583 3.68413C34.3394 3.6689 34.3265 3.64766 34.3214 3.62397L34.0129 2.26106L32.6545 1.93858C32.6309 1.93364 32.6097 1.92059 32.5947 1.90167C32.5796 1.88276 32.5717 1.85917 32.5722 1.83501C32.5735 1.81158 32.5821 1.78916 32.5969 1.77096C32.6117 1.75277 32.6319 1.73975 32.6545 1.73379Z" fill="#4F3CC9"/>
<path d="M8.73828 65.1879L18.6163 152.103H138.013L147.891 65.1879H8.73828Z" fill="#FF8B6A"/>
<path d="M138.646 152.81H17.9873L17.9166 152.184L7.94922 64.4828H148.677L148.588 65.269L138.646 152.81ZM19.2491 151.398H137.377L147.095 65.8951H9.5312L19.2491 151.398Z" fill="#4F3CC9"/>
<path d="M147.89 55.5569H8.98598C4.48484 55.5569 0.835938 59.2049 0.835938 63.7049C0.835938 68.2049 4.48484 71.8529 8.98598 71.8529H147.89C152.391 71.8529 156.04 68.2049 156.04 63.7049C156.04 59.2049 152.391 55.5569 147.89 55.5569Z" fill="#5564D7"/>
<path d="M147.895 72.5614H9.00066C7.82565 72.5805 6.65857 72.3657 5.56743 71.9293C4.47629 71.4929 3.48292 70.8438 2.6452 70.0197C1.80748 69.1957 1.14216 68.2131 0.688023 67.1293C0.233882 66.0456 0 64.8823 0 63.7072C0 62.5322 0.233882 61.3688 0.688023 60.2851C1.14216 59.2013 1.80748 58.2188 2.6452 57.3947C3.48292 56.5706 4.47629 55.9215 5.56743 55.4851C6.65857 55.0488 7.82565 54.8339 9.00066 54.853H147.895C150.219 54.8909 152.434 55.8404 154.064 57.4968C155.694 59.1531 156.607 61.3836 156.607 63.7072C156.607 66.0308 155.694 68.2613 154.064 69.9176C152.434 71.574 150.219 72.5235 147.895 72.5614ZM9.00066 56.2654C8.01215 56.2478 7.03003 56.4273 6.11165 56.7934C5.19327 57.1595 4.35703 57.7048 3.65175 58.3976C2.94646 59.0904 2.38626 59.9167 2.00385 60.8283C1.62145 61.74 1.4245 62.7186 1.4245 63.7072C1.4245 64.6958 1.62145 65.6745 2.00385 66.5861C2.38626 67.4977 2.94646 68.324 3.65175 69.0168C4.35703 69.7096 5.19327 70.2549 6.11165 70.621C7.03003 70.9871 8.01215 71.1666 9.00066 71.1491H147.895C149.846 71.1144 151.705 70.3151 153.073 68.9232C154.44 67.5314 155.206 65.6583 155.206 63.7072C155.206 61.7561 154.44 59.883 153.073 58.4912C151.705 57.0994 149.846 56.3001 147.895 56.2654H9.00066Z" fill="#4F3CC9"/>
<path d="M65.7189 15.336L37.4742 62.2085C36.6341 63.6026 37.0834 65.4137 38.4777 66.2537L43.8978 69.5191C45.292 70.3591 47.1033 69.9099 47.9434 68.5158L76.1881 21.6433C77.0282 20.2491 76.579 18.438 75.1847 17.598L69.7646 14.3326C68.3703 13.4926 66.559 13.9418 65.7189 15.336Z" fill="#FF8B6A"/>
<path d="M45.4166 70.6393C44.7527 70.64 44.1012 70.4584 43.5333 70.1144L38.1188 66.8496C37.289 66.3489 36.692 65.5393 36.4589 64.5987C36.2258 63.6581 36.3758 62.6635 36.8758 61.8334L65.1067 14.9604C65.6074 14.1307 66.4171 13.5337 67.3578 13.3007C68.2985 13.0676 69.2932 13.2176 70.1234 13.7176L75.5379 16.98C75.9493 17.2275 76.3078 17.5536 76.5929 17.9398C76.8781 18.3259 77.0843 18.7645 77.1997 19.2304C77.3152 19.6963 77.3376 20.1804 77.2658 20.655C77.1939 21.1296 77.0291 21.5853 76.7809 21.9962L48.5312 68.8692C48.285 69.2815 47.9592 69.6408 47.5728 69.9261C47.1865 70.2114 46.7472 70.417 46.2806 70.531C45.9979 70.6013 45.7079 70.6376 45.4166 70.6393ZM68.2518 14.6167C68.0686 14.6166 67.886 14.6387 67.708 14.6826C67.422 14.7526 67.1527 14.8787 66.9159 15.0537C66.679 15.2286 66.4794 15.449 66.3285 15.7019L38.0788 62.5749C37.9265 62.8269 37.8254 63.1064 37.7813 63.3975C37.7372 63.6886 37.751 63.9856 37.8218 64.2714C37.8927 64.5572 38.0192 64.8262 38.1942 65.063C38.3692 65.2998 38.5891 65.4997 38.8415 65.6514L44.256 68.9163C44.7653 69.2226 45.3754 69.3143 45.9523 69.1713C46.5292 69.0283 47.0257 68.6623 47.3329 68.1536L75.5826 21.2806C75.8889 20.7707 75.9803 20.1602 75.8369 19.5829C75.6935 19.0057 75.3269 18.509 74.8176 18.2017L69.403 14.9392C69.0559 14.7234 68.6559 14.6077 68.2471 14.605L68.2518 14.6167Z" fill="#4F3CC9"/>
<path d="M86.4651 14.0348L81.023 17.3249C79.6231 18.1713 79.1745 19.9921 80.0209 21.3919L108.48 68.4539C109.326 69.8536 111.148 70.3022 112.547 69.4558L117.989 66.1657C119.389 65.3193 119.838 63.4984 118.992 62.0988L90.5324 15.0368C89.686 13.637 87.865 13.1884 86.4651 14.0348Z" fill="#FF8B6A"/>
<path d="M109.982 70.6363C109.351 70.6383 108.73 70.4765 108.181 70.1666C107.631 69.8567 107.171 69.4094 106.846 68.8686L78.5966 21.9955C78.0997 21.1653 77.9525 20.1718 78.1873 19.2332C78.4221 18.2946 79.0197 17.4874 79.849 16.9888L85.2635 13.7263C85.6746 13.4761 86.131 13.3096 86.6066 13.2361C87.0822 13.1627 87.5677 13.1839 88.0351 13.2985C88.5024 13.4131 88.9426 13.6189 89.3303 13.9039C89.718 14.189 90.0456 14.5478 90.2943 14.9598L118.544 61.8328C118.792 62.2439 118.956 62.6997 119.028 63.1744C119.099 63.649 119.077 64.133 118.961 64.5989C118.845 65.0647 118.639 65.5032 118.354 65.8893C118.069 66.2753 117.71 66.6014 117.299 66.8489L111.884 70.1138C111.311 70.4604 110.652 70.6413 109.982 70.6363ZM87.1468 14.6137C86.7408 14.6135 86.3425 14.725 85.9957 14.9362L80.5811 18.1987C80.0718 18.506 79.7052 19.0027 79.5618 19.5799C79.4184 20.1572 79.5098 20.7677 79.816 21.2776L108.066 68.1506C108.373 68.6595 108.87 69.0255 109.448 69.1685C110.025 69.3115 110.635 69.2197 111.145 68.9133L116.56 65.6484C116.812 65.4967 117.032 65.2968 117.207 65.06C117.382 64.8232 117.508 64.5542 117.579 64.2684C117.65 63.9826 117.664 63.6857 117.62 63.3945C117.576 63.1034 117.475 62.8239 117.322 62.5719L89.0725 15.6989C88.9214 15.4462 88.7216 15.2261 88.4848 15.0511C88.248 14.8762 87.9789 14.7499 87.693 14.6796C87.5154 14.6327 87.3328 14.6074 87.1492 14.6043L87.1468 14.6137Z" fill="#4F3CC9"/>
<path d="M44.6701 65.5573C46.6474 65.5573 48.2504 63.9544 48.2504 61.9771C48.2504 59.9997 46.6474 58.3968 44.6701 58.3968C42.6928 58.3968 41.0898 59.9997 41.0898 61.9771C41.0898 63.9544 42.6928 65.5573 44.6701 65.5573Z" fill="white"/>
<path d="M44.6692 66.2646C43.8215 66.2646 42.9927 66.0132 42.2878 65.5422C41.5829 65.0712 41.0335 64.4017 40.7091 63.6185C40.3847 62.8353 40.2998 61.9734 40.4652 61.1419C40.6306 60.3104 41.0388 59.5467 41.6383 58.9472C42.2378 58.3477 43.0015 57.9395 43.833 57.7741C44.6645 57.6087 45.5264 57.6936 46.3096 58.018C47.0928 58.3424 47.7623 58.8918 48.2333 59.5967C48.7043 60.3016 48.9557 61.1304 48.9557 61.9781C48.9544 63.1146 48.5024 64.2041 47.6988 65.0077C46.8952 65.8113 45.8057 66.2633 44.6692 66.2646ZM44.6692 59.104C44.1008 59.104 43.5451 59.2726 43.0725 59.5884C42.5998 59.9042 42.2315 60.3531 42.0139 60.8783C41.7964 61.4035 41.7395 61.9813 41.8504 62.5389C41.9613 63.0964 42.235 63.6085 42.637 64.0104C43.0389 64.4124 43.551 64.6861 44.1085 64.797C44.6661 64.9079 45.2439 64.851 45.7691 64.6335C46.2943 64.4159 46.7432 64.0476 47.059 63.5749C47.3748 63.1023 47.5433 62.5466 47.5433 61.9781C47.5421 61.2163 47.2389 60.486 46.7002 59.9472C46.1614 59.4085 45.4311 59.1053 44.6692 59.104Z" fill="#4F3CC9"/>
<path d="M110.358 65.3093C112.335 65.3093 113.938 63.7063 113.938 61.729C113.938 59.7517 112.335 58.1487 110.358 58.1487C108.38 58.1487 106.777 59.7517 106.777 61.729C106.777 63.7063 108.38 65.3093 110.358 65.3093Z" fill="white"/>
<path d="M110.357 66.0165C109.509 66.0165 108.68 65.7651 107.975 65.2941C107.27 64.8231 106.721 64.1537 106.397 63.3704C106.072 62.5872 105.987 61.7253 106.153 60.8939C106.318 60.0624 106.726 59.2986 107.326 58.6991C107.925 58.0997 108.689 57.6914 109.521 57.526C110.352 57.3606 111.214 57.4455 111.997 57.77C112.78 58.0944 113.45 58.6438 113.921 59.3487C114.392 60.0536 114.643 60.8823 114.643 61.7301C114.642 62.8665 114.19 63.9561 113.386 64.7597C112.583 65.5633 111.493 66.0153 110.357 66.0165ZM110.357 58.856C109.788 58.856 109.233 59.0246 108.76 59.3404C108.287 59.6562 107.919 60.1051 107.701 60.6302C107.484 61.1554 107.427 61.7333 107.538 62.2908C107.649 62.8483 107.923 63.3604 108.324 63.7624C108.726 64.1643 109.239 64.4381 109.796 64.549C110.354 64.6599 110.931 64.603 111.457 64.3854C111.982 64.1679 112.431 63.7995 112.746 63.3269C113.062 62.8542 113.231 62.2985 113.231 61.7301C113.23 60.9682 112.926 60.2379 112.388 59.6992C111.849 59.1605 111.119 58.8572 110.357 58.856Z" fill="#4F3CC9"/>
<path d="M28.7422 80.1254H37.1385V108.52H28.7422V80.1254Z" fill="white"/>
<path d="M37.8438 109.23H28.0352V79.4203H37.8438V109.23ZM29.4475 107.818H36.4315V80.8327H29.4475V107.818Z" fill="#4F3CC9"/>
<path d="M51.957 80.1254H60.3533V108.52H51.957V80.1254Z" fill="white"/>
<path d="M61.0563 109.23H51.25V79.4203H61.0563V109.23ZM52.6623 107.818H59.644V80.8327H52.6623V107.818Z" fill="#4F3CC9"/>
<path d="M75.168 80.1254H83.5643V108.52H75.168V80.1254Z" fill="white"/>
<path d="M84.2696 109.23H74.4609V79.4203H84.2696V109.23ZM75.8733 107.818H82.8572V80.8327H75.8733V107.818Z" fill="#4F3CC9"/>
<path d="M98.1328 80.1254H106.529V108.52H98.1328V80.1254Z" fill="white"/>
<path d="M107.245 109.23H97.4297V79.4203H107.245V109.23ZM98.8514 107.818H105.833V80.8327H98.842L98.8514 107.818Z" fill="#4F3CC9"/>
<path d="M121.348 80.1254H129.744V108.52H121.348V80.1254Z" fill="white"/>
<path d="M130.449 109.23H120.641V79.4203H130.449V109.23ZM122.053 107.818H129.037V80.8327H122.053V107.818Z" fill="#4F3CC9"/>
<path d="M28.7422 114.942H37.1385V143.337H28.7422V114.942Z" fill="white"/>
<path d="M37.8438 144.044H28.0352V114.237H37.8438V144.044ZM29.4475 142.632H36.4315V115.649H29.4475V142.632Z" fill="#4F3CC9"/>
<path d="M51.957 114.942H60.3533V143.337H51.957V114.942Z" fill="white"/>
<path d="M61.0563 144.044H51.25V114.237H61.0563V144.044ZM52.6623 142.632H59.644V115.649H52.6623V142.632Z" fill="#4F3CC9"/>
<path d="M75.168 114.942H83.5643V143.337H75.168V114.942Z" fill="white"/>
<path d="M84.2696 144.044H74.4609V114.237H84.2696V144.044ZM75.8733 142.632H82.8572V115.649H75.8733V142.632Z" fill="#4F3CC9"/>
<path d="M98.1328 114.942H106.529V143.337H98.1328V114.942Z" fill="white"/>
<path d="M107.245 144.044H97.4297V114.237H107.245V144.044ZM98.8514 142.632H105.833V115.649H98.842L98.8514 142.632Z" fill="#4F3CC9"/>
<path d="M121.348 114.942H129.744V143.337H121.348V114.942Z" fill="white"/>
<path d="M130.449 144.044H120.641V114.237H130.449V144.044ZM122.053 142.632H129.037V115.649H122.053V142.632Z" fill="#4F3CC9"/>
<path d="M145.582 86.739C158.88 86.739 169.66 75.96 169.66 62.6635C169.66 49.3669 158.88 38.5879 145.582 38.5879C132.284 38.5879 121.504 49.3669 121.504 62.6635C121.504 75.96 132.284 86.739 145.582 86.739Z" fill="white"/>
<path d="M145.581 87.4414C140.68 87.4414 135.888 85.9881 131.812 83.2652C127.737 80.5424 124.56 76.6723 122.684 72.1443C120.808 67.6163 120.317 62.6337 121.273 57.8267C122.229 53.0196 124.589 48.6039 128.054 45.138C131.52 41.672 135.936 39.3114 140.743 38.3547C145.551 37.3979 150.534 37.888 155.063 39.763C159.591 41.6379 163.463 44.8135 166.186 48.8882C168.91 52.9629 170.365 57.7538 170.366 62.6549C170.361 69.2264 167.748 75.5273 163.101 80.1744C158.454 84.8216 152.153 87.4351 145.581 87.4414ZM145.581 39.2926C140.958 39.2926 136.439 40.6634 132.596 43.2315C128.752 45.7997 125.757 49.4499 123.988 53.7205C122.219 57.9912 121.757 62.6903 122.659 67.2237C123.561 71.7571 125.788 75.9212 129.057 79.1892C132.327 82.4571 136.492 84.6823 141.026 85.5832C145.56 86.4841 150.26 86.0203 154.53 84.2505C158.801 82.4806 162.45 79.4842 165.018 75.6402C167.585 71.7962 168.955 67.2773 168.953 62.6549C168.944 56.4603 166.479 50.522 162.098 46.1424C157.716 41.7628 151.777 39.2994 145.581 39.2926ZM158.425 9.26172H159.838V33.954H158.425V9.26172Z" fill="#4F3CC9"/>
<path d="M170.125 38.0237L187.658 20.9873L188.642 22.0002L171.109 39.0365L170.125 38.0237Z" fill="#4F3CC9"/>
<path d="M175.059 48.9261H200.001V50.3384H175.059V48.9261Z" fill="#4F3CC9"/>
<path d="M140.52 73.3393C139.039 72.3869 137.873 70.9964 137.022 69.1682C136.171 67.34 135.742 65.1689 135.734 62.655C135.734 60.1442 136.16 57.9747 137.013 56.1465C137.865 54.3183 139.031 52.928 140.511 51.9755C142.031 51.0416 143.78 50.5471 145.564 50.5471C147.348 50.5471 149.097 51.0416 150.617 51.9755C152.11 52.9296 153.282 54.3199 154.134 56.1465C154.987 57.9732 155.415 60.1427 155.42 62.655C155.42 65.1658 154.994 67.3346 154.144 69.1611C153.293 70.9879 152.121 72.3782 150.627 73.3323C149.107 74.2662 147.358 74.7605 145.574 74.7605C143.789 74.7605 142.04 74.2662 140.52 73.3323V73.3393ZM149.551 68.8834C150.525 67.4916 151.014 65.4177 151.015 62.6621C151.017 59.9065 150.529 57.8319 149.551 56.4384C149.119 55.7801 148.526 55.243 147.829 54.878C147.131 54.513 146.352 54.3323 145.565 54.3529C143.906 54.3529 142.589 55.0481 141.613 56.4384C140.636 57.8288 140.149 59.901 140.151 62.655C140.151 65.4122 140.638 67.486 141.613 68.8764C142.056 69.5196 142.648 70.0457 143.34 70.409C144.031 70.7724 144.801 70.9622 145.582 70.9622C146.363 70.9622 147.132 70.7724 147.824 70.409C148.515 70.0457 149.108 69.5196 149.551 68.8764V68.8834Z" fill="#FF8B6A"/>
<path d="M145.564 75.4741C143.643 75.5007 141.756 74.9648 140.136 73.9323C138.549 72.9107 137.285 71.4089 136.369 69.4599C135.453 67.5109 135.027 65.2653 135.027 62.6548C135.027 60.0444 135.479 57.7611 136.372 55.8473C137.264 53.9336 138.54 52.4036 140.138 51.375C141.772 50.3677 143.654 49.8343 145.574 49.8343C147.494 49.8343 149.376 50.3677 151.01 51.375C152.669 52.4731 153.976 54.0258 154.776 55.8473C155.668 57.7611 156.12 60.0514 156.12 62.6548C156.12 65.2582 155.668 67.5462 154.776 69.4599C153.884 71.3736 152.601 72.906 151.01 73.9323C149.382 74.9632 147.491 75.4989 145.564 75.4741ZM145.564 51.2596C143.919 51.2373 142.303 51.6945 140.913 52.5754C139.554 53.4511 138.462 54.7551 137.673 56.4523C136.885 58.1494 136.44 60.2656 136.44 62.6548C136.44 65.044 136.847 67.139 137.652 68.8644C138.457 70.5898 139.536 71.8632 140.892 72.7389C142.298 73.6004 143.915 74.0563 145.564 74.0563C147.214 74.0563 148.831 73.6004 150.237 72.7389C151.605 71.8656 152.702 70.5615 153.493 68.8667C154.284 67.1719 154.703 65.0511 154.703 62.6572C154.703 60.2633 154.296 58.1848 153.493 56.4476C152.802 54.8708 151.672 53.526 150.237 52.5731C148.84 51.6927 147.216 51.2365 145.564 51.2596ZM145.564 71.6749C143.681 71.6749 142.144 70.8722 141.035 69.2881C139.978 67.7839 139.441 65.5548 139.441 62.6619C139.441 59.7689 139.978 57.5398 141.035 56.0333C141.544 55.2977 142.223 54.6965 143.015 54.2812C143.807 53.8659 144.688 53.649 145.582 53.649C146.476 53.649 147.357 53.8659 148.149 54.2812C148.941 54.6965 149.621 55.2977 150.129 56.0333C151.184 57.5374 151.721 59.7689 151.721 62.6619C151.721 65.5548 151.184 67.7839 150.129 69.2881C149.633 70.0406 148.954 70.6546 148.156 71.0722C147.357 71.4898 146.465 71.6972 145.564 71.6749ZM145.564 55.0611C144.896 55.0431 144.234 55.1979 143.643 55.5104C143.052 55.823 142.552 56.2828 142.191 56.8454C141.303 58.1071 140.854 60.0656 140.854 62.6619C140.854 65.2582 141.303 67.2143 142.191 68.4783C142.569 69.0284 143.075 69.4782 143.666 69.789C144.257 70.0998 144.915 70.2622 145.582 70.2622C146.25 70.2622 146.907 70.0998 147.498 69.789C148.089 69.4782 148.595 69.0284 148.973 68.4783C149.858 67.2143 150.308 65.2582 150.308 62.6619C150.308 60.0656 149.858 58.1071 148.973 56.8454C148.606 56.28 148.1 55.8188 147.503 55.5063C146.906 55.1937 146.238 55.0404 145.564 55.0611Z" fill="#4F3CC9"/>
</svg>
