<svg width="88" height="28" viewBox="0 0 88 28" fill="none" xmlns="http://www.w3.org/2000/svg">
<path d="M18.71 5.61809C17.8378 5.61904 17.0015 5.95157 16.3849 6.54274C15.7681 7.1339 15.4212 7.93542 15.4203 8.7714V16.6256C15.4296 17.1877 15.3221 17.7458 15.1041 18.2676C14.8861 18.7894 14.562 19.2644 14.1506 19.665C13.7392 20.0656 13.2487 20.3838 12.7078 20.6009C12.1669 20.8181 11.5862 20.9299 10.9999 20.9299C10.4134 20.9299 9.83281 20.8181 9.29189 20.6009C8.75097 20.3838 8.26052 20.0656 7.84913 19.665C7.43772 19.2644 7.1136 18.7894 6.8956 18.2676C6.6776 17.7458 6.57011 17.1877 6.57936 16.6256V8.7714C6.57936 7.93518 6.23278 7.1332 5.61584 6.54191C4.9989 5.95061 4.16216 5.61842 3.28969 5.61842C2.41721 5.61842 1.58046 5.95061 0.963522 6.54191C0.346587 7.1332 0 7.93518 0 8.7714V17.4572C-4.305e-08 18.8417 0.284518 20.2127 0.837312 21.4918C1.39011 22.771 2.20036 23.9331 3.22179 24.9121C4.2432 25.8911 5.45583 26.6677 6.79039 27.1975C8.12495 27.7273 9.55534 28 10.9999 28C12.4443 28 13.8748 27.7273 15.2093 27.1975C16.5439 26.6677 17.7565 25.8911 18.7779 24.9121C19.7993 23.9331 20.6096 22.771 21.1623 21.4918C21.7152 20.2127 21.9997 18.8417 21.9997 17.4572V8.7714C21.9987 7.9354 21.6519 7.13389 21.0352 6.54274C20.4184 5.95157 19.5821 5.61904 18.71 5.61809ZM20.5604 17.4566C20.5604 19.8869 19.5531 22.2176 17.7602 23.9361C15.9673 25.6544 13.5355 26.6199 10.9999 26.6199C8.46422 26.6199 6.03245 25.6544 4.23949 23.9361C2.44653 22.2176 1.43925 19.8869 1.43925 17.4566V8.7714C1.44346 8.30369 1.64026 7.85649 1.98683 7.52717C2.3334 7.19786 2.80166 7.01309 3.28969 7.01309C3.7777 7.01309 4.24596 7.19786 4.59253 7.52717C4.93909 7.85649 5.1359 8.30369 5.14011 8.7714V16.6256C5.14011 18.1151 5.75747 19.5437 6.85639 20.597C7.9553 21.6502 9.44576 22.2419 10.9999 22.2419C12.5539 22.2419 14.0444 21.6502 15.1434 20.597C16.2422 19.5437 16.8596 18.1151 16.8596 16.6256V8.7714C16.8596 8.30103 17.0545 7.84992 17.4016 7.51733C17.7487 7.18471 18.2193 6.99786 18.71 6.99786C19.2008 6.99786 19.6714 7.18471 20.0185 7.51733C20.3654 7.84992 20.5604 8.30103 20.5604 8.7714V17.4566Z" fill="#00CC83"/>
<path d="M10.2802 7.22527V16.3182C10.2802 16.5012 10.356 16.6766 10.491 16.806C10.6259 16.9354 10.8089 17.008 10.9998 17.008C11.1907 17.008 11.3737 16.9354 11.5087 16.806C11.6436 16.6766 11.7194 16.5012 11.7194 16.3182V7.22527C12.6486 7.05369 13.4776 6.55634 14.0447 5.83037C14.6117 5.10439 14.8761 4.20192 14.7862 3.29913C14.6963 2.39634 14.2586 1.5581 13.5584 0.948058C12.8583 0.338022 11.946 0 10.9998 0C10.0536 0 9.14136 0.338022 8.44123 0.948058C7.74109 1.5581 7.30333 2.39634 7.21342 3.29913C7.1235 4.20192 7.38789 5.10439 7.95497 5.83037C8.52204 6.55634 9.35107 7.05369 10.2802 7.22527ZM10.9998 1.38092C11.4675 1.38092 11.9246 1.51384 12.3135 1.76287C12.7023 2.01188 13.0054 2.36583 13.1843 2.77994C13.3633 3.19405 13.4101 3.64972 13.3189 4.08934C13.2276 4.52895 13.0024 4.93276 12.6717 5.24969C12.341 5.56662 11.9197 5.78244 11.461 5.86987C11.0023 5.95731 10.5269 5.9124 10.0949 5.74087C9.66281 5.56932 9.29354 5.27882 9.03373 4.90613C8.77393 4.53342 8.63529 4.09527 8.63532 3.64703C8.63605 3.04622 8.8854 2.47021 9.32868 2.04537C9.77195 1.62055 10.3729 1.38158 10.9998 1.38092Z" fill="#00CC83"/>
<path d="M42.9954 4.86357H46.1554V16.5356C46.1554 17.8151 45.8601 18.9404 45.2696 19.9115C44.6847 20.8828 43.8613 21.6417 42.7995 22.1884C41.7377 22.7293 40.497 22.9997 39.0775 22.9997C37.6522 22.9997 36.4087 22.7293 35.3469 22.1884C34.2851 21.6417 33.4617 20.8828 32.8769 19.9115C32.292 18.9404 31.9996 17.8151 31.9996 16.5356V4.86357H35.1595V16.2652C35.1595 17.0096 35.3185 17.6726 35.6365 18.2542C35.9601 18.8357 36.4144 19.2922 36.9992 19.6237C37.5841 19.9493 38.2768 20.1122 39.0775 20.1122C39.8781 20.1122 40.5708 19.9493 41.1557 19.6237C41.7462 19.2922 42.2004 18.8357 42.5184 18.2542C42.8364 17.6726 42.9954 17.0096 42.9954 16.2652V4.86357ZM55.9865 9.33V11.7726H48.4657V9.33H55.9865ZM50.3224 6.11975H53.4057V18.6991C53.4057 19.1236 53.4682 19.4492 53.5931 19.676C53.7237 19.897 53.8941 20.0482 54.1042 20.1296C54.3143 20.2111 54.5471 20.2518 54.8026 20.2518C54.9957 20.2518 55.1717 20.2372 55.3307 20.2081C55.4954 20.1791 55.6203 20.1529 55.7054 20.1296L56.225 22.5984C56.0603 22.6566 55.8247 22.7205 55.5181 22.7903C55.2171 22.8601 54.848 22.9008 54.4108 22.9125C53.6386 22.9357 52.943 22.8165 52.324 22.5548C51.7051 22.2873 51.2139 21.8744 50.8505 21.316C50.4928 20.7577 50.3168 20.0598 50.3224 19.2224V6.11975ZM58.5651 22.7293V9.33H61.6484V22.7293H58.5651ZM60.1152 7.42828C59.6269 7.42828 59.2067 7.26253 58.8547 6.93104C58.5026 6.59373 58.3266 6.18954 58.3266 5.71848C58.3266 5.24159 58.5026 4.8374 58.8547 4.50591C59.2067 4.1686 59.6269 3.99995 60.1152 3.99995C60.6093 3.99995 61.0295 4.1686 61.3758 4.50591C61.7279 4.8374 61.9039 5.24159 61.9039 5.71848C61.9039 6.18954 61.7279 6.59373 61.3758 6.93104C61.0295 7.26253 60.6093 7.42828 60.1152 7.42828ZM67.9022 4.86357V22.7293H64.819V4.86357H67.9022ZM74.156 4.86357V22.7293H71.0728V4.86357H74.156ZM81.0913 22.9997C80.2622 22.9997 79.5156 22.8485 78.8513 22.5461C78.1926 22.2378 77.6702 21.7842 77.2841 21.1852C76.9036 20.5862 76.7134 19.8476 76.7134 18.9695C76.7134 18.2135 76.8497 17.5883 77.1222 17.0939C77.3948 16.5996 77.7667 16.2041 78.238 15.9075C78.7093 15.6109 79.2402 15.387 79.8308 15.2358C80.4269 15.0788 81.043 14.9654 81.679 14.8956C82.4455 14.8142 83.0673 14.7415 83.5443 14.6775C84.0213 14.6077 84.3676 14.503 84.5834 14.3634C84.8049 14.218 84.9156 13.9942 84.9156 13.6917V13.6394C84.9156 12.9822 84.7254 12.4734 84.3449 12.1128C83.9645 11.7522 83.4165 11.5719 82.7011 11.5719C81.9458 11.5719 81.3468 11.7406 80.9039 12.0779C80.4667 12.4152 80.1715 12.8136 80.0182 13.273L77.1393 12.8543C77.3664 12.0401 77.7412 11.3597 78.2636 10.813C78.786 10.2605 79.4248 9.84759 80.18 9.57425C80.9351 9.29511 81.7698 9.15553 82.684 9.15553C83.3143 9.15553 83.9418 9.23113 84.5664 9.38234C85.191 9.53355 85.7617 9.78362 86.2784 10.1326C86.7951 10.4757 87.2096 10.9438 87.5219 11.537C87.8399 12.1302 87.9988 12.8717 87.9988 13.7615V22.7293H85.0348V20.8886H84.9326C84.7452 21.2608 84.4812 21.6097 84.1405 21.9354C83.8055 22.2553 83.3825 22.5141 82.8714 22.7118C82.366 22.9037 81.7727 22.9997 81.0913 22.9997ZM81.8919 20.6792C82.5108 20.6792 83.0474 20.5542 83.5017 20.3041C83.956 20.0482 84.3052 19.7109 84.5493 19.2922C84.7992 18.8735 84.9241 18.417 84.9241 17.9227V16.3437C84.8276 16.4251 84.6629 16.5007 84.4301 16.5705C84.203 16.6403 83.9474 16.7014 83.6635 16.7537C83.3796 16.806 83.0985 16.8526 82.8203 16.8933C82.5421 16.934 82.3007 16.9689 82.0963 16.998C81.6364 17.0619 81.2247 17.1666 80.8613 17.312C80.4979 17.4574 80.2112 17.661 80.0011 17.9227C79.791 18.1786 79.686 18.5101 79.686 18.9172C79.686 19.4986 79.8932 19.9377 80.3077 20.2343C80.7222 20.5309 81.2503 20.6792 81.8919 20.6792Z" fill="#2D2D2D"/>
<path d="M42.9954 4.86357H46.1554V16.5356C46.1554 17.8151 45.8601 18.9404 45.2696 19.9115C44.6847 20.8828 43.8613 21.6417 42.7995 22.1884C41.7377 22.7293 40.497 22.9997 39.0775 22.9997C37.6522 22.9997 36.4087 22.7293 35.3469 22.1884C34.2851 21.6417 33.4617 20.8828 32.8769 19.9115C32.292 18.9404 31.9996 17.8151 31.9996 16.5356V4.86357H35.1595V16.2652C35.1595 17.0096 35.3185 17.6726 35.6365 18.2542C35.9601 18.8357 36.4144 19.2922 36.9992 19.6237C37.5841 19.9493 38.2768 20.1122 39.0775 20.1122C39.8781 20.1122 40.5708 19.9493 41.1557 19.6237C41.7462 19.2922 42.2004 18.8357 42.5184 18.2542C42.8364 17.6726 42.9954 17.0096 42.9954 16.2652V4.86357ZM55.9865 9.33V11.7726H48.4657V9.33H55.9865ZM50.3224 6.11975H53.4057V18.6991C53.4057 19.1236 53.4682 19.4492 53.5931 19.676C53.7237 19.897 53.8941 20.0482 54.1042 20.1296C54.3143 20.2111 54.5471 20.2518 54.8026 20.2518C54.9957 20.2518 55.1717 20.2372 55.3307 20.2081C55.4954 20.1791 55.6203 20.1529 55.7054 20.1296L56.225 22.5984C56.0603 22.6566 55.8247 22.7205 55.5181 22.7903C55.2171 22.8601 54.848 22.9008 54.4108 22.9125C53.6386 22.9357 52.943 22.8165 52.324 22.5548C51.7051 22.2873 51.2139 21.8744 50.8505 21.316C50.4928 20.7577 50.3168 20.0598 50.3224 19.2224V6.11975ZM58.5651 22.7293V9.33H61.6484V22.7293H58.5651ZM60.1152 7.42828C59.6269 7.42828 59.2067 7.26253 58.8547 6.93104C58.5026 6.59373 58.3266 6.18954 58.3266 5.71848C58.3266 5.24159 58.5026 4.8374 58.8547 4.50591C59.2067 4.1686 59.6269 3.99995 60.1152 3.99995C60.6093 3.99995 61.0295 4.1686 61.3758 4.50591C61.7279 4.8374 61.9039 5.24159 61.9039 5.71848C61.9039 6.18954 61.7279 6.59373 61.3758 6.93104C61.0295 7.26253 60.6093 7.42828 60.1152 7.42828ZM67.9022 4.86357V22.7293H64.819V4.86357H67.9022ZM74.156 4.86357V22.7293H71.0728V4.86357H74.156ZM81.0913 22.9997C80.2622 22.9997 79.5156 22.8485 78.8513 22.5461C78.1926 22.2378 77.6702 21.7842 77.2841 21.1852C76.9036 20.5862 76.7134 19.8476 76.7134 18.9695C76.7134 18.2135 76.8497 17.5883 77.1222 17.0939C77.3948 16.5996 77.7667 16.2041 78.238 15.9075C78.7093 15.6109 79.2402 15.387 79.8308 15.2358C80.4269 15.0788 81.043 14.9654 81.679 14.8956C82.4455 14.8142 83.0673 14.7415 83.5443 14.6775C84.0213 14.6077 84.3676 14.503 84.5834 14.3634C84.8049 14.218 84.9156 13.9942 84.9156 13.6917V13.6394C84.9156 12.9822 84.7254 12.4734 84.3449 12.1128C83.9645 11.7522 83.4165 11.5719 82.7011 11.5719C81.9458 11.5719 81.3468 11.7406 80.9039 12.0779C80.4667 12.4152 80.1715 12.8136 80.0182 13.273L77.1393 12.8543C77.3664 12.0401 77.7412 11.3597 78.2636 10.813C78.786 10.2605 79.4248 9.84759 80.18 9.57425C80.9351 9.29511 81.7698 9.15553 82.684 9.15553C83.3143 9.15553 83.9418 9.23113 84.5664 9.38234C85.191 9.53355 85.7617 9.78362 86.2784 10.1326C86.7951 10.4757 87.2096 10.9438 87.5219 11.537C87.8399 12.1302 87.9988 12.8717 87.9988 13.7615V22.7293H85.0348V20.8886H84.9326C84.7452 21.2608 84.4812 21.6097 84.1405 21.9354C83.8055 22.2553 83.3825 22.5141 82.8714 22.7118C82.366 22.9037 81.7727 22.9997 81.0913 22.9997ZM81.8919 20.6792C82.5108 20.6792 83.0474 20.5542 83.5017 20.3041C83.956 20.0482 84.3052 19.7109 84.5493 19.2922C84.7992 18.8735 84.9241 18.417 84.9241 17.9227V16.3437C84.8276 16.4251 84.6629 16.5007 84.4301 16.5705C84.203 16.6403 83.9474 16.7014 83.6635 16.7537C83.3796 16.806 83.0985 16.8526 82.8203 16.8933C82.5421 16.934 82.3007 16.9689 82.0963 16.998C81.6364 17.0619 81.2247 17.1666 80.8613 17.312C80.4979 17.4574 80.2112 17.661 80.0011 17.9227C79.791 18.1786 79.686 18.5101 79.686 18.9172C79.686 19.4986 79.8932 19.9377 80.3077 20.2343C80.7222 20.5309 81.2503 20.6792 81.8919 20.6792Z" fill="#2D2D2D"/>
<path d="M42.9954 4.86357H46.1554V16.5356C46.1554 17.8151 45.8601 18.9404 45.2696 19.9115C44.6847 20.8828 43.8613 21.6417 42.7995 22.1884C41.7377 22.7293 40.497 22.9997 39.0775 22.9997C37.6522 22.9997 36.4087 22.7293 35.3469 22.1884C34.2851 21.6417 33.4617 20.8828 32.8769 19.9115C32.292 18.9404 31.9996 17.8151 31.9996 16.5356V4.86357H35.1595V16.2652C35.1595 17.0096 35.3185 17.6726 35.6365 18.2542C35.9601 18.8357 36.4144 19.2922 36.9992 19.6237C37.5841 19.9493 38.2768 20.1122 39.0775 20.1122C39.8781 20.1122 40.5708 19.9493 41.1557 19.6237C41.7462 19.2922 42.2004 18.8357 42.5184 18.2542C42.8364 17.6726 42.9954 17.0096 42.9954 16.2652V4.86357ZM55.9865 9.33V11.7726H48.4657V9.33H55.9865ZM50.3224 6.11975H53.4057V18.6991C53.4057 19.1236 53.4682 19.4492 53.5931 19.676C53.7237 19.897 53.8941 20.0482 54.1042 20.1296C54.3143 20.2111 54.5471 20.2518 54.8026 20.2518C54.9957 20.2518 55.1717 20.2372 55.3307 20.2081C55.4954 20.1791 55.6203 20.1529 55.7054 20.1296L56.225 22.5984C56.0603 22.6566 55.8247 22.7205 55.5181 22.7903C55.2171 22.8601 54.848 22.9008 54.4108 22.9125C53.6386 22.9357 52.943 22.8165 52.324 22.5548C51.7051 22.2873 51.2139 21.8744 50.8505 21.316C50.4928 20.7577 50.3168 20.0598 50.3224 19.2224V6.11975ZM58.5651 22.7293V9.33H61.6484V22.7293H58.5651ZM60.1152 7.42828C59.6269 7.42828 59.2067 7.26253 58.8547 6.93104C58.5026 6.59373 58.3266 6.18954 58.3266 5.71848C58.3266 5.24159 58.5026 4.8374 58.8547 4.50591C59.2067 4.1686 59.6269 3.99995 60.1152 3.99995C60.6093 3.99995 61.0295 4.1686 61.3758 4.50591C61.7279 4.8374 61.9039 5.24159 61.9039 5.71848C61.9039 6.18954 61.7279 6.59373 61.3758 6.93104C61.0295 7.26253 60.6093 7.42828 60.1152 7.42828ZM67.9022 4.86357V22.7293H64.819V4.86357H67.9022ZM74.156 4.86357V22.7293H71.0728V4.86357H74.156ZM81.0913 22.9997C80.2622 22.9997 79.5156 22.8485 78.8513 22.5461C78.1926 22.2378 77.6702 21.7842 77.2841 21.1852C76.9036 20.5862 76.7134 19.8476 76.7134 18.9695C76.7134 18.2135 76.8497 17.5883 77.1222 17.0939C77.3948 16.5996 77.7667 16.2041 78.238 15.9075C78.7093 15.6109 79.2402 15.387 79.8308 15.2358C80.4269 15.0788 81.043 14.9654 81.679 14.8956C82.4455 14.8142 83.0673 14.7415 83.5443 14.6775C84.0213 14.6077 84.3676 14.503 84.5834 14.3634C84.8049 14.218 84.9156 13.9942 84.9156 13.6917V13.6394C84.9156 12.9822 84.7254 12.4734 84.3449 12.1128C83.9645 11.7522 83.4165 11.5719 82.7011 11.5719C81.9458 11.5719 81.3468 11.7406 80.9039 12.0779C80.4667 12.4152 80.1715 12.8136 80.0182 13.273L77.1393 12.8543C77.3664 12.0401 77.7412 11.3597 78.2636 10.813C78.786 10.2605 79.4248 9.84759 80.18 9.57425C80.9351 9.29511 81.7698 9.15553 82.684 9.15553C83.3143 9.15553 83.9418 9.23113 84.5664 9.38234C85.191 9.53355 85.7617 9.78362 86.2784 10.1326C86.7951 10.4757 87.2096 10.9438 87.5219 11.537C87.8399 12.1302 87.9988 12.8717 87.9988 13.7615V22.7293H85.0348V20.8886H84.9326C84.7452 21.2608 84.4812 21.6097 84.1405 21.9354C83.8055 22.2553 83.3825 22.5141 82.8714 22.7118C82.366 22.9037 81.7727 22.9997 81.0913 22.9997ZM81.8919 20.6792C82.5108 20.6792 83.0474 20.5542 83.5017 20.3041C83.956 20.0482 84.3052 19.7109 84.5493 19.2922C84.7992 18.8735 84.9241 18.417 84.9241 17.9227V16.3437C84.8276 16.4251 84.6629 16.5007 84.4301 16.5705C84.203 16.6403 83.9474 16.7014 83.6635 16.7537C83.3796 16.806 83.0985 16.8526 82.8203 16.8933C82.5421 16.934 82.3007 16.9689 82.0963 16.998C81.6364 17.0619 81.2247 17.1666 80.8613 17.312C80.4979 17.4574 80.2112 17.661 80.0011 17.9227C79.791 18.1786 79.686 18.5101 79.686 18.9172C79.686 19.4986 79.8932 19.9377 80.3077 20.2343C80.7222 20.5309 81.2503 20.6792 81.8919 20.6792Z" fill="#2D2D2D"/>
<path d="M42.9954 4.86357H46.1554V16.5356C46.1554 17.8151 45.8601 18.9404 45.2696 19.9115C44.6847 20.8828 43.8613 21.6417 42.7995 22.1884C41.7377 22.7293 40.497 22.9997 39.0775 22.9997C37.6522 22.9997 36.4087 22.7293 35.3469 22.1884C34.2851 21.6417 33.4617 20.8828 32.8769 19.9115C32.292 18.9404 31.9996 17.8151 31.9996 16.5356V4.86357H35.1595V16.2652C35.1595 17.0096 35.3185 17.6726 35.6365 18.2542C35.9601 18.8357 36.4144 19.2922 36.9992 19.6237C37.5841 19.9493 38.2768 20.1122 39.0775 20.1122C39.8781 20.1122 40.5708 19.9493 41.1557 19.6237C41.7462 19.2922 42.2004 18.8357 42.5184 18.2542C42.8364 17.6726 42.9954 17.0096 42.9954 16.2652V4.86357ZM55.9865 9.33V11.7726H48.4657V9.33H55.9865ZM50.3224 6.11975H53.4057V18.6991C53.4057 19.1236 53.4682 19.4492 53.5931 19.676C53.7237 19.897 53.8941 20.0482 54.1042 20.1296C54.3143 20.2111 54.5471 20.2518 54.8026 20.2518C54.9957 20.2518 55.1717 20.2372 55.3307 20.2081C55.4954 20.1791 55.6203 20.1529 55.7054 20.1296L56.225 22.5984C56.0603 22.6566 55.8247 22.7205 55.5181 22.7903C55.2171 22.8601 54.848 22.9008 54.4108 22.9125C53.6386 22.9357 52.943 22.8165 52.324 22.5548C51.7051 22.2873 51.2139 21.8744 50.8505 21.316C50.4928 20.7577 50.3168 20.0598 50.3224 19.2224V6.11975ZM58.5651 22.7293V9.33H61.6484V22.7293H58.5651ZM60.1152 7.42828C59.6269 7.42828 59.2067 7.26253 58.8547 6.93104C58.5026 6.59373 58.3266 6.18954 58.3266 5.71848C58.3266 5.24159 58.5026 4.8374 58.8547 4.50591C59.2067 4.1686 59.6269 3.99995 60.1152 3.99995C60.6093 3.99995 61.0295 4.1686 61.3758 4.50591C61.7279 4.8374 61.9039 5.24159 61.9039 5.71848C61.9039 6.18954 61.7279 6.59373 61.3758 6.93104C61.0295 7.26253 60.6093 7.42828 60.1152 7.42828ZM67.9022 4.86357V22.7293H64.819V4.86357H67.9022ZM74.156 4.86357V22.7293H71.0728V4.86357H74.156ZM81.0913 22.9997C80.2622 22.9997 79.5156 22.8485 78.8513 22.5461C78.1926 22.2378 77.6702 21.7842 77.2841 21.1852C76.9036 20.5862 76.7134 19.8476 76.7134 18.9695C76.7134 18.2135 76.8497 17.5883 77.1222 17.0939C77.3948 16.5996 77.7667 16.2041 78.238 15.9075C78.7093 15.6109 79.2402 15.387 79.8308 15.2358C80.4269 15.0788 81.043 14.9654 81.679 14.8956C82.4455 14.8142 83.0673 14.7415 83.5443 14.6775C84.0213 14.6077 84.3676 14.503 84.5834 14.3634C84.8049 14.218 84.9156 13.9942 84.9156 13.6917V13.6394C84.9156 12.9822 84.7254 12.4734 84.3449 12.1128C83.9645 11.7522 83.4165 11.5719 82.7011 11.5719C81.9458 11.5719 81.3468 11.7406 80.9039 12.0779C80.4667 12.4152 80.1715 12.8136 80.0182 13.273L77.1393 12.8543C77.3664 12.0401 77.7412 11.3597 78.2636 10.813C78.786 10.2605 79.4248 9.84759 80.18 9.57425C80.9351 9.29511 81.7698 9.15553 82.684 9.15553C83.3143 9.15553 83.9418 9.23113 84.5664 9.38234C85.191 9.53355 85.7617 9.78362 86.2784 10.1326C86.7951 10.4757 87.2096 10.9438 87.5219 11.537C87.8399 12.1302 87.9988 12.8717 87.9988 13.7615V22.7293H85.0348V20.8886H84.9326C84.7452 21.2608 84.4812 21.6097 84.1405 21.9354C83.8055 22.2553 83.3825 22.5141 82.8714 22.7118C82.366 22.9037 81.7727 22.9997 81.0913 22.9997ZM81.8919 20.6792C82.5108 20.6792 83.0474 20.5542 83.5017 20.3041C83.956 20.0482 84.3052 19.7109 84.5493 19.2922C84.7992 18.8735 84.9241 18.417 84.9241 17.9227V16.3437C84.8276 16.4251 84.6629 16.5007 84.4301 16.5705C84.203 16.6403 83.9474 16.7014 83.6635 16.7537C83.3796 16.806 83.0985 16.8526 82.8203 16.8933C82.5421 16.934 82.3007 16.9689 82.0963 16.998C81.6364 17.0619 81.2247 17.1666 80.8613 17.312C80.4979 17.4574 80.2112 17.661 80.0011 17.9227C79.791 18.1786 79.686 18.5101 79.686 18.9172C79.686 19.4986 79.8932 19.9377 80.3077 20.2343C80.7222 20.5309 81.2503 20.6792 81.8919 20.6792Z" fill="#2D2D2D"/>
<path d="M42.9954 4.86357H46.1554V16.5356C46.1554 17.8151 45.8601 18.9404 45.2696 19.9115C44.6847 20.8828 43.8613 21.6417 42.7995 22.1884C41.7377 22.7293 40.497 22.9997 39.0775 22.9997C37.6522 22.9997 36.4087 22.7293 35.3469 22.1884C34.2851 21.6417 33.4617 20.8828 32.8769 19.9115C32.292 18.9404 31.9996 17.8151 31.9996 16.5356V4.86357H35.1595V16.2652C35.1595 17.0096 35.3185 17.6726 35.6365 18.2542C35.9601 18.8357 36.4144 19.2922 36.9992 19.6237C37.5841 19.9493 38.2768 20.1122 39.0775 20.1122C39.8781 20.1122 40.5708 19.9493 41.1557 19.6237C41.7462 19.2922 42.2004 18.8357 42.5184 18.2542C42.8364 17.6726 42.9954 17.0096 42.9954 16.2652V4.86357ZM55.9865 9.33V11.7726H48.4657V9.33H55.9865ZM50.3224 6.11975H53.4057V18.6991C53.4057 19.1236 53.4682 19.4492 53.5931 19.676C53.7237 19.897 53.8941 20.0482 54.1042 20.1296C54.3143 20.2111 54.5471 20.2518 54.8026 20.2518C54.9957 20.2518 55.1717 20.2372 55.3307 20.2081C55.4954 20.1791 55.6203 20.1529 55.7054 20.1296L56.225 22.5984C56.0603 22.6566 55.8247 22.7205 55.5181 22.7903C55.2171 22.8601 54.848 22.9008 54.4108 22.9125C53.6386 22.9357 52.943 22.8165 52.324 22.5548C51.7051 22.2873 51.2139 21.8744 50.8505 21.316C50.4928 20.7577 50.3168 20.0598 50.3224 19.2224V6.11975ZM58.5651 22.7293V9.33H61.6484V22.7293H58.5651ZM60.1152 7.42828C59.6269 7.42828 59.2067 7.26253 58.8547 6.93104C58.5026 6.59373 58.3266 6.18954 58.3266 5.71848C58.3266 5.24159 58.5026 4.8374 58.8547 4.50591C59.2067 4.1686 59.6269 3.99995 60.1152 3.99995C60.6093 3.99995 61.0295 4.1686 61.3758 4.50591C61.7279 4.8374 61.9039 5.24159 61.9039 5.71848C61.9039 6.18954 61.7279 6.59373 61.3758 6.93104C61.0295 7.26253 60.6093 7.42828 60.1152 7.42828ZM67.9022 4.86357V22.7293H64.819V4.86357H67.9022ZM74.156 4.86357V22.7293H71.0728V4.86357H74.156ZM81.0913 22.9997C80.2622 22.9997 79.5156 22.8485 78.8513 22.5461C78.1926 22.2378 77.6702 21.7842 77.2841 21.1852C76.9036 20.5862 76.7134 19.8476 76.7134 18.9695C76.7134 18.2135 76.8497 17.5883 77.1222 17.0939C77.3948 16.5996 77.7667 16.2041 78.238 15.9075C78.7093 15.6109 79.2402 15.387 79.8308 15.2358C80.4269 15.0788 81.043 14.9654 81.679 14.8956C82.4455 14.8142 83.0673 14.7415 83.5443 14.6775C84.0213 14.6077 84.3676 14.503 84.5834 14.3634C84.8049 14.218 84.9156 13.9942 84.9156 13.6917V13.6394C84.9156 12.9822 84.7254 12.4734 84.3449 12.1128C83.9645 11.7522 83.4165 11.5719 82.7011 11.5719C81.9458 11.5719 81.3468 11.7406 80.9039 12.0779C80.4667 12.4152 80.1715 12.8136 80.0182 13.273L77.1393 12.8543C77.3664 12.0401 77.7412 11.3597 78.2636 10.813C78.786 10.2605 79.4248 9.84759 80.18 9.57425C80.9351 9.29511 81.7698 9.15553 82.684 9.15553C83.3143 9.15553 83.9418 9.23113 84.5664 9.38234C85.191 9.53355 85.7617 9.78362 86.2784 10.1326C86.7951 10.4757 87.2096 10.9438 87.5219 11.537C87.8399 12.1302 87.9988 12.8717 87.9988 13.7615V22.7293H85.0348V20.8886H84.9326C84.7452 21.2608 84.4812 21.6097 84.1405 21.9354C83.8055 22.2553 83.3825 22.5141 82.8714 22.7118C82.366 22.9037 81.7727 22.9997 81.0913 22.9997ZM81.8919 20.6792C82.5108 20.6792 83.0474 20.5542 83.5017 20.3041C83.956 20.0482 84.3052 19.7109 84.5493 19.2922C84.7992 18.8735 84.9241 18.417 84.9241 17.9227V16.3437C84.8276 16.4251 84.6629 16.5007 84.4301 16.5705C84.203 16.6403 83.9474 16.7014 83.6635 16.7537C83.3796 16.806 83.0985 16.8526 82.8203 16.8933C82.5421 16.934 82.3007 16.9689 82.0963 16.998C81.6364 17.0619 81.2247 17.1666 80.8613 17.312C80.4979 17.4574 80.2112 17.661 80.0011 17.9227C79.791 18.1786 79.686 18.5101 79.686 18.9172C79.686 19.4986 79.8932 19.9377 80.3077 20.2343C80.7222 20.5309 81.2503 20.6792 81.8919 20.6792Z" fill="#2D2D2D"/>
<path d="M42.9954 4.86357H46.1554V16.5356C46.1554 17.8151 45.8601 18.9404 45.2696 19.9115C44.6847 20.8828 43.8613 21.6417 42.7995 22.1884C41.7377 22.7293 40.497 22.9997 39.0775 22.9997C37.6522 22.9997 36.4087 22.7293 35.3469 22.1884C34.2851 21.6417 33.4617 20.8828 32.8769 19.9115C32.292 18.9404 31.9996 17.8151 31.9996 16.5356V4.86357H35.1595V16.2652C35.1595 17.0096 35.3185 17.6726 35.6365 18.2542C35.9601 18.8357 36.4144 19.2922 36.9992 19.6237C37.5841 19.9493 38.2768 20.1122 39.0775 20.1122C39.8781 20.1122 40.5708 19.9493 41.1557 19.6237C41.7462 19.2922 42.2004 18.8357 42.5184 18.2542C42.8364 17.6726 42.9954 17.0096 42.9954 16.2652V4.86357ZM55.9865 9.33V11.7726H48.4657V9.33H55.9865ZM50.3224 6.11975H53.4057V18.6991C53.4057 19.1236 53.4682 19.4492 53.5931 19.676C53.7237 19.897 53.8941 20.0482 54.1042 20.1296C54.3143 20.2111 54.5471 20.2518 54.8026 20.2518C54.9957 20.2518 55.1717 20.2372 55.3307 20.2081C55.4954 20.1791 55.6203 20.1529 55.7054 20.1296L56.225 22.5984C56.0603 22.6566 55.8247 22.7205 55.5181 22.7903C55.2171 22.8601 54.848 22.9008 54.4108 22.9125C53.6386 22.9357 52.943 22.8165 52.324 22.5548C51.7051 22.2873 51.2139 21.8744 50.8505 21.316C50.4928 20.7577 50.3168 20.0598 50.3224 19.2224V6.11975ZM58.5651 22.7293V9.33H61.6484V22.7293H58.5651ZM60.1152 7.42828C59.6269 7.42828 59.2067 7.26253 58.8547 6.93104C58.5026 6.59373 58.3266 6.18954 58.3266 5.71848C58.3266 5.24159 58.5026 4.8374 58.8547 4.50591C59.2067 4.1686 59.6269 3.99995 60.1152 3.99995C60.6093 3.99995 61.0295 4.1686 61.3758 4.50591C61.7279 4.8374 61.9039 5.24159 61.9039 5.71848C61.9039 6.18954 61.7279 6.59373 61.3758 6.93104C61.0295 7.26253 60.6093 7.42828 60.1152 7.42828ZM67.9022 4.86357V22.7293H64.819V4.86357H67.9022ZM74.156 4.86357V22.7293H71.0728V4.86357H74.156ZM81.0913 22.9997C80.2622 22.9997 79.5156 22.8485 78.8513 22.5461C78.1926 22.2378 77.6702 21.7842 77.2841 21.1852C76.9036 20.5862 76.7134 19.8476 76.7134 18.9695C76.7134 18.2135 76.8497 17.5883 77.1222 17.0939C77.3948 16.5996 77.7667 16.2041 78.238 15.9075C78.7093 15.6109 79.2402 15.387 79.8308 15.2358C80.4269 15.0788 81.043 14.9654 81.679 14.8956C82.4455 14.8142 83.0673 14.7415 83.5443 14.6775C84.0213 14.6077 84.3676 14.503 84.5834 14.3634C84.8049 14.218 84.9156 13.9942 84.9156 13.6917V13.6394C84.9156 12.9822 84.7254 12.4734 84.3449 12.1128C83.9645 11.7522 83.4165 11.5719 82.7011 11.5719C81.9458 11.5719 81.3468 11.7406 80.9039 12.0779C80.4667 12.4152 80.1715 12.8136 80.0182 13.273L77.1393 12.8543C77.3664 12.0401 77.7412 11.3597 78.2636 10.813C78.786 10.2605 79.4248 9.84759 80.18 9.57425C80.9351 9.29511 81.7698 9.15553 82.684 9.15553C83.3143 9.15553 83.9418 9.23113 84.5664 9.38234C85.191 9.53355 85.7617 9.78362 86.2784 10.1326C86.7951 10.4757 87.2096 10.9438 87.5219 11.537C87.8399 12.1302 87.9988 12.8717 87.9988 13.7615V22.7293H85.0348V20.8886H84.9326C84.7452 21.2608 84.4812 21.6097 84.1405 21.9354C83.8055 22.2553 83.3825 22.5141 82.8714 22.7118C82.366 22.9037 81.7727 22.9997 81.0913 22.9997ZM81.8919 20.6792C82.5108 20.6792 83.0474 20.5542 83.5017 20.3041C83.956 20.0482 84.3052 19.7109 84.5493 19.2922C84.7992 18.8735 84.9241 18.417 84.9241 17.9227V16.3437C84.8276 16.4251 84.6629 16.5007 84.4301 16.5705C84.203 16.6403 83.9474 16.7014 83.6635 16.7537C83.3796 16.806 83.0985 16.8526 82.8203 16.8933C82.5421 16.934 82.3007 16.9689 82.0963 16.998C81.6364 17.0619 81.2247 17.1666 80.8613 17.312C80.4979 17.4574 80.2112 17.661 80.0011 17.9227C79.791 18.1786 79.686 18.5101 79.686 18.9172C79.686 19.4986 79.8932 19.9377 80.3077 20.2343C80.7222 20.5309 81.2503 20.6792 81.8919 20.6792Z" fill="#2D2D2D"/>
</svg>
