<svg width="48" height="48" viewBox="0 0 48 48" fill="none" xmlns="http://www.w3.org/2000/svg">
<rect width="48" height="48" rx="24" fill="#F8F8F8"/>
<path fill-rule="evenodd" clip-rule="evenodd" d="M22.334 24C22.334 23.0795 23.0802 22.3333 24.0007 22.3333C24.9211 22.3333 25.6673 23.0795 25.6673 24C25.6673 24.9205 24.9211 25.6667 24.0007 25.6667C23.0802 25.6667 22.334 24.9205 22.334 24Z" fill="#2D2D2D"/>
<path fill-rule="evenodd" clip-rule="evenodd" d="M22.334 18.1667C22.334 17.2462 23.0802 16.5 24.0007 16.5C24.9211 16.5 25.6673 17.2462 25.6673 18.1667C25.6673 19.0871 24.9211 19.8333 24.0007 19.8333C23.0802 19.8333 22.334 19.0871 22.334 18.1667Z" fill="#2D2D2D"/>
<path fill-rule="evenodd" clip-rule="evenodd" d="M22.334 29.8333C22.334 28.9129 23.0802 28.1667 24.0007 28.1667C24.9211 28.1667 25.6673 28.9129 25.6673 29.8333C25.6673 30.7538 24.9211 31.5 24.0007 31.5C23.0802 31.5 22.334 30.7538 22.334 29.8333Z" fill="#2D2D2D"/>
</svg>
