<svg width="20" height="20" viewBox="0 0 20 20" fill="none" xmlns="http://www.w3.org/2000/svg">
<path fill-rule="evenodd" clip-rule="evenodd" d="M3.72039 12.8871C4.50179 12.1057 5.5616 11.6667 6.66667 11.6667H13.3333C14.4384 11.6667 15.4982 12.1057 16.2796 12.8871C17.061 13.6685 17.5 14.7283 17.5 15.8333V17.5C17.5 17.9602 17.1269 18.3333 16.6667 18.3333C16.2064 18.3333 15.8333 17.9602 15.8333 17.5V15.8333C15.8333 15.1703 15.5699 14.5344 15.1011 14.0656C14.6323 13.5967 13.9964 13.3333 13.3333 13.3333H6.66667C6.00363 13.3333 5.36774 13.5967 4.8989 14.0656C4.43006 14.5344 4.16667 15.1703 4.16667 15.8333V17.5C4.16667 17.9602 3.79357 18.3333 3.33333 18.3333C2.8731 18.3333 2.5 17.9602 2.5 17.5V15.8333C2.5 14.7283 2.93899 13.6685 3.72039 12.8871Z" fill="#828FA2"/>
<path fill-rule="evenodd" clip-rule="evenodd" d="M9.9987 3.33334C8.61798 3.33334 7.4987 4.45262 7.4987 5.83334C7.4987 7.21405 8.61798 8.33334 9.9987 8.33334C11.3794 8.33334 12.4987 7.21405 12.4987 5.83334C12.4987 4.45262 11.3794 3.33334 9.9987 3.33334ZM5.83203 5.83334C5.83203 3.53215 7.69751 1.66667 9.9987 1.66667C12.2999 1.66667 14.1654 3.53215 14.1654 5.83334C14.1654 8.13452 12.2999 10 9.9987 10C7.69751 10 5.83203 8.13452 5.83203 5.83334Z" fill="#828FA2"/>
</svg>
