<svg width="186" height="153" viewBox="0 0 186 153" fill="none" xmlns="http://www.w3.org/2000/svg">
<path d="M158.108 55.7844C173.513 55.7844 186 43.2966 186 27.8922C186 12.4878 173.513 0 158.108 0C142.704 0 130.216 12.4878 130.216 27.8922C130.216 43.2966 142.704 55.7844 158.108 55.7844Z" fill="#F79A45"/>
<path d="M158.107 50.8448C170.784 50.8448 181.06 40.5686 181.06 27.8921C181.06 15.2156 170.784 4.93936 158.107 4.93936C145.431 4.93936 135.155 15.2156 135.155 27.8921C135.155 40.5686 145.431 50.8448 158.107 50.8448Z" fill="#F8AD43"/>
<path opacity="0.55" d="M165.833 6.27559L141.693 43.929C142.657 44.9152 143.708 45.8131 144.833 46.6115L169.578 8.01427C168.385 7.32272 167.131 6.74078 165.833 6.27559ZM172.089 9.69406L147.405 48.1965C150.527 49.8448 153.99 50.7464 157.52 50.8302L178.712 17.7748C177.152 14.6097 174.886 11.845 172.089 9.69406ZM158.695 4.95402L137.503 38.0094C138.172 39.3678 138.974 40.6566 139.897 41.857L163.197 5.51267C161.719 5.17845 160.211 4.99132 158.695 4.95402Z" fill="#F8D24A"/>
<path d="M156.908 47.8159V43.0714C153.934 43.0244 150.858 42.1787 149.063 41.0043L150.294 37.857C152.531 39.1762 155.08 39.8735 157.677 39.8768C161.317 39.8768 163.779 37.9508 163.779 35.2733C163.779 32.6894 161.779 31.0924 157.985 29.6829C152.755 27.804 149.524 25.6429 149.524 21.556C149.524 17.6569 152.55 14.6974 157.267 13.9927V9.24818H160.446V13.805C162.767 13.8164 165.051 14.3799 167.111 15.449L165.83 18.5495C163.847 17.4758 161.623 16.926 159.369 16.9522C155.421 16.9522 153.934 19.1133 153.934 20.9924C153.934 23.4351 155.831 24.6566 160.292 26.3475C165.573 28.3207 168.239 30.7636 168.239 34.9443C168.239 38.6557 165.419 42.1317 160.138 42.9303V47.8159H156.908Z" fill="#FFE900"/>
<path d="M43.9947 51.656H137.587C139.405 51.656 141.147 52.3778 142.432 53.6627C143.717 54.9477 144.439 56.6904 144.439 58.5075V130.602C144.439 132.419 143.717 134.162 142.432 135.446C141.147 136.731 139.405 137.453 137.587 137.453H43.9946C42.1775 137.453 40.4348 136.731 39.1499 135.446C37.865 134.162 37.1431 132.419 37.1431 130.602V58.5075C37.1431 56.6904 37.865 54.9477 39.1499 53.6627C40.4348 52.3778 42.1775 51.656 43.9947 51.656Z" fill="#FF8B6A"/>
<path d="M137.642 51.656H43.9402C42.1375 51.656 40.4086 52.3721 39.134 53.6468C37.8593 54.9215 37.1431 56.6503 37.1431 58.453C37.1431 60.2557 37.8593 61.9845 39.134 63.2593C40.4086 64.534 42.1375 65.2501 43.9402 65.2501H137.642C139.445 65.2501 141.173 64.534 142.448 63.2593C143.723 61.9845 144.439 60.2557 144.439 58.453C144.439 56.6503 143.723 54.9215 142.448 53.6468C141.173 52.3721 139.445 51.656 137.642 51.656ZM144.439 108.379H99.4271C97.1366 108.379 94.94 107.47 93.3204 105.85C91.7008 104.23 90.791 102.034 90.791 99.7433C90.791 97.4528 91.7008 95.2562 93.3204 93.6366C94.94 92.017 97.1366 91.1071 99.4271 91.1071H144.439V108.379Z" fill="#5564D7"/>
<path d="M104.157 99.7433C104.157 100.548 103.919 101.334 103.472 102.002C103.025 102.671 102.39 103.192 101.647 103.5C100.904 103.808 100.087 103.888 99.2978 103.732C98.509 103.575 97.7845 103.187 97.2158 102.619C96.6471 102.05 96.2598 101.325 96.1029 100.537C95.946 99.7478 96.0265 98.9302 96.3343 98.1872C96.6421 97.4442 97.1633 96.8091 97.832 96.3623C98.5007 95.9155 99.2869 95.677 100.091 95.677C101.17 95.677 102.204 96.1055 102.966 96.868C103.729 97.6306 104.157 98.6649 104.157 99.7433Z" fill="#FF8B6A"/>
<path d="M104.942 60.1186L124.11 40.9495L90.9823 7.82151L41.2537 60.1186H104.942Z" fill="#FF8B6A"/>
<path d="M139.294 34.4956L109.67 4.87147L58.0454 56.4956H117.294L139.294 34.4956Z" fill="#E6F1FF"/>
<path d="M109.668 9.28579L62.4588 56.4954H66.8736L103.758 19.6114C105.453 21.0977 107.603 21.964 109.855 22.0681C112.107 22.1723 114.327 21.5082 116.152 20.1847L123.979 28.0117C122.656 29.8367 121.992 32.0572 122.096 34.3093C122.2 36.5613 123.066 38.7111 124.553 40.406L108.463 56.4954H112.878L134.878 34.4954L109.668 9.28579ZM85.1414 43.1027C83.4171 44.8284 82.3002 47.0676 81.9589 49.4831C81.6176 51.8985 82.0703 54.3595 83.249 56.4954H102.954C104.264 54.1213 104.673 51.3537 104.106 48.7019C103.538 46.0501 102.032 43.6925 99.8643 42.0628C97.6968 40.4331 95.0136 39.6408 92.3085 39.8319C89.6034 40.023 87.0583 41.1845 85.1414 43.1027Z" fill="#7EA8C4"/>
<path d="M132.027 60.1183L148.594 43.5514L118.97 13.9267L72.7781 60.1183H132.027Z" fill="#E6F1FF"/>
<path d="M118.97 18.3415L77.1934 60.1184H81.6082L113.06 28.667C114.755 30.1534 116.904 31.0197 119.156 31.1239C121.408 31.228 123.629 30.5639 125.454 29.2404L133.281 37.0674C131.958 38.8923 131.294 41.113 131.398 43.3649C131.502 45.6169 132.368 47.7667 133.854 49.4618L123.198 60.1184H127.613L144.18 43.5511L118.97 18.3415ZM94.4431 52.1583C93.3974 53.2026 92.5688 54.4438 92.0052 55.81C91.4415 57.1761 91.1539 58.6404 91.159 60.1184H113.647C113.651 57.8917 112.994 55.7142 111.758 53.8617C110.523 52.0093 108.765 50.5653 106.709 49.7127C104.652 48.8601 102.388 48.6375 100.204 49.0728C98.0209 49.5082 96.0157 50.5821 94.4431 52.1583Z" fill="#7EA8C4"/>
<path d="M135.169 39.4871H46.4153V60.1185H135.169V39.4871Z" fill="#E6F1FF"/>
<path d="M49.5353 42.6085V60.1181H52.6571V54.9001C54.8835 54.5455 56.9233 53.4449 58.4421 51.7788C59.9609 50.1127 60.8685 47.9799 61.0161 45.7303H120.565C120.713 47.9799 121.62 50.1127 123.139 51.7787C124.658 53.4449 126.698 54.5455 128.924 54.9001V60.1181H132.046V42.6085H49.5353ZM90.7906 49.1774C87.8612 49.1785 85.0478 50.3222 82.9487 52.3654C80.8494 54.4084 79.6299 57.1899 79.5495 60.1181H102.032C101.951 57.1899 100.732 54.4085 98.6326 52.3654C96.5333 50.3222 93.72 49.1785 90.7906 49.1774Z" fill="#8DBAD3"/>
<path d="M59.6655 143.531H7.5607V152.804H59.6655V143.531Z" fill="#F79A45"/>
<path d="M56.1077 143.531H25.6986V152.804H56.1077V143.531Z" fill="#F8AD43"/>
<path d="M50.7767 143.531H45.9054V152.804H50.7767V143.531Z" fill="#F8D24A"/>
<g style="mix-blend-mode:multiply" opacity="0.5">
<path d="M59.6655 151.422H7.5607V152.804H59.6655V151.422Z" fill="#F79A45"/>
</g>
<path d="M55.8851 134.258H3.78035V143.531H55.8851V134.258Z" fill="#F79A45"/>
<path d="M52.3293 134.258H21.9202V143.531H52.3293V134.258Z" fill="#F8AD43"/>
<path d="M46.9964 134.258H42.125V143.531H46.9964V134.258Z" fill="#F8D24A"/>
<g style="mix-blend-mode:multiply" opacity="0.5">
<path d="M55.8851 142.149H3.78035V143.532H55.8851V142.149Z" fill="#F79A45"/>
</g>
<path d="M59.6655 124.986H7.5607V134.259H59.6655V124.986Z" fill="#F79A45"/>
<path d="M56.1077 124.986H25.6986V134.259H56.1077V124.986Z" fill="#F8AD43"/>
<path d="M50.7767 124.986H45.9054V134.259H50.7767V124.986Z" fill="#F8D24A"/>
<g style="mix-blend-mode:multiply" opacity="0.5">
<path d="M59.6655 132.876H7.5607V134.259H59.6655V132.876Z" fill="#F79A45"/>
</g>
<path d="M52.1048 115.713H0V124.986H52.1048V115.713Z" fill="#F79A45"/>
<path d="M48.549 115.713H18.1398V124.986H48.549V115.713Z" fill="#F8AD43"/>
<path d="M43.216 115.713H38.3447V124.986H43.216V115.713Z" fill="#F8D24A"/>
<g style="mix-blend-mode:multiply" opacity="0.5">
<path d="M52.1048 123.603H0V124.986H52.1048V123.603Z" fill="#F79A45"/>
</g>
<path d="M55.8851 106.44H3.78035V115.713H55.8851V106.44Z" fill="#F79A45"/>
<path d="M52.3293 106.44H21.9202V115.713H52.3293V106.44Z" fill="#F8AD43"/>
<path d="M46.9964 106.44H42.125V115.713H46.9964V106.44Z" fill="#F8D24A"/>
<g style="mix-blend-mode:multiply" opacity="0.5">
<path d="M55.8851 114.33H3.78035V115.713H55.8851V114.33Z" fill="#F79A45"/>
</g>
<path d="M59.6655 97.1667H7.5607V106.44H59.6655V97.1667Z" fill="#F79A45"/>
<path d="M56.1077 97.1667H25.6986V106.44H56.1077V97.1667Z" fill="#F8AD43"/>
<path d="M50.7767 97.1667H45.9054V106.44H50.7767V97.1667Z" fill="#F8D24A"/>
<g style="mix-blend-mode:multiply" opacity="0.5">
<path d="M59.6655 105.057H7.5607V106.44H59.6655V105.057Z" fill="#F79A45"/>
</g>
</svg>
