<svg width="20" height="20" viewBox="0 0 20 20" fill="none" xmlns="http://www.w3.org/2000/svg">
<path fill-rule="evenodd" clip-rule="evenodd" d="M0.832031 1.66668C0.832031 1.20644 1.20513 0.833344 1.66536 0.833344H9.9987C10.2197 0.833344 10.4317 0.921141 10.588 1.07742L17.748 8.2375C18.2136 8.70591 18.475 9.33954 18.475 10C18.475 10.6605 18.2136 11.2941 17.748 11.7625L17.157 11.175L17.7463 11.7642L11.7716 17.7389C11.7715 17.739 11.7717 17.7388 11.7716 17.7389C11.5395 17.9712 11.2635 18.1558 10.9602 18.2815C10.6567 18.4074 10.3314 18.4721 10.0029 18.4721C9.67433 18.4721 9.34901 18.4074 9.04551 18.2815C8.74209 18.1558 8.46643 17.9714 8.23429 17.7391C8.23423 17.739 8.23435 17.7391 8.23429 17.7391L1.07645 10.5896C0.919962 10.4333 0.832031 10.2212 0.832031 10V1.66668ZM16.566 10.5875C16.5662 10.5873 16.5665 10.587 16.5668 10.5867C16.7215 10.4307 16.8083 10.2198 16.8083 10C16.8083 9.78021 16.7215 9.56933 16.5668 9.41328C16.5665 9.41302 16.5662 9.41276 16.566 9.41251L9.65352 2.50001H2.4987V9.65454L9.41261 16.5604L9.41328 16.561C9.49067 16.6385 9.58258 16.7 9.68375 16.7419C9.78491 16.7839 9.89335 16.8054 10.0029 16.8054C10.1124 16.8054 10.2208 16.7839 10.322 16.7419C10.4231 16.7 10.5151 16.6385 10.5925 16.561L16.566 10.5875Z" fill="#5564D7"/>
</svg>
