<svg width="200" height="200" viewBox="0 0 200 200" fill="none" xmlns="http://www.w3.org/2000/svg">
<path d="M43.057 105.095L41.2854 104.708L40.882 102.94C40.8752 102.91 40.8583 102.883 40.8341 102.863C40.8098 102.844 40.7797 102.833 40.7487 102.833C40.7175 102.834 40.6873 102.844 40.6629 102.864C40.6384 102.883 40.6211 102.91 40.6137 102.94L40.2104 104.717L38.4387 105.137C38.4082 105.144 38.381 105.162 38.3617 105.187C38.3423 105.211 38.3319 105.242 38.332 105.273C38.3322 105.304 38.343 105.334 38.3628 105.358C38.3825 105.382 38.4099 105.399 38.4404 105.405L40.212 105.792L40.6137 107.56C40.6211 107.59 40.6384 107.617 40.6629 107.637C40.6873 107.656 40.7175 107.666 40.7487 107.667C40.7797 107.667 40.8098 107.656 40.8341 107.637C40.8583 107.617 40.8752 107.59 40.882 107.56L41.287 105.783L43.0587 105.363C43.0899 105.357 43.1179 105.341 43.1381 105.316C43.1583 105.292 43.1693 105.261 43.1693 105.229C43.1693 105.197 43.1583 105.167 43.1381 105.142C43.1179 105.118 43.0899 105.101 43.0587 105.095H43.057ZM87.802 43.6783L86.5137 43.3983L86.2203 42.1117C86.2154 42.0896 86.2032 42.0699 86.1857 42.0556C86.1681 42.0414 86.1463 42.0335 86.1237 42.0333C86.1009 42.0338 86.079 42.0417 86.0612 42.0558C86.0434 42.07 86.0308 42.0896 86.0253 42.1117L85.732 43.4033L84.4437 43.71C84.4213 43.715 84.4014 43.7274 84.3871 43.7453C84.3729 43.7632 84.3652 43.7854 84.3653 43.8083C84.3659 43.8311 84.3741 43.8529 84.3886 43.8705C84.4031 43.888 84.4231 43.9002 84.4453 43.905L85.7337 44.185L86.0253 45.4717C86.0308 45.4937 86.0434 45.5133 86.0612 45.5275C86.079 45.5417 86.1009 45.5496 86.1237 45.55C86.1463 45.5498 86.1681 45.5419 86.1857 45.5277C86.2032 45.5135 86.2154 45.4937 86.2203 45.4717L86.5153 44.18L87.8037 43.8733C87.826 43.8686 87.8459 43.8562 87.86 43.8382C87.874 43.8202 87.8812 43.7978 87.8803 43.775C87.8804 43.7523 87.8727 43.7303 87.8584 43.7127C87.8441 43.6951 87.8242 43.6829 87.802 43.6783ZM122.44 80.2616L124.212 79.875L124.614 78.1066C124.621 78.0764 124.638 78.0494 124.663 78.0301C124.687 78.0108 124.718 78.0002 124.749 78C124.78 78 124.81 78.0105 124.834 78.0299C124.858 78.0493 124.875 78.0764 124.882 78.1066L125.287 79.8833L127.059 80.3033C127.09 80.3093 127.118 80.326 127.138 80.3505C127.158 80.375 127.169 80.4057 127.169 80.4375C127.169 80.4692 127.158 80.4999 127.138 80.5244C127.118 80.5489 127.09 80.5656 127.059 80.5716L125.287 80.9583L124.884 82.7266C124.877 82.7569 124.86 82.784 124.836 82.8034C124.812 82.8227 124.781 82.8333 124.75 82.8333C124.719 82.8331 124.689 82.8225 124.665 82.8032C124.64 82.7838 124.623 82.7569 124.615 82.7266L124.212 80.95L122.44 80.53C122.41 80.5225 122.383 80.5049 122.363 80.4801C122.344 80.4553 122.334 80.4247 122.334 80.3933C122.334 80.3625 122.344 80.3326 122.364 80.3086C122.383 80.2847 122.41 80.2681 122.44 80.2616ZM129.889 65.3333L130.805 65.1333L131.012 64.2183C131.016 64.2023 131.024 64.1881 131.037 64.1778C131.05 64.1676 131.066 64.162 131.082 64.162C131.098 64.162 131.114 64.1676 131.127 64.1778C131.14 64.1881 131.149 64.2023 131.152 64.2183L131.36 65.1383L132.277 65.355C132.293 65.359 132.306 65.368 132.316 65.3807C132.326 65.3933 132.332 65.4089 132.332 65.425C132.332 65.4412 132.326 65.4568 132.316 65.4693C132.306 65.4817 132.291 65.4902 132.275 65.4933L131.359 65.6933L131.152 66.6083C131.149 66.6243 131.14 66.6385 131.127 66.6488C131.114 66.659 131.098 66.6646 131.082 66.6646C131.066 66.6646 131.05 66.659 131.037 66.6488C131.024 66.6385 131.016 66.6243 131.012 66.6083L130.804 65.6883L129.887 65.4716C129.871 65.4679 129.857 65.4589 129.847 65.4462C129.837 65.4335 129.832 65.4178 129.832 65.4016C129.832 65.3854 129.838 65.3698 129.848 65.3573C129.859 65.3449 129.873 65.3364 129.889 65.3333Z" fill="#4F3CC9"/>
<path d="M71.2227 155.298V100.666C71.2227 99.1835 71.8118 97.7612 72.8604 96.7126C73.9091 95.6639 75.3313 95.0748 76.8143 95.0748H93.8144C94.8878 95.075 95.9384 95.3841 96.8409 95.9651C97.7435 96.5461 98.4598 97.3745 98.9044 98.3515L100.724 102.333C101.169 103.31 101.885 104.139 102.787 104.721C103.69 105.302 104.741 105.611 105.814 105.612H132.568C133.303 105.61 134.031 105.754 134.711 106.035C135.39 106.316 136.008 106.728 136.528 107.248C137.048 107.767 137.461 108.384 137.742 109.064C138.024 109.743 138.168 110.471 138.168 111.207V155.298C138.167 156.781 137.578 158.203 136.529 159.251C135.481 160.299 134.059 160.888 132.576 160.888H76.8143C75.3316 160.888 73.9096 160.299 72.861 159.251C71.8124 158.203 71.2231 156.781 71.2227 155.298Z" fill="#5564D7"/>
<path d="M132.568 161.388H76.8143C75.1995 161.386 73.6514 160.744 72.5094 159.603C71.3674 158.461 70.7249 156.913 70.7227 155.298V100.666C70.7244 99.0514 71.3668 97.503 72.5088 96.361C73.6508 95.219 75.1993 94.5766 76.8143 94.5748H93.8144C94.9834 94.5767 96.1273 94.9141 97.1102 95.5469C98.0931 96.1798 98.8738 97.0814 99.3594 98.1448L101.173 102.133C101.578 103.022 102.23 103.776 103.051 104.305C103.873 104.835 104.829 105.117 105.806 105.118H132.568C134.184 105.118 135.734 105.759 136.877 106.9C138.021 108.042 138.665 109.591 138.668 111.207V155.298C138.665 156.914 138.022 158.464 136.878 159.606C135.734 160.747 134.184 161.389 132.568 161.388ZM76.8143 95.5715C75.4639 95.5733 74.1693 96.1107 73.2147 97.0659C72.2602 98.0211 71.7235 99.3161 71.7227 100.666V155.298C71.7244 156.648 72.2615 157.942 73.216 158.896C74.1706 159.85 75.4646 160.387 76.8143 160.388H132.568C133.919 160.389 135.215 159.853 136.171 158.899C137.128 157.944 137.666 156.649 137.668 155.298V111.207C137.666 109.857 137.129 108.563 136.174 107.608C135.22 106.654 133.926 106.117 132.576 106.115H105.814C104.645 106.113 103.501 105.775 102.518 105.142C101.535 104.509 100.755 103.607 100.269 102.543L98.4577 98.5548C98.0518 97.666 97.3993 96.9124 96.5776 96.3836C95.756 95.8547 94.7998 95.5729 93.8227 95.5715H76.8143Z" fill="#4F3CC9"/>
<path d="M129.692 160.888C129.692 160.888 123.142 160.57 121.544 152.262L115.81 119.818C115.582 118.525 114.906 117.353 113.9 116.509C112.894 115.664 111.623 115.201 110.31 115.2H59.5969C58.7743 115.199 57.9617 115.38 57.217 115.729C56.4723 116.078 55.8138 116.588 55.2885 117.221C54.7632 117.854 54.3841 118.595 54.1781 119.391C53.9722 120.188 53.9444 121.02 54.0969 121.828L60.6169 156.333C60.859 157.614 61.5412 158.771 62.5455 159.602C63.5498 160.433 64.8131 160.888 66.1169 160.887L129.692 160.888Z" fill="#FF8B6A"/>
<path d="M129.692 161.388H66.112C64.693 161.388 63.3187 160.892 62.2261 159.986C61.1336 159.081 60.3912 157.822 60.1269 156.428L53.6119 121.928C53.4455 121.048 53.4752 120.142 53.6991 119.275C53.9229 118.408 54.3353 117.6 54.9068 116.911C55.4784 116.221 56.1951 115.666 57.0058 115.285C57.8165 114.904 58.7012 114.707 59.5969 114.707H110.304C111.736 114.704 113.123 115.208 114.221 116.128C115.319 117.049 116.056 118.327 116.304 119.738L122.039 152.182C123.539 160.005 129.655 160.393 129.717 160.397L129.692 161.388ZM59.5969 115.7C58.8485 115.7 58.1093 115.866 57.4321 116.185C56.7549 116.503 56.1563 116.967 55.6789 117.544C55.2014 118.12 54.857 118.795 54.67 119.519C54.483 120.244 54.458 121.001 54.5969 121.737L61.1119 156.237C61.3326 157.402 61.9527 158.453 62.8654 159.21C63.7781 159.967 64.9263 160.382 66.112 160.383H126.432C126.277 160.3 126.117 160.217 125.957 160.113C124.194 159.04 121.912 156.823 121.054 152.352L115.319 119.905C115.111 118.726 114.494 117.658 113.577 116.889C112.66 116.12 111.501 115.699 110.304 115.7H59.5969Z" fill="#4F3CC9"/>
<path d="M92.4671 64.3981L76.1738 70.9481L88.7938 75.9014C88.7938 75.9014 100.136 72.7064 92.4671 64.3981Z" fill="#4F3CC9"/>
<path d="M34 59.1266C34 59.1266 34 111.367 90.5517 74.7833C90.5517 74.7833 76.9733 77.3383 71.0617 46.6666L34 59.1266Z" fill="white"/>
<path d="M56.9833 88.2916C53.04 88.2916 49.5367 87.4582 46.4733 85.7916C41.1533 82.8982 37.2233 77.3599 35.1067 69.7782C34.1335 66.3076 33.5939 62.7298 33.5 59.1266V58.7682L71.445 46.0099L71.5533 46.5716C74.5767 62.2632 79.6267 68.9682 83.3333 71.8332C87.2433 74.8549 90.4317 74.2999 90.4633 74.2932L92.9633 73.8232L90.8267 75.2049C77.3517 83.9166 66.0233 88.2916 56.9833 88.2916ZM34.5 59.4849C34.637 62.8857 35.1643 66.2595 36.0717 69.5399C37.4967 74.6316 40.54 81.4349 46.9483 84.9182C56.445 90.0782 70.53 86.8332 88.8333 75.2832C87.375 75.1166 85.1667 74.5199 82.7117 72.6166C80.2567 70.7132 78.045 67.8932 76.15 64.2249C73.8633 59.7982 72.0233 54.1116 70.675 47.3166L34.5 59.4849Z" fill="#4F3CC9"/>
<path d="M51.8767 83.728L51.5883 82.7713C51.705 82.7363 63.3433 79.2097 73.8933 74.4863L74.3017 75.398C63.6917 80.1497 52 83.693 51.8767 83.728ZM48.5233 79.4147L48.2317 78.458C48.33 78.428 58.2533 75.3713 70.2317 70.328L70.6183 71.2497C58.5917 76.313 48.6233 79.383 48.5233 79.4147ZM44.8483 74.6213L44.5567 73.6663C44.6517 73.638 54.1117 70.7397 66.5667 65.8513L66.9317 66.783C54.4383 71.6847 44.9433 74.593 44.8483 74.6213ZM42.2883 69.3513L42 68.393C42.0967 68.363 51.765 65.503 56.3133 63.463L56.7233 64.3763C52.12 66.443 42.3867 69.323 42.2883 69.3513Z" fill="#4F3CC9"/>
<path d="M137.82 121.017L141.74 118.547L149.576 130.98L145.656 133.451L137.82 121.017Z" fill="#4F3CC9"/>
<path d="M132.025 124.908C141.642 124.908 149.438 117.112 149.438 107.495C149.438 97.8779 141.642 90.0817 132.025 90.0817C122.408 90.0817 114.611 97.8779 114.611 107.495C114.611 117.112 122.408 124.908 132.025 124.908Z" fill="#FF8B6A"/>
<path d="M132.059 125.413C130.713 125.413 129.372 125.262 128.059 124.963C123.623 123.947 119.743 121.271 117.216 117.485C114.69 113.699 113.708 109.09 114.472 104.603C115.235 100.115 117.687 96.0907 121.324 93.354C124.961 90.6172 129.508 89.376 134.031 89.8848C138.554 90.3937 142.711 92.6141 145.649 96.0905C148.587 99.5669 150.084 104.036 149.831 108.58C149.579 113.125 147.598 117.401 144.293 120.531C140.988 123.661 136.611 125.408 132.059 125.413ZM131.998 90.5798C128.249 90.5866 124.608 91.8392 121.649 94.1407C118.689 96.4421 116.579 99.6618 115.649 103.294C114.719 106.925 115.022 110.763 116.511 114.204C118 117.644 120.591 120.493 123.875 122.301C127.159 124.108 130.951 124.773 134.655 124.191C138.358 123.609 141.763 121.812 144.334 119.084C146.905 116.355 148.497 112.85 148.858 109.118C149.22 105.387 148.331 101.641 146.331 98.4698C144.812 96.0437 142.698 94.046 140.19 92.6664C137.682 91.2867 134.863 90.5707 132.001 90.5865L131.998 90.5798Z" fill="#4F3CC9"/>
<path d="M132.024 120.775C139.358 120.775 145.304 114.829 145.304 107.495C145.304 100.161 139.358 94.215 132.024 94.215C124.69 94.215 118.744 100.161 118.744 107.495C118.744 114.829 124.69 120.775 132.024 120.775Z" fill="white"/>
<path d="M132.047 121.27C129.65 121.273 127.294 120.652 125.212 119.466C123.129 118.281 121.391 116.572 120.171 114.51C118.95 112.447 118.289 110.102 118.252 107.706C118.215 105.31 118.803 102.945 119.96 100.846C121.116 98.7468 122.8 96.9856 124.845 95.7363C126.89 94.487 129.226 93.7929 131.622 93.7224C134.017 93.6519 136.39 94.2076 138.505 95.3345C140.62 96.4614 142.404 98.1205 143.682 100.148C144.996 102.231 145.727 104.627 145.8 107.088C145.873 109.55 145.285 111.985 144.097 114.142C142.909 116.299 141.164 118.097 139.045 119.351C136.926 120.605 134.509 121.267 132.047 121.27ZM132 94.7098C129.166 94.7131 126.412 95.6585 124.173 97.3973C121.934 99.1362 120.337 101.57 119.632 104.316C118.927 107.061 119.155 109.964 120.279 112.566C121.404 115.168 123.361 117.323 125.844 118.691C128.326 120.06 131.193 120.564 133.994 120.126C136.795 119.687 139.37 118.33 141.315 116.268C143.26 114.206 144.465 111.556 144.74 108.734C145.015 105.913 144.344 103.08 142.834 100.681C141.943 99.2583 140.778 98.0262 139.407 97.0564C138.037 96.0865 136.487 95.3983 134.849 95.0314C133.914 94.8185 132.959 94.7106 132 94.7098Z" fill="#4F3CC9"/>
<path d="M151.807 131.887C150.598 129.937 148.038 129.337 146.088 130.545C144.139 131.754 143.538 134.314 144.747 136.264L154.092 151.336C155.301 153.285 157.861 153.885 159.81 152.677C161.76 151.468 162.36 148.908 161.152 146.958L151.807 131.887Z" fill="#FF8B6A"/>
<path d="M157.52 152.72C156.733 152.721 155.959 152.524 155.269 152.145C154.579 151.766 153.996 151.218 153.575 150.553L144.122 135.553C143.463 134.508 143.247 133.245 143.519 132.04C143.792 130.835 144.532 129.789 145.577 129.13C146.622 128.471 147.886 128.254 149.09 128.527C150.295 128.8 151.342 129.54 152.001 130.585L161.455 145.585C161.899 146.288 162.146 147.098 162.171 147.929C162.195 148.76 161.997 149.583 161.595 150.311C161.194 151.039 160.605 151.647 159.889 152.07C159.173 152.494 158.357 152.717 157.525 152.718L157.52 152.72ZM148.052 129.411C147.399 129.413 146.759 129.589 146.197 129.922C145.635 130.254 145.173 130.732 144.858 131.304C144.543 131.876 144.387 132.521 144.406 133.174C144.425 133.827 144.619 134.462 144.967 135.015L154.422 150.015C154.678 150.421 155.011 150.772 155.403 151.049C155.795 151.326 156.237 151.524 156.705 151.63C157.173 151.736 157.657 151.749 158.13 151.668C158.603 151.587 159.055 151.413 159.461 151.157C159.867 150.901 160.219 150.568 160.496 150.176C160.773 149.785 160.97 149.342 161.076 148.874C161.182 148.406 161.195 147.922 161.114 147.449C161.033 146.976 160.86 146.524 160.604 146.118L151.149 131.118C150.894 130.711 150.562 130.358 150.17 130.08C149.778 129.803 149.336 129.605 148.867 129.5C148.6 129.44 148.326 129.41 148.052 129.411Z" fill="#4F3CC9"/>
</svg>
