<svg width="48" height="48" viewBox="0 0 48 48" fill="none" xmlns="http://www.w3.org/2000/svg">
<rect width="48" height="48" rx="24" fill="#FF8B6A"/>
<path fill-rule="evenodd" clip-rule="evenodd" d="M23.9993 17.3333C24.4596 17.3333 24.8327 17.7064 24.8327 18.1666V29.8333C24.8327 30.2935 24.4596 30.6666 23.9993 30.6666C23.5391 30.6666 23.166 30.2935 23.166 29.8333V18.1666C23.166 17.7064 23.5391 17.3333 23.9993 17.3333Z" fill="white"/>
<path fill-rule="evenodd" clip-rule="evenodd" d="M17.334 24C17.334 23.5398 17.7071 23.1667 18.1673 23.1667H29.834C30.2942 23.1667 30.6673 23.5398 30.6673 24C30.6673 24.4603 30.2942 24.8334 29.834 24.8334H18.1673C17.7071 24.8334 17.334 24.4603 17.334 24Z" fill="white"/>
</svg>
