<svg width="20" height="20" viewBox="0 0 20 20" fill="none" xmlns="http://www.w3.org/2000/svg">
<path fill-rule="evenodd" clip-rule="evenodd" d="M1.66797 5.8335C1.66797 4.45279 2.78726 3.3335 4.16797 3.3335H15.8347C17.2154 3.3335 18.3347 4.45279 18.3347 5.8335V15.8335C18.3347 17.2142 17.2154 18.3335 15.8347 18.3335H4.16797C2.78726 18.3335 1.66797 17.2142 1.66797 15.8335V5.8335ZM7.5013 10.8335C7.5013 10.3733 7.8744 10.0002 8.33463 10.0002H14.168C14.6282 10.0002 15.0013 10.3733 15.0013 10.8335C15.0013 11.2937 14.6282 11.6668 14.168 11.6668H8.33463C7.8744 11.6668 7.5013 11.2937 7.5013 10.8335ZM5.0013 14.1668C5.0013 13.7066 5.3744 13.3335 5.83464 13.3335H10.8346C11.2949 13.3335 11.668 13.7066 11.668 14.1668C11.668 14.6271 11.2949 15.0002 10.8346 15.0002H5.83464C5.3744 15.0002 5.0013 14.6271 5.0013 14.1668Z" fill="#D9D9D9"/>
<path fill-rule="evenodd" clip-rule="evenodd" d="M5.83333 1.66666C5.3731 1.66666 5 2.03975 5 2.49999V5.83333C5 6.29356 5.3731 6.66666 5.83333 6.66666C6.29357 6.66666 6.66667 6.29356 6.66667 5.83333V2.49999C6.66667 2.03975 6.29357 1.66666 5.83333 1.66666ZM14.1667 1.66666C13.7064 1.66666 13.3333 2.03975 13.3333 2.49999V5.83333C13.3333 6.29356 13.7064 6.66666 14.1667 6.66666C14.6269 6.66666 15 6.29356 15 5.83333V2.49999C15 2.03975 14.6269 1.66666 14.1667 1.66666Z" fill="#FF8B6A"/>
</svg>
