<svg width="30" height="30" viewBox="0 0 30 30" fill="none" xmlns="http://www.w3.org/2000/svg">
<path d="M29.375 8.75H0.625V20.625H29.375V8.75Z" fill="#E6E6E6"/>
<path d="M2.5 25.625H27.5C28.5356 25.625 29.375 24.7856 29.375 23.75V20.625H0.625V23.75C0.625 24.7856 1.46438 25.625 2.5 25.625Z" fill="#E79800"/>
<path d="M27.5 4.375H2.5C1.46438 4.375 0.625 5.21438 0.625 6.25V9.375H29.375V6.25C29.375 5.21438 28.5356 4.375 27.5 4.375Z" fill="#1A1876"/>
<path d="M12.0234 18.0001H13.6541L14.6747 12.0151H13.0434L12.0234 18.0001Z" fill="#1A1876"/>
<path d="M17.9666 14.4181C17.3966 14.1413 17.0472 13.9563 17.0509 13.6763C17.0509 13.4275 17.3466 13.1613 17.9853 13.1613C18.5078 13.1531 18.9291 13.2594 19.3528 13.4594L19.5741 12.1619C19.2509 12.0406 18.7447 11.9106 18.1122 11.9106C16.5003 11.9106 15.3647 12.7225 15.3553 13.8856C15.3459 14.7456 16.1659 15.2256 16.7847 15.5119C17.4197 15.805 17.6334 15.9925 17.6303 16.2544C17.6266 16.6556 17.1234 16.8388 16.6541 16.8388C15.9303 16.8388 15.5653 16.7269 14.9084 16.4294L14.6797 17.7694C15.0609 17.9363 15.7653 18.0813 16.4972 18.0888C18.2122 18.0888 19.3253 17.2863 19.3378 16.0438C19.3422 15.3631 18.9078 14.845 17.9666 14.4181Z" fill="#1A1876"/>
<path d="M23.7562 12.0205H22.4956C22.105 12.0205 21.8131 12.1274 21.6412 12.5168L19.2188 18.0018H20.9319C20.9319 18.0018 21.2119 17.2643 21.2756 17.1024C21.4631 17.1024 23.1269 17.1049 23.365 17.1049C23.4137 17.3143 23.5637 18.0018 23.5637 18.0018H25.0775L23.7562 12.0205ZM21.745 15.8786C21.8125 15.7061 22.4781 13.9968 22.6112 13.6343C22.8319 14.6661 22.6169 13.6649 23.0994 15.8786H21.745Z" fill="#1A1876"/>
<path d="M10.6564 12.0194L9.0589 16.1006L8.8889 15.2712L8.31703 12.5206C8.21828 12.1419 7.93203 12.0287 7.57765 12.0156H4.94641L4.92578 12.14C5.56578 12.295 6.13765 12.5187 6.63953 12.7962L8.09015 17.9944L9.8164 17.9925L12.3845 12.0187H10.6564V12.0194Z" fill="#1A1876"/>
</svg>
