<svg width="20" height="20" viewBox="0 0 20 20" fill="none" xmlns="http://www.w3.org/2000/svg">
<path fill-rule="evenodd" clip-rule="evenodd" d="M5.83366 13.2511V15.8293L10.0522 13.3365L10.4931 13.3293C12.2463 13.3006 13.8242 13.1241 15.004 12.9446C15.7486 12.8313 16.2659 12.3116 16.3783 11.6591C16.5342 10.7541 16.667 9.60744 16.667 8.33334C16.667 7.05924 16.5342 5.91261 16.3783 5.00756C16.2659 4.35507 15.7486 3.83543 15.004 3.72214C13.7136 3.5258 11.9489 3.33334 10.0003 3.33334C8.05171 3.33334 6.28706 3.5258 4.99668 3.72214C4.25211 3.83543 3.73474 4.35507 3.62235 5.00756C3.46646 5.91261 3.33366 7.05924 3.33366 8.33334C3.33366 9.60744 3.46646 10.7541 3.62235 11.6591C3.71995 12.2257 4.11577 12.6799 4.69289 12.8718L5.83366 13.2511ZM1.97987 4.72464C2.2217 3.32073 3.33759 2.28873 4.74597 2.07444C6.09541 1.86912 7.94665 1.66667 10.0003 1.66667C12.054 1.66667 13.9052 1.86912 15.2547 2.07444C16.6631 2.28874 17.779 3.32073 18.0208 4.72464C18.1893 5.7031 18.3337 6.94605 18.3337 8.33334C18.3337 9.72063 18.1893 10.9636 18.0208 11.9421C17.779 13.346 16.6631 14.378 15.2547 14.5923C14.0202 14.7801 12.3657 14.9655 10.5204 14.9958L5.42426 18.0071C4.86875 18.3354 4.16699 17.9349 4.16699 17.2897V14.4533C3.03912 14.0783 2.18746 13.1472 1.97987 11.9421C1.81134 10.9636 1.66699 9.72063 1.66699 8.33334C1.66699 6.94605 1.81134 5.7031 1.97987 4.72464Z" fill="#828FA2"/>
<path fill-rule="evenodd" clip-rule="evenodd" d="M5.83333 5.83333C5.3731 5.83333 5 6.20642 5 6.66666C5 7.1269 5.3731 7.5 5.83333 7.5H14.1667C14.6269 7.5 15 7.1269 15 6.66666C15 6.20642 14.6269 5.83333 14.1667 5.83333H5.83333ZM5.83333 9.16666C5.3731 9.16666 5 9.53976 5 10C5 10.4602 5.3731 10.8333 5.83333 10.8333H9.16667C9.6269 10.8333 10 10.4602 10 10C10 9.53976 9.6269 9.16666 9.16667 9.16666H5.83333Z" fill="#828FA2"/>
</svg>
