<svg width="20" height="20" viewBox="0 0 20 20" fill="none" xmlns="http://www.w3.org/2000/svg">
<path fill-rule="evenodd" clip-rule="evenodd" d="M3.33203 3.33333C3.11102 3.33333 2.89905 3.42112 2.74277 3.5774C2.58649 3.73368 2.4987 3.94565 2.4987 4.16666V15.8334C2.4987 16.0544 2.58649 16.2663 2.74277 16.4226C2.89905 16.5789 3.11102 16.6667 3.33203 16.6667H16.6653C16.8863 16.6667 17.0983 16.5789 17.2546 16.4226C17.4109 16.2663 17.4987 16.0544 17.4987 15.8334V6.66666C17.4987 6.44565 17.4109 6.23368 17.2546 6.0774C17.0983 5.92112 16.8863 5.83333 16.6653 5.83333H9.16536C8.88673 5.83333 8.62654 5.69408 8.47199 5.46224L7.05271 3.33333H3.33203ZM1.56426 2.39889C2.0331 1.93005 2.66899 1.66666 3.33203 1.66666H7.4987C7.77732 1.66666 8.03752 1.80591 8.19207 2.03774L9.61135 4.16666H16.6653C17.3284 4.16666 17.9643 4.43005 18.4331 4.89889C18.9019 5.36773 19.1653 6.00362 19.1653 6.66666V15.8334C19.1653 16.4964 18.9019 17.1323 18.4331 17.6011C17.9643 18.07 17.3284 18.3334 16.6653 18.3334H3.33203C2.66899 18.3334 2.0331 18.07 1.56426 17.6011C1.09542 17.1323 0.832031 16.4964 0.832031 15.8334V4.16666C0.832031 3.50362 1.09542 2.86773 1.56426 2.39889ZM2.74277 3.5774C2.89905 3.42112 3.11102 3.33333 3.33203 3.33333H7.05271L8.47199 5.46224C8.62654 5.69408 8.88673 5.83333 9.16536 5.83333H16.6653C16.8863 5.83333 17.0983 5.92112 17.2546 6.0774C17.4109 6.23368 17.4987 6.44565 17.4987 6.66666V15.8334C17.4987 16.0544 17.4109 16.2663 17.2546 16.4226C17.0983 16.5789 16.8863 16.6667 16.6653 16.6667H3.33203C3.11102 16.6667 2.89905 16.5789 2.74277 16.4226C2.58649 16.2663 2.4987 16.0544 2.4987 15.8334V4.16666C2.4987 3.94565 2.58649 3.73368 2.74277 3.5774Z" fill="#FF8B6A"/>
<path d="M3.33203 3.33333C3.11102 3.33333 2.89905 3.42112 2.74277 3.5774C2.58649 3.73368 2.4987 3.94565 2.4987 4.16666V15.8334C2.4987 16.0544 2.58649 16.2663 2.74277 16.4226C2.89905 16.5789 3.11102 16.6667 3.33203 16.6667H16.6653C16.8863 16.6667 17.0983 16.5789 17.2546 16.4226C17.4109 16.2663 17.4987 16.0544 17.4987 15.8334V6.66666C17.4987 6.44565 17.4109 6.23368 17.2546 6.0774C17.0983 5.92112 16.8863 5.83333 16.6653 5.83333H9.16536C8.88673 5.83333 8.62654 5.69408 8.47199 5.46224L7.05271 3.33333H3.33203ZM1.56426 2.39889C2.0331 1.93005 2.66899 1.66666 3.33203 1.66666H7.4987C7.77732 1.66666 8.03752 1.80591 8.19207 2.03774L9.61135 4.16666H16.6653C17.3284 4.16666 17.9643 4.43005 18.4331 4.89889C18.9019 5.36773 19.1653 6.00362 19.1653 6.66666V15.8334C19.1653 16.4964 18.9019 17.1323 18.4331 17.6011C17.9643 18.07 17.3284 18.3334 16.6653 18.3334H3.33203C2.66899 18.3334 2.0331 18.07 1.56426 17.6011C1.09542 17.1323 0.832031 16.4964 0.832031 15.8334V4.16666C0.832031 3.50362 1.09542 2.86773 1.56426 2.39889ZM2.74277 3.5774C2.89905 3.42112 3.11102 3.33333 3.33203 3.33333H7.05271L8.47199 5.46224C8.62654 5.69408 8.88673 5.83333 9.16536 5.83333H16.6653C16.8863 5.83333 17.0983 5.92112 17.2546 6.0774C17.4109 6.23368 17.4987 6.44565 17.4987 6.66666V15.8334C17.4987 16.0544 17.4109 16.2663 17.2546 16.4226C17.0983 16.5789 16.8863 16.6667 16.6653 16.6667H3.33203C3.11102 16.6667 2.89905 16.5789 2.74277 16.4226C2.58649 16.2663 2.4987 16.0544 2.4987 15.8334V4.16666C2.4987 3.94565 2.58649 3.73368 2.74277 3.5774Z" fill="#FF8B6A"/>
</svg>
