<svg width="32" height="32" viewBox="0 0 32 32" fill="none" xmlns="http://www.w3.org/2000/svg">
<path fill-rule="evenodd" clip-rule="evenodd" d="M24.9426 7.0572C25.4633 7.5779 25.4633 8.42211 24.9426 8.94281L8.94264 24.9428C8.42194 25.4635 7.57773 25.4635 7.05703 24.9428C6.53633 24.4221 6.53633 23.5779 7.05703 23.0572L23.057 7.0572C23.5777 6.5365 24.4219 6.5365 24.9426 7.0572Z" fill="#2D2D2D"/>
<path fill-rule="evenodd" clip-rule="evenodd" d="M7.05703 7.0572C7.57773 6.5365 8.42194 6.5365 8.94264 7.0572L24.9426 23.0572C25.4633 23.5779 25.4633 24.4221 24.9426 24.9428C24.4219 25.4635 23.5777 25.4635 23.057 24.9428L7.05703 8.94281C6.53633 8.42211 6.53633 7.5779 7.05703 7.0572Z" fill="#2D2D2D"/>
</svg>
