<svg width="32" height="32" viewBox="0 0 32 32" fill="none" xmlns="http://www.w3.org/2000/svg">
<path fill-rule="evenodd" clip-rule="evenodd" d="M15.9998 9.33334C16.4601 9.33334 16.8332 9.70644 16.8332 10.1667V21.8333C16.8332 22.2935 16.4601 22.6666 15.9998 22.6666C15.5396 22.6666 15.1665 22.2935 15.1665 21.8333V10.1667C15.1665 9.70644 15.5396 9.33334 15.9998 9.33334Z" fill="#2D2D2D"/>
<path fill-rule="evenodd" clip-rule="evenodd" d="M9.3335 16C9.3335 15.5398 9.70659 15.1667 10.1668 15.1667H21.8335C22.2937 15.1667 22.6668 15.5398 22.6668 16C22.6668 16.4602 22.2937 16.8333 21.8335 16.8333H10.1668C9.70659 16.8333 9.3335 16.4602 9.3335 16Z" fill="#2D2D2D"/>
<rect x="0.5" y="0.5" width="31" height="31" stroke="#E2E8ED"/>
</svg>
