<svg width="20" height="20" viewBox="0 0 20 20" fill="none" xmlns="http://www.w3.org/2000/svg">
<path fill-rule="evenodd" clip-rule="evenodd" d="M4.16602 9.99998C3.70578 9.99998 3.33269 10.3731 3.33269 10.8333V16.6666C3.33269 17.1269 3.70578 17.5 4.16602 17.5H15.8327C16.2929 17.5 16.666 17.1269 16.666 16.6666V10.8333C16.666 10.3731 16.2929 9.99998 15.8327 9.99998H4.16602ZM1.66602 10.8333C1.66602 9.4526 2.78531 8.33331 4.16602 8.33331H15.8327C17.2134 8.33331 18.3327 9.4526 18.3327 10.8333V16.6666C18.3327 18.0474 17.2134 19.1666 15.8327 19.1666H4.16602C2.78531 19.1666 1.66602 18.0474 1.66602 16.6666V10.8333Z" fill="#2D2D2D"/>
<path fill-rule="evenodd" clip-rule="evenodd" d="M10 2.49998C9.11594 2.49998 8.2681 2.85117 7.64298 3.47629C7.01786 4.10141 6.66667 4.94926 6.66667 5.83331V9.16664C6.66667 9.62688 6.29357 9.99998 5.83333 9.99998C5.3731 9.99998 5 9.62688 5 9.16664V5.83331C5 4.50723 5.52678 3.23546 6.46447 2.29778C7.40215 1.3601 8.67392 0.833313 10 0.833313C11.3261 0.833313 12.5978 1.3601 13.5355 2.29778C14.4732 3.23546 15 4.50723 15 5.83331V9.16664C15 9.62688 14.6269 9.99998 14.1667 9.99998C13.7064 9.99998 13.3333 9.62688 13.3333 9.16664V5.83331C13.3333 4.94926 12.9821 4.10141 12.357 3.47629C11.7319 2.85117 10.884 2.49998 10 2.49998Z" fill="#2D2D2D"/>
</svg>
