<svg width="298" height="298" viewBox="0 0 298 298" fill="none" xmlns="http://www.w3.org/2000/svg">
<path d="M226.816 106.925L224.176 106.348L223.575 103.714C223.565 103.668 223.54 103.628 223.504 103.599C223.468 103.57 223.423 103.555 223.376 103.555C223.33 103.555 223.285 103.571 223.249 103.6C223.212 103.628 223.186 103.668 223.175 103.714L222.574 106.361L219.935 106.987C219.889 106.998 219.849 107.024 219.82 107.061C219.791 107.098 219.775 107.143 219.776 107.19C219.776 107.237 219.792 107.281 219.821 107.317C219.851 107.353 219.892 107.377 219.937 107.386L222.577 107.963L223.175 110.597C223.186 110.642 223.212 110.683 223.249 110.711C223.285 110.74 223.33 110.756 223.376 110.756C223.423 110.756 223.468 110.741 223.504 110.712C223.54 110.683 223.565 110.642 223.575 110.597L224.179 107.95L226.818 107.324C226.865 107.315 226.907 107.29 226.937 107.254C226.967 107.218 226.983 107.172 226.983 107.124C226.983 107.077 226.967 107.031 226.937 106.995C226.907 106.958 226.865 106.934 226.818 106.925H226.816ZM72.8488 145.168L70.2091 144.592L69.6081 141.957C69.5979 141.912 69.5727 141.871 69.5366 141.843C69.5005 141.814 69.4557 141.798 69.4094 141.798C69.363 141.798 69.318 141.814 69.2816 141.843C69.2451 141.872 69.2193 141.912 69.2083 141.957L68.6073 144.604L65.9675 145.23C65.922 145.241 65.8816 145.267 65.8527 145.304C65.8239 145.341 65.8084 145.387 65.8086 145.434C65.8088 145.48 65.825 145.525 65.8544 145.56C65.8838 145.596 65.9246 145.621 65.97 145.63L68.6098 146.206L69.2083 148.841C69.2193 148.886 69.2451 148.926 69.2816 148.955C69.318 148.984 69.363 148.999 69.4094 149C69.4557 149 69.5005 148.984 69.5366 148.955C69.5727 148.926 69.5979 148.886 69.6081 148.841L70.2116 146.193L72.8513 145.568C72.8977 145.559 72.9396 145.534 72.9697 145.497C72.9997 145.461 73.0162 145.415 73.0162 145.368C73.0162 145.32 72.9997 145.275 72.9697 145.238C72.9396 145.202 72.8977 145.177 72.8513 145.168H72.8488ZM213.483 96.353L212.117 96.055L211.809 94.6916C211.804 94.6678 211.791 94.6466 211.772 94.6313C211.753 94.616 211.729 94.6077 211.705 94.6077C211.68 94.6077 211.657 94.616 211.638 94.6313C211.619 94.6466 211.606 94.6678 211.601 94.6916L211.29 96.0624L209.924 96.3852C209.901 96.3908 209.88 96.4042 209.865 96.4231C209.85 96.4421 209.842 96.4655 209.842 96.4895C209.842 96.5137 209.851 96.537 209.866 96.5556C209.882 96.5741 209.903 96.5868 209.927 96.5914L211.293 96.8894L211.601 98.2527C211.606 98.2765 211.619 98.2978 211.638 98.313C211.657 98.3283 211.68 98.3366 211.705 98.3366C211.729 98.3366 211.753 98.3283 211.772 98.313C211.791 98.2978 211.804 98.2765 211.809 98.2527L212.12 96.8819L213.485 96.5591C213.509 96.5531 213.529 96.5396 213.544 96.5208C213.559 96.5019 213.567 96.4787 213.567 96.4548C213.567 96.4307 213.559 96.4073 213.543 96.3888C213.528 96.3702 213.507 96.3576 213.483 96.353Z" fill="#4F3CC9"/>
<path d="M71.0215 71.6839L71.1904 67.3877C71.2103 66.8997 71.346 66.4234 71.5863 65.9982C71.8266 65.5729 72.1646 65.211 72.5725 64.9422C72.9803 64.6734 73.4462 64.5054 73.9317 64.4522C74.4173 64.399 74.9085 64.4621 75.3648 64.6362C75.8216 64.8106 76.2302 65.0914 76.5569 65.4553C76.8835 65.8191 77.1186 66.2556 77.2429 66.7284C77.3672 67.2013 77.377 67.697 77.2715 68.1744C77.166 68.6518 76.9483 69.0972 76.6363 69.4737L73.9046 72.7865L71.0215 71.6839ZM69.8518 74.7657L67.1202 78.0785C66.8087 78.4549 66.5914 78.9002 66.4862 79.3773C66.381 79.8544 66.391 80.3497 66.5152 80.8223C66.6395 81.2948 66.8745 81.7309 67.2008 82.0946C67.5271 82.4582 67.9353 82.739 68.3916 82.9135C68.848 83.0882 69.3393 83.1517 69.8251 83.0988C70.3109 83.0458 70.777 82.878 71.185 82.609C71.593 82.3401 71.931 81.9779 72.1712 81.5524C72.4114 81.1269 72.5468 80.6502 72.5661 80.162L72.7375 75.8658L69.8518 74.7657Z" fill="#FF8B6A"/>
<path d="M68.127 72.382L69.468 75.2254C69.7284 75.7764 70.1969 76.2016 70.7705 76.4074C71.3442 76.6132 71.9761 76.5828 72.5274 76.323L75.274 75.0292L73.9355 72.1858C73.675 71.6348 73.2067 71.2095 72.6332 71.0033C72.0596 70.7971 71.4277 70.8267 70.876 71.0857L68.127 72.382Z" fill="#4F3CC9"/>
<path d="M67.2584 74.0952C68.4118 74.0952 69.3469 73.1602 69.3469 72.0068C69.3469 70.8533 68.4118 69.9183 67.2584 69.9183C66.105 69.9183 65.1699 70.8533 65.1699 72.0068C65.1699 73.1602 66.105 74.0952 67.2584 74.0952Z" fill="#4F3CC9"/>
<path d="M64.125 70.0882L65.1123 68.9723L66.5203 70.2179L65.533 71.3338L64.125 70.0882Z" fill="#4F3CC9"/>
<path d="M63.627 72.8304L63.6368 71.3404L65.5167 71.3529L65.5068 72.8429L63.627 72.8304Z" fill="#4F3CC9"/>
<path d="M112.273 165.391L110.815 165.09C110.955 164.417 111.086 163.737 111.213 163.066L112.675 163.337C112.551 164.02 112.415 164.71 112.273 165.391ZM113.296 159.637L111.824 159.431C112.007 158.189 112.164 156.962 112.293 155.768L113.783 155.924C113.644 157.131 113.488 158.383 113.296 159.639V159.637ZM114.086 152.167L112.596 152.077C112.671 150.836 112.713 149.594 112.72 148.395H114.21C114.203 149.629 114.161 150.895 114.086 152.169V152.167ZM112.636 144.717C112.566 143.475 112.457 142.233 112.308 141.061L113.798 140.878C113.949 142.089 114.064 143.361 114.133 144.635L112.636 144.717ZM111.709 137.451C111.461 136.236 111.151 135.047 110.803 133.914L112.226 133.477C112.589 134.652 112.906 135.886 113.17 137.148L111.709 137.451ZM98.0512 130.994C97.6116 130.994 97.1646 130.977 96.7201 130.944L96.8319 129.454C97.2391 129.487 97.6638 129.496 98.0512 129.501C98.8271 129.502 99.6018 129.442 100.368 129.32L100.616 130.79C99.7713 130.924 98.9168 130.99 98.0611 130.986L98.0512 130.994ZM109.539 130.497C109.061 129.389 108.515 128.311 107.905 127.269L109.191 126.524C109.832 127.623 110.405 128.76 110.907 129.929L109.539 130.497ZM92.8759 130.055C91.6331 129.518 90.5209 128.72 89.6153 127.713L90.7278 126.72C91.4915 127.567 92.4293 128.239 93.4769 128.689L92.8759 130.055ZM104.374 129.65L103.748 128.3C104.81 127.812 105.791 127.166 106.658 126.382L107.664 127.482C106.68 128.369 105.566 129.1 104.361 129.65H104.374ZM105.896 124.269C105.153 123.321 104.338 122.431 103.46 121.607L104.478 120.519C105.408 121.395 106.269 122.341 107.056 123.348L105.896 124.269ZM109.951 124.269L108.64 123.561C109.215 122.501 109.713 121.4 110.13 120.268L111.528 120.785C111.082 121.98 110.551 123.141 109.939 124.259L109.951 124.269ZM87.6932 124.192C87.5645 123.746 87.465 123.292 87.3952 122.834C87.3436 122.505 87.3178 122.173 87.3182 121.84C87.3182 121.252 87.4018 120.667 87.5665 120.102L88.997 120.517C88.8743 120.945 88.8124 121.388 88.8132 121.833C88.8132 122.089 88.8331 122.345 88.8728 122.598C88.9311 122.994 89.014 123.386 89.1211 123.772L87.6932 124.192ZM100.639 119.389C99.7385 118.777 98.7702 118.272 97.7532 117.884L97.5222 117.82L97.9146 116.382L98.1803 116.456C99.3382 116.88 100.439 117.446 101.456 118.143L100.639 119.389ZM90.8669 118.053L90.0896 116.784C91.2766 116.096 92.6318 115.752 94.0034 115.791H94.053L94.0406 117.281H94.0034C92.9034 117.238 91.8132 117.502 90.8545 118.043L90.8669 118.053ZM112.564 117.08L111.099 116.804C111.322 115.628 111.438 114.433 111.446 113.236H112.936C112.923 114.523 112.794 115.806 112.551 117.07L112.564 117.08ZM111.148 109.67C110.939 108.488 110.636 107.326 110.242 106.193L111.65 105.696C112.071 106.906 112.394 108.147 112.616 109.409L111.148 109.67ZM108.819 102.868C108.264 101.788 107.648 100.741 106.974 99.7313L108.215 98.9068C108.921 99.9632 109.565 101.059 110.145 102.19L108.819 102.868ZM104.796 96.7811C104.051 95.8623 103.236 94.936 102.372 94.0246L103.452 92.999C104.344 93.9377 105.191 94.8938 105.953 95.8424L104.796 96.7811ZM99.7498 91.4444C98.8732 90.6348 97.937 89.8178 96.9685 89.0182L97.9196 87.8684C98.9129 88.6854 99.864 89.5198 100.76 90.3517L99.7498 91.4444ZM94.0629 86.7261C93.0994 86.0059 92.0763 85.2832 91.0532 84.5779L91.8925 83.3363C92.943 84.054 93.9735 84.7915 94.9545 85.5241L94.0629 86.7261ZM87.9539 82.5515C86.9184 81.9034 85.8481 81.2602 84.7778 80.6419L85.5228 79.3505C86.608 79.9788 87.6932 80.6294 88.7511 81.29L87.9539 82.5515ZM81.532 78.8514C79.5106 77.786 78.2292 77.2099 78.2168 77.2024L78.8277 75.8441C78.8823 75.8689 80.1588 76.445 82.2274 77.5327L81.532 78.8514Z" fill="#4F3CC9"/>
<path d="M186.226 116.814L180.216 114.793L179.622 97.705C186.968 92.1299 182.851 88.1342 182.851 88.1342L182.538 80.3167H153.222C147.759 112.175 161.651 109.123 161.651 109.123L161.298 115.761L153.922 119.057L154.215 131.866H187.244L186.226 116.814Z" fill="white"/>
<path d="M188.041 132.61H153.488L153.167 118.584L160.578 115.272L160.861 109.952C159.855 109.969 158.855 109.785 157.92 109.412C156.986 109.038 156.135 108.482 155.417 107.777C151.052 103.607 150.066 94.3247 152.487 80.187L152.594 79.5687H183.27L183.601 87.8357C184.421 88.8539 184.831 90.1417 184.751 91.4465C184.614 93.6666 183.149 95.8892 180.392 98.0571L180.956 114.248L186.946 116.265L188.041 132.61ZM154.943 131.12H186.447L185.505 117.36L179.481 115.334L178.865 97.3469L179.173 97.1134C181.728 95.1715 183.146 93.1823 183.251 91.362C183.314 90.3792 182.985 89.4113 182.337 88.6701L182.123 88.464L181.825 81.0636H153.85C151.119 97.5704 153.739 104.119 156.445 106.704C158.81 108.959 161.464 108.41 161.489 108.403L162.445 108.194L162.018 116.262L154.68 119.543L154.943 131.12Z" fill="#4F3CC9"/>
<path d="M169.91 82.0297C169.91 82.0297 163.637 86.09 152.937 82.0297L152.418 85.7696C152.418 85.7696 147.699 82.4097 148.966 76.1913C148.966 76.1913 149.602 72.2553 156.202 71.4929C156.202 71.4929 158.994 65.7812 165.088 68.1925C165.088 68.1925 169.657 65.4013 174.1 69.5906C174.1 69.5906 178.033 69.464 178.669 72.6352C178.669 72.6352 185.141 71.8753 186.919 77.8502C186.919 77.8502 187.934 85.4716 182.476 88.7769C182.476 88.7769 178.54 86.2315 176.764 91.5632L174.48 92.1989L173.971 88.6453C173.971 88.6453 170.544 87.6147 169.91 82.0297Z" fill="#4F3CC9"/>
<path d="M154.743 95.4718C153.829 95.4718 152.935 95.2008 152.175 94.6929C151.415 94.1851 150.823 93.4633 150.473 92.6189C150.123 91.7744 150.032 90.8452 150.21 89.9487C150.388 89.0522 150.828 88.2288 151.475 87.5824C152.121 86.9361 152.945 86.4959 153.841 86.3176C154.737 86.1393 155.667 86.2308 156.511 86.5806C157.356 86.9304 158.077 87.5227 158.585 88.2827C159.093 89.0427 159.364 89.9363 159.364 90.8503C159.363 92.0756 158.875 93.2503 158.009 94.1167C157.143 94.9832 155.968 95.4705 154.743 95.4718ZM154.743 87.2222C154.025 87.2222 153.324 87.4349 152.727 87.8336C152.13 88.2323 151.665 88.7989 151.391 89.4619C151.116 90.1248 151.044 90.8543 151.184 91.5581C151.324 92.2619 151.67 92.9084 152.177 93.4158C152.685 93.9232 153.331 94.2688 154.035 94.4087C154.739 94.5487 155.468 94.4769 156.131 94.2023C156.794 93.9277 157.361 93.4626 157.759 92.866C158.158 92.2694 158.371 91.5679 158.371 90.8503C158.37 89.8883 157.988 88.9658 157.307 88.2855C156.627 87.6053 155.705 87.2228 154.743 87.2222ZM164.644 95.4718C163.73 95.4718 162.836 95.2008 162.076 94.6929C161.316 94.1851 160.724 93.4633 160.374 92.6189C160.024 91.7744 159.933 90.8452 160.111 89.9487C160.289 89.0522 160.729 88.2288 161.376 87.5824C162.022 86.9361 162.846 86.4959 163.742 86.3176C164.638 86.1393 165.568 86.2308 166.412 86.5806C167.257 86.9304 167.978 87.5227 168.486 88.2827C168.994 89.0427 169.265 89.9363 169.265 90.8503C169.264 92.0756 168.776 93.2503 167.91 94.1167C167.044 94.9832 165.869 95.4705 164.644 95.4718ZM164.644 87.2222C163.926 87.2222 163.225 87.4349 162.628 87.8336C162.031 88.2323 161.566 88.7989 161.292 89.4619C161.017 90.1248 160.945 90.8543 161.085 91.5581C161.225 92.2619 161.571 92.9084 162.078 93.4158C162.586 93.9232 163.232 94.2688 163.936 94.4087C164.64 94.5487 165.369 94.4769 166.032 94.2023C166.695 93.9277 167.262 93.4626 167.66 92.866C168.059 92.2694 168.272 91.5679 168.272 90.8503C168.271 89.8883 167.889 88.9658 167.208 88.2855C166.528 87.6053 165.606 87.2228 164.644 87.2222Z" fill="#4F3CC9"/>
<path d="M154.806 92.5643C155.437 92.5643 155.949 92.0528 155.949 91.4219C155.949 90.791 155.437 90.2796 154.806 90.2796C154.175 90.2796 153.664 90.791 153.664 91.4219C153.664 92.0528 154.175 92.5643 154.806 92.5643Z" fill="#4F3CC9"/>
<path d="M164.644 92.6287C165.275 92.6287 165.787 92.1173 165.787 91.4864C165.787 90.8555 165.275 90.3441 164.644 90.3441C164.013 90.3441 163.502 90.8555 163.502 91.4864C163.502 92.1173 164.013 92.6287 164.644 92.6287Z" fill="#4F3CC9"/>
<path d="M168.695 89.8558L174.31 89.0317L174.454 90.0145L168.84 90.8386L168.695 89.8558Z" fill="#4F3CC9"/>
<path d="M161.103 98.5155L156.804 98.071L159.472 90.0945L160.415 90.4099L158.14 97.2093L161.205 97.5271L161.103 98.5155ZM158.493 86.7346C158.473 86.7172 156.482 85.1626 152.575 85.6519L152.451 84.6585C156.809 84.1147 159.027 85.8803 159.119 85.9548L158.491 86.7247L158.804 86.3397L158.493 86.7346ZM161.53 86.6079L160.785 85.9623C160.815 85.9275 163.716 82.6296 168.469 85.6146L167.94 86.4565C163.924 83.9359 161.625 86.4987 161.53 86.6079ZM157.818 102.809C157.712 102.706 157.631 102.58 157.581 102.441C157.53 102.303 157.511 102.155 157.525 102.008C157.538 101.861 157.585 101.719 157.66 101.592C157.736 101.465 157.839 101.357 157.962 101.275C158.337 101.019 158.777 100.876 159.231 100.862C160.413 100.828 161.977 101.587 162.707 101.98C162.756 102.006 162.797 102.043 162.828 102.088C162.859 102.133 162.879 102.185 162.885 102.239C162.892 102.294 162.885 102.349 162.866 102.4C162.847 102.451 162.815 102.497 162.774 102.534C161.955 103.254 159.459 104.518 157.818 102.809Z" fill="#4F3CC9"/>
<path d="M156.698 117.71C156.698 117.71 157.691 129.63 171.101 129.133C171.101 129.133 182.152 128.015 185.38 116.592C185.38 116.592 200.146 120.282 212.16 126.699C214.381 127.887 216.333 129.52 217.893 131.496C219.454 133.472 220.59 135.749 221.23 138.185L231.695 173.585L205.123 173.833L202.019 168.245L206.737 231.57H138.445L136.707 179.669L114.854 176.937L127.317 137.949C128.238 135.064 129.763 132.409 131.791 130.161C133.819 127.913 136.304 126.123 139.078 124.911L156.698 117.71Z" fill="#FF8B6A"/>
<path d="M207.54 232.316H137.726L135.988 180.329L113.871 177.558L126.608 137.703C127.562 134.72 129.14 131.973 131.238 129.648C133.337 127.322 135.906 125.471 138.776 124.216L157.352 116.63L157.436 117.64C157.478 118.115 158.566 128.833 171.042 128.383C171.713 128.309 181.651 127.025 184.658 116.381L184.855 115.686L185.557 115.862C185.706 115.899 200.549 119.649 212.507 126.044C214.814 127.283 216.843 128.984 218.466 131.04C220.089 133.096 221.273 135.464 221.943 137.996L232.689 174.33L204.687 174.578L203.015 171.566L207.54 232.316ZM139.166 230.826H205.936L201.024 164.92L205.561 173.088L230.702 172.84L220.52 138.396C219.904 136.057 218.813 133.87 217.315 131.971C215.817 130.072 213.944 128.502 211.814 127.358C201.478 121.837 188.93 118.308 185.89 117.494C184.525 121.916 181.469 125.621 177.387 127.802C175.46 128.863 173.357 129.565 171.179 129.873H171.132C170.851 129.873 170.578 129.888 170.307 129.888C163.572 129.888 160.041 126.727 158.253 124.012C157.209 122.411 156.482 120.625 156.11 118.75L139.365 125.589C136.691 126.759 134.297 128.486 132.343 130.653C130.389 132.821 128.919 135.38 128.031 138.16L115.838 176.316L137.43 179.016L139.166 230.826Z" fill="#4F3CC9"/>
<path d="M95.1113 157.94H188.981V231.446H95.1113V157.94Z" fill="#5564D7"/>
<path d="M189.727 232.192H94.3672V157.196H189.727V232.192ZM95.8572 230.702H188.237V158.686H95.8572V230.702Z" fill="#4F3CC9"/>
<path d="M73.8789 177.683H130.499L153.346 158.065H94.9872L73.8789 177.683Z" fill="white"/>
<path d="M130.775 178.427H71.9844L94.6945 157.319H155.357L130.775 178.427ZM75.7739 176.937H130.223L151.332 158.809H95.2806L75.7739 176.937Z" fill="#4F3CC9"/>
<path d="M152.973 157.94H188.981V231.446H152.973V157.94Z" fill="#4F3CC9"/>
<path d="M204.254 177.683H165.018L153.098 158.065H189.106L204.254 177.683Z" fill="white"/>
<path d="M205.771 178.427H164.597L151.773 157.319H189.478L205.771 178.427ZM165.437 176.937H202.736L188.733 158.809H154.421L165.437 176.937Z" fill="#4F3CC9"/>
<path d="M95.1098 203.137C95.1098 203.137 88.2781 207.279 88.6009 214.808C88.6673 216.342 89.1704 217.825 90.0512 219.082C91.7573 221.513 95.6213 225.315 103.305 225.983C103.305 225.983 106.781 226.48 105.788 223.997C105.788 223.997 108.271 222.755 107.278 220.52C107.278 220.52 109.513 218.533 108.271 216.795C108.271 216.795 110.01 214.312 108.52 213.318C107.03 212.325 100.325 211.083 100.325 211.083C100.325 211.083 105.291 210.09 104.546 207.855C103.801 205.62 95.1098 205.95 95.1098 205.95V203.137Z" fill="white"/>
<path d="M103.984 226.773C103.729 226.774 103.474 226.757 103.222 226.723C95.1558 226.015 91.1279 221.898 89.4442 219.504C88.4797 218.132 87.9297 216.511 87.8598 214.835C87.5196 206.958 94.4307 202.667 94.7262 202.498L95.8561 201.813V205.185C98.5879 205.135 104.483 205.307 105.256 207.619C105.354 207.904 105.389 208.208 105.358 208.508C105.326 208.808 105.23 209.098 105.074 209.357C104.692 210.018 103.959 210.524 103.187 210.902C105.293 211.368 107.975 212.054 108.933 212.692C109.166 212.844 109.366 213.042 109.52 213.274C109.673 213.506 109.778 213.767 109.827 214.04C110.021 215.069 109.49 216.203 109.142 216.804C109.83 218.267 108.953 219.817 108.149 220.708C108.628 222.387 107.605 223.658 106.674 224.326C106.74 224.596 106.746 224.877 106.69 225.149C106.634 225.421 106.518 225.677 106.351 225.898C105.775 226.628 104.727 226.773 103.984 226.773ZM94.3661 204.609C92.5285 206.119 89.1263 209.633 89.3473 214.771C89.4065 216.162 89.8623 217.507 90.661 218.647C92.1982 220.83 95.8909 224.59 103.371 225.24H103.41C104.073 225.332 104.963 225.24 105.174 224.977C105.261 224.868 105.231 224.602 105.097 224.267L104.848 223.631L105.462 223.326C105.648 223.229 107.279 222.332 106.604 220.818L106.383 220.321L106.79 219.961C106.805 219.946 108.506 218.394 107.672 217.229L107.361 216.795L107.662 216.362C107.992 215.886 108.476 214.907 108.362 214.314C108.351 214.236 108.323 214.162 108.28 214.096C108.237 214.031 108.18 213.975 108.114 213.934C107.121 213.271 102.73 212.28 100.195 211.81L96.3925 211.105L100.185 210.348C101.322 210.119 103.309 209.444 103.793 208.609C103.842 208.532 103.872 208.445 103.881 208.354C103.89 208.263 103.878 208.171 103.845 208.085C103.512 207.08 98.9902 206.543 95.1534 206.69L94.381 206.72L94.3661 204.609Z" fill="#4F3CC9"/>
<path d="M230.804 173.407L205.868 173.655L208.796 181.917L170.928 221.002C170.928 221.002 162.236 215.206 157.081 214.794C156.825 214.774 156.568 214.808 156.325 214.891C156.082 214.975 155.859 215.107 155.669 215.28C155.479 215.453 155.327 215.663 155.221 215.897C155.116 216.131 155.059 216.385 155.055 216.641C155.037 218.022 155.678 220.044 158.712 222.067C158.712 222.067 153.994 225.683 150.644 227.531C150.049 227.849 149.573 228.351 149.287 228.962C149.001 229.573 148.92 230.26 149.057 230.921C149.373 232.289 150.629 233.652 154.401 233.622C154.401 233.622 154.401 237.514 159.43 236.436C159.43 236.436 160.868 240.029 165.179 238.231C165.179 238.231 166.383 240.623 172.006 237.156L229.264 197.45C231.214 196.098 232.7 194.179 233.522 191.954C234.343 189.728 234.46 187.303 233.856 185.009L230.804 173.407Z" fill="white"/>
<path d="M167.021 239.793C166.672 239.796 166.324 239.751 165.988 239.659C165.612 239.557 165.263 239.374 164.965 239.123C163.559 239.62 162.285 239.62 161.168 239.148C160.279 238.762 159.533 238.109 159.032 237.28C157.336 237.549 155.992 237.28 155.031 236.513C154.374 235.964 153.923 235.208 153.75 234.37C149.881 234.228 148.662 232.537 148.331 231.099C148.159 230.281 148.256 229.43 148.608 228.671C148.96 227.913 149.547 227.289 150.283 226.893C152.724 225.542 155.968 223.195 157.453 222.092C154.848 220.066 154.291 218.039 154.309 216.644C154.314 216.285 154.393 215.931 154.54 215.604C154.687 215.277 154.9 214.984 155.165 214.742C155.43 214.5 155.742 214.316 156.081 214.199C156.42 214.082 156.78 214.036 157.137 214.064C161.746 214.421 168.834 218.782 170.818 220.044L207.939 181.731L204.817 172.92L231.374 172.657L234.575 184.825C235.213 187.268 235.087 189.847 234.213 192.216C233.339 194.585 231.76 196.628 229.688 198.071L172.412 237.804H172.395C170.247 239.128 168.444 239.793 167.021 239.793ZM165.839 237.904C166.147 238.343 167.736 238.924 171.595 236.548L228.838 196.839C230.659 195.571 232.047 193.775 232.815 191.693C233.583 189.611 233.695 187.344 233.135 185.197L230.229 174.156L206.918 174.39L209.65 182.103L171.029 221.966L170.512 221.62C170.428 221.566 161.923 215.931 157.023 215.549C156.868 215.536 156.712 215.556 156.565 215.607C156.418 215.658 156.283 215.739 156.169 215.844C156.054 215.947 155.962 216.073 155.898 216.214C155.834 216.354 155.8 216.507 155.799 216.661C155.776 218.335 156.926 219.994 159.126 221.459L159.993 222.038L159.164 222.671C158.97 222.82 154.353 226.344 151.003 228.196C150.55 228.436 150.186 228.815 149.966 229.279C149.746 229.742 149.682 230.264 149.784 230.767C150.112 232.197 151.666 232.912 154.396 232.89H155.141V233.635C155.157 233.966 155.239 234.29 155.382 234.588C155.525 234.887 155.727 235.154 155.975 235.373C156.673 235.929 157.78 236.049 159.27 235.731L159.884 235.599L160.117 236.183C160.453 236.898 161.035 237.469 161.756 237.792C162.62 238.149 163.673 238.073 164.888 237.568L165.588 237.275L165.839 237.904Z" fill="#4F3CC9"/>
<path d="M161.234 152.158L167.193 139.245L168.546 139.869L162.587 152.783L161.234 152.158Z" fill="#4F3CC9"/>
<path d="M148.254 133.106H149.744V152.475H148.254V133.106Z" fill="#4F3CC9"/>
<path d="M130.182 139.815L131.573 139.282L136.044 150.953L134.653 151.486L130.182 139.815Z" fill="#4F3CC9"/>
</svg>
