<svg width="20" height="20" viewBox="0 0 20 20" fill="none" xmlns="http://www.w3.org/2000/svg">
<path fill-rule="evenodd" clip-rule="evenodd" d="M8.92194 3.08861C9.24738 2.76317 9.24738 2.23553 8.92194 1.91009C8.59651 1.58466 8.06887 1.58466 7.74343 1.91009L4.65417 4.99935H4.16602C2.78531 4.99935 1.66602 6.11864 1.66602 7.49935C1.66602 8.3319 2.07298 9.0694 2.69884 9.52377L3.70266 15.5467C3.97054 17.154 5.36117 18.332 6.99064 18.332H13.0098C14.6393 18.332 16.0299 17.154 16.2978 15.5467L17.3018 9.52236C17.9266 9.06788 18.3327 8.33104 18.3327 7.49935C18.3327 6.11864 17.2134 4.99935 15.8327 4.99935H15.3445L12.2553 1.91009C11.9298 1.58466 11.4022 1.58466 11.0768 1.91009C10.7513 2.23553 10.7513 2.76317 11.0768 3.08861L12.9875 4.99935H7.01119L8.92194 3.08861ZM15.8659 8.33203C16.3107 8.31462 16.666 7.94848 16.666 7.49935C16.666 7.03911 16.2929 6.66602 15.8327 6.66602H4.16602C3.70578 6.66602 3.33269 7.03911 3.33269 7.49935C3.33269 7.94848 3.68799 8.31462 4.13286 8.33203H15.8659ZM7.50024 12.4987C7.50024 12.0385 7.87334 11.6654 8.33358 11.6654C8.79381 11.6654 9.16691 12.0385 9.16691 12.4987V14.1654C9.16691 14.6256 8.79381 14.9987 8.33358 14.9987C7.87334 14.9987 7.50024 14.6256 7.50024 14.1654V12.4987ZM10.8336 12.4987C10.8336 12.0385 11.2067 11.6654 11.6669 11.6654C12.1271 11.6654 12.5002 12.0385 12.5002 12.4987V14.1654C12.5002 14.6256 12.1271 14.9987 11.6669 14.9987C11.2067 14.9987 10.8336 14.6256 10.8336 14.1654V12.4987Z" fill="#D9D9D9"/>
</svg>
