<svg width="28" height="28" viewBox="0 0 28 28" fill="none" xmlns="http://www.w3.org/2000/svg">
<rect x="1.16797" y="4.66602" width="25.666" height="18.667" rx="2" stroke="#36414F" stroke-width="1.5"/>
<path d="M12.568 8.16602C12.0709 8.16602 11.668 8.56896 11.668 9.06602C11.668 9.56307 12.0709 9.96602 12.568 9.96602V8.16602ZM24.2347 9.96602C24.7317 9.96602 25.1347 9.56307 25.1347 9.06602C25.1347 8.56896 24.7317 8.16602 24.2347 8.16602V9.96602ZM12.568 9.96602L24.2347 9.96602V8.16602L12.568 8.16602V9.96602Z" fill="#36414F"/>
<path d="M13.7359 11.082C13.2389 11.082 12.8359 11.485 12.8359 11.982C12.8359 12.4791 13.2389 12.882 13.7359 12.882V11.082ZM23.0693 12.882C23.5663 12.882 23.9692 12.4791 23.9692 11.982C23.9692 11.485 23.5663 11.082 23.0693 11.082V12.882ZM13.7359 12.882H23.0693V11.082H13.7359V12.882Z" fill="#36414F"/>
<path fill-rule="evenodd" clip-rule="evenodd" d="M5.28962 14.1935C5.28962 13.2485 6.05571 12.4824 7.00073 12.4824C7.94575 12.4824 8.71184 13.2485 8.71184 14.1935C8.71184 15.1386 7.94575 15.9046 7.00073 15.9046C6.05571 15.9046 5.28962 15.1386 5.28962 14.1935ZM3.58347 18.4666C4.09209 17.2224 5.45038 16.3713 7.00073 16.3713C8.55107 16.3713 9.90934 17.2223 10.418 18.4666C10.5322 18.7461 10.4142 19.0315 10.1988 19.186C9.32755 19.8108 8.2116 20.1824 7.0007 20.1824C5.78983 20.1824 4.6739 19.8108 3.80268 19.1861C3.58722 19.0316 3.46922 18.7461 3.58347 18.4666Z" fill="#36414F"/>
</svg>
