<svg width="20" height="17" viewBox="0 0 20 17" fill="none" xmlns="http://www.w3.org/2000/svg">
<path fill-rule="evenodd" clip-rule="evenodd" d="M11.6907 0.415991C12.3534 0.141355 13.0639 0 13.7813 0C14.4988 0 15.2093 0.141356 15.872 0.415991C16.5347 0.690577 17.1369 1.09301 17.6439 1.60032C18.1512 2.10746 18.5539 2.70985 18.8286 3.37253C19.1032 4.03534 19.2445 4.74577 19.2445 5.46323C19.2445 6.18068 19.1032 6.89111 18.8286 7.55391C18.5539 8.21666 18.1515 8.81882 17.6441 9.32599C17.644 9.32604 17.6441 9.32594 17.6441 9.32599L10.2162 16.7539C9.88807 17.082 9.35605 17.082 9.02791 16.7539L1.60001 9.32599C0.57554 8.30152 0 6.91204 0 5.46323C0 4.0144 0.57554 2.62493 1.60001 1.60046C2.62447 0.57599 4.01396 0.000449348 5.46277 0.000449348C6.91159 0.000449348 8.30107 0.57599 9.32553 1.60046L9.62206 1.89698L9.91844 1.60059C9.9184 1.60064 9.91849 1.60055 9.91844 1.60059C10.4256 1.09323 11.0279 0.690603 11.6907 0.415991ZM13.7813 1.68052C13.2846 1.68052 12.7929 1.77838 12.334 1.96852C11.8751 2.15864 11.4582 2.43732 11.1071 2.78863L10.2162 3.67944C9.88807 4.00759 9.35605 4.00759 9.02791 3.67944L8.13723 2.78877C7.42792 2.07945 6.46589 1.68097 5.46277 1.68097C4.45965 1.68097 3.49762 2.07945 2.78832 2.78877C2.07901 3.49808 1.68052 4.46011 1.68052 5.46323C1.68052 6.46633 2.07901 7.42837 2.78832 8.13768L9.62206 14.9714L16.4559 8.13768C16.8071 7.78655 17.0859 7.36949 17.276 6.91063C17.4662 6.45175 17.5641 5.95992 17.5641 5.46323C17.5641 4.96652 17.4662 4.47469 17.276 4.01582C17.0859 3.55695 16.8072 3.14004 16.456 2.78891C16.1048 2.4376 15.6876 2.15864 15.2287 1.96852C14.7699 1.77838 14.278 1.68052 13.7813 1.68052Z" fill="#C0C7D0"/>
</svg>
