<svg width="24" height="24" viewBox="0 0 24 24" fill="none" xmlns="http://www.w3.org/2000/svg">
<path d="M22 13C22 17.9706 17.9706 22 13 22V24C19.0751 24 24 19.0751 24 13H22ZM13 22C8.02944 22 4 17.9706 4 13H2C2 19.0751 6.92487 24 13 24V22ZM4 13C4 8.02944 8.02944 4 13 4V2C6.92487 2 2 6.92487 2 13H4ZM13 4C17.9706 4 22 8.02944 22 13H24C24 6.92487 19.0751 2 13 2V4Z" fill="#828FA2"/>
<path d="M16.7071 10.7071C17.0976 10.3166 17.0976 9.68342 16.7071 9.29289C16.3166 8.90237 15.6834 8.90237 15.2929 9.29289L16.7071 10.7071ZM9.29289 15.2929C8.90237 15.6834 8.90237 16.3166 9.29289 16.7071C9.68342 17.0976 10.3166 17.0976 10.7071 16.7071L9.29289 15.2929ZM15.2929 9.29289L9.29289 15.2929L10.7071 16.7071L16.7071 10.7071L15.2929 9.29289Z" fill="#828FA2"/>
<path d="M10.7071 9.29289C10.3166 8.90237 9.68342 8.90237 9.29289 9.29289C8.90237 9.68342 8.90237 10.3166 9.29289 10.7071L10.7071 9.29289ZM15.2929 16.7071C15.6834 17.0976 16.3166 17.0976 16.7071 16.7071C17.0976 16.3166 17.0976 15.6834 16.7071 15.2929L15.2929 16.7071ZM9.29289 10.7071L15.2929 16.7071L16.7071 15.2929L10.7071 9.29289L9.29289 10.7071Z" fill="#828FA2"/>
</svg>
