<svg width="96" height="40" viewBox="0 0 96 40" fill="none" xmlns="http://www.w3.org/2000/svg">
<rect width="40" height="40" rx="20" fill="#F8F8F8"/>
<path fill-rule="evenodd" clip-rule="evenodd" d="M23.0886 14.4107C23.414 14.7362 23.414 15.2638 23.0886 15.5893L18.6779 20L23.0886 24.4108C23.414 24.7362 23.414 25.2639 23.0886 25.5893C22.7632 25.9147 22.2355 25.9147 21.9101 25.5893L16.9101 20.5893C16.5847 20.2638 16.5847 19.7362 16.9101 19.4108L21.9101 14.4107C22.2355 14.0853 22.7632 14.0853 23.0886 14.4107Z" fill="#2D2D2D"/>
<rect x="56" width="40" height="40" rx="20" fill="#F8F8F8"/>
<path fill-rule="evenodd" clip-rule="evenodd" d="M72.9101 14.4107C73.2355 14.0853 73.7632 14.0853 74.0886 14.4107L79.0886 19.4108C79.414 19.7362 79.414 20.2638 79.0886 20.5893L74.0886 25.5893C73.7632 25.9147 73.2355 25.9147 72.9101 25.5893C72.5847 25.2639 72.5847 24.7362 72.9101 24.4108L77.3208 20L72.9101 15.5893C72.5847 15.2638 72.5847 14.7362 72.9101 14.4107Z" fill="#2D2D2D"/>
</svg>
