<svg width="28" height="28" viewBox="0 0 28 28" fill="none" xmlns="http://www.w3.org/2000/svg">
<path d="M24.1816 21.6998L25.0146 21.3592L24.1816 21.6998ZM23.884 22.6076L23.3595 21.8762L23.884 22.6076ZM5.62192 21.6999L4.78883 21.3594L5.62192 21.6999ZM5.91949 22.6077L5.39501 23.3391L5.91949 22.6077ZM6.45501 22.0405C7.6374 19.1479 10.9203 16.9667 14.9018 16.9667V15.1667C10.3022 15.1667 6.28827 17.6912 4.78883 21.3594L6.45501 22.0405ZM14.9018 16.9667C18.8832 16.9667 22.166 19.1478 23.3485 22.0404L25.0146 21.3592C23.5152 17.6911 19.5012 15.1667 14.9018 15.1667V16.9667ZM23.3595 21.8762C21.0859 23.5067 18.1376 24.5 14.9017 24.5V26.3C18.5038 26.3 21.821 25.1945 24.4085 23.339L23.3595 21.8762ZM14.9017 24.5C11.6658 24.5 8.71756 23.5067 6.44396 21.8763L5.39501 23.3391C7.98252 25.1946 11.2996 26.3 14.9017 26.3V24.5ZM23.3485 22.0404C23.3413 22.0227 23.3359 22.0002 23.3352 21.975C23.3344 21.9502 23.3383 21.9281 23.3442 21.9103C23.3562 21.8739 23.3719 21.8673 23.3595 21.8762L24.4085 23.339C25.0067 22.91 25.3275 22.1245 25.0146 21.3592L23.3485 22.0404ZM4.78883 21.3594C4.47601 22.1246 4.7968 22.9101 5.39501 23.3391L6.44396 21.8763C6.43161 21.8674 6.44731 21.874 6.45933 21.9104C6.46521 21.9282 6.46908 21.9503 6.46833 21.9751C6.46758 22.0003 6.46222 22.0228 6.45501 22.0405L4.78883 21.3594ZM18.0851 8.48333C18.0851 10.2414 16.6598 11.6667 14.9018 11.6667V13.4667C17.6539 13.4667 19.8851 11.2355 19.8851 8.48333H18.0851ZM14.9018 11.6667C13.1436 11.6667 11.7184 10.2414 11.7184 8.48333H9.91842C9.91842 11.2355 12.1495 13.4667 14.9018 13.4667V11.6667ZM11.7184 8.48333C11.7184 6.72523 13.1436 5.3 14.9018 5.3V3.5C12.1495 3.5 9.91842 5.73111 9.91842 8.48333H11.7184ZM14.9018 5.3C16.6598 5.3 18.0851 6.72523 18.0851 8.48333H19.8851C19.8851 5.73111 17.6539 3.5 14.9018 3.5V5.3Z" fill="#828FA2"/>
<path d="M5.15 2.8C5.64706 2.8 6.05 2.39706 6.05 1.9C6.05 1.40294 5.64706 1 5.15 1V2.8ZM1 5.15C1 5.64706 1.40294 6.05 1.9 6.05C2.39706 6.05 2.8 5.64706 2.8 5.15H1ZM5.15 1H3.9V2.8H5.15V1ZM1 3.9V5.15H2.8V3.9H1ZM3.9 1C2.29837 1 1 2.29837 1 3.9H2.8C2.8 3.29249 3.29249 2.8 3.9 2.8V1Z" fill="#828FA2"/>
<path d="M5.15 25.2C5.64706 25.2 6.05 25.6029 6.05 26.1C6.05 26.5971 5.64706 27 5.15 27V25.2ZM1 22.85C1 22.3529 1.40294 21.95 1.9 21.95C2.39706 21.95 2.8 22.3529 2.8 22.85H1ZM5.15 27H3.9V25.2H5.15V27ZM1 24.1V22.85H2.8V24.1H1ZM3.9 27C2.29837 27 1 25.7016 1 24.1H2.8C2.8 24.7075 3.29249 25.2 3.9 25.2V27Z" fill="#828FA2"/>
<path d="M22.85 2.8C22.3529 2.8 21.95 2.39706 21.95 1.9C21.95 1.40294 22.3529 1 22.85 1V2.8ZM27 5.15C27 5.64706 26.5971 6.05 26.1 6.05C25.6029 6.05 25.2 5.64706 25.2 5.15H27ZM22.85 1H24.1V2.8H22.85V1ZM27 3.9V5.15H25.2V3.9H27ZM24.1 1C25.7016 1 27 2.29837 27 3.9H25.2C25.2 3.29249 24.7075 2.8 24.1 2.8V1Z" fill="#828FA2"/>
<path d="M22.85 25.2C22.3529 25.2 21.95 25.6029 21.95 26.1C21.95 26.5971 22.3529 27 22.85 27V25.2ZM27 22.85C27 22.3529 26.5971 21.95 26.1 21.95C25.6029 21.95 25.2 22.3529 25.2 22.85H27ZM22.85 27H24.1V25.2H22.85V27ZM27 24.1V22.85H25.2V24.1H27ZM24.1 27C25.7016 27 27 25.7016 27 24.1H25.2C25.2 24.7075 24.7075 25.2 24.1 25.2V27Z" fill="#828FA2"/>
</svg>
