<svg width="48" height="48" viewBox="0 0 48 48" fill="none" xmlns="http://www.w3.org/2000/svg">
<rect width="48" height="48" rx="4" fill="#F9F4FA"/>
<g clip-path="url(#clip0_1_10733)">
<path fill-rule="evenodd" clip-rule="evenodd" d="M27.0512 17.1445C25.5739 16.4863 23.9234 16.3232 22.3458 16.6796C20.7683 17.0361 19.3482 17.8929 18.2974 19.1223C17.2466 20.3518 16.6214 21.8879 16.515 23.5018C16.4085 25.1156 16.8267 26.7206 17.7069 28.0774C18.5872 29.4341 19.8825 30.47 21.3996 31.0305C22.9166 31.591 24.5743 31.6461 26.1252 31.1875C27.6761 30.7289 29.0373 29.7813 30.0057 28.4859C30.974 27.1906 31.4977 25.6169 31.4987 23.9995V23.2333C31.4987 22.7731 31.8718 22.4 32.332 22.4C32.7922 22.4 33.1653 22.7731 33.1653 23.2333V24C33.1642 25.9768 32.5241 27.9006 31.3406 29.4839C30.157 31.0671 28.4933 32.2253 26.5977 32.7858C24.7022 33.3462 22.6762 33.2789 20.822 32.5939C18.9677 31.9088 17.3846 30.6428 16.3087 28.9845C15.2329 27.3262 14.7218 25.3646 14.8519 23.3921C14.982 21.4197 15.7461 19.5421 17.0305 18.0395C18.3148 16.5368 20.0504 15.4896 21.9785 15.0539C23.9067 14.6183 25.9239 14.8176 27.7295 15.6221C28.1499 15.8094 28.3388 16.3021 28.1515 16.7225C27.9642 17.1429 27.4716 17.3318 27.0512 17.1445Z" fill="#5564D7"/>
<path fill-rule="evenodd" clip-rule="evenodd" d="M32.9197 16.7437C33.2453 17.069 33.2456 17.5966 32.9203 17.9222L24.5869 26.2639C24.4307 26.4203 24.2187 26.5082 23.9976 26.5082C23.7765 26.5083 23.5645 26.4205 23.4081 26.2642L20.9081 23.7642C20.5827 23.4388 20.5827 22.9111 20.9081 22.5857C21.2336 22.2602 21.7612 22.2602 22.0867 22.5857L23.9971 24.4961L31.7412 16.7443C32.0665 16.4187 32.5941 16.4184 32.9197 16.7437Z" fill="#5564D7"/>
</g>
<defs>
<clipPath id="clip0_1_10733">
<rect width="20" height="20" fill="white" transform="translate(14 14)"/>
</clipPath>
</defs>
</svg>
