<svg width="24" height="24" viewBox="0 0 24 24" fill="none" xmlns="http://www.w3.org/2000/svg">
<path fill-rule="evenodd" clip-rule="evenodd" d="M2 5C2 3.34315 3.34315 2 5 2H19C20.6569 2 22 3.34315 22 5V19C22 20.6569 20.6569 22 19 22H5C3.34315 22 2 20.6569 2 19V5Z" fill="#FF8B6A"/>
<path fill-rule="evenodd" clip-rule="evenodd" d="M16.9142 8.29289C17.3047 8.68342 17.3047 9.31658 16.9142 9.7071L10.7071 16.2071C10.3166 16.5976 9.68342 16.5976 9.29289 16.2071L6.29289 13.2071C5.90237 12.8166 5.90237 12.1834 6.29289 11.7929C6.68342 11.4024 7.31658 11.4024 7.70711 11.7929L10 14.0858L15.5 8.29289C15.8905 7.90237 16.5237 7.90237 16.9142 8.29289Z" fill="white"/>
</svg>
