<svg width="18" height="18" viewBox="0 0 18 18" fill="none" xmlns="http://www.w3.org/2000/svg">
<path d="M9.13848 3.68106C10.4072 3.68029 11.6352 4.12178 12.605 4.92729L15.3214 2.38003C14.2786 1.43323 13.0261 0.738785 11.6632 0.351816C10.3004 -0.035154 8.86471 -0.103999 7.47011 0.150743C6.07551 0.405486 4.7604 0.976804 3.62914 1.81936C2.4979 2.66191 1.58166 3.7525 0.953125 5.00459L4.01552 7.32894C4.37267 6.26844 5.05962 5.34546 5.97905 4.69076C6.89849 4.03606 8.00383 3.68281 9.13848 3.68106Z" fill="#E04343"/>
<path d="M3.73817 8.99782C3.73893 8.43044 3.83233 7.86687 4.01479 7.32868L0.952399 5.00433C0.325987 6.2452 0 7.61209 0 8.99782C0 10.3835 0.325987 11.7504 0.952399 12.9913L4.01479 10.667C3.83233 10.1288 3.73893 9.5652 3.73817 8.99782Z" fill="#FFC95F"/>
<path d="M17.9021 7.36237H9.17969V11.0434H14.1224C13.8284 12.0842 13.1547 12.9816 12.2304 13.5636L15.2692 15.8704C17.2109 14.1542 18.3519 11.3636 17.9021 7.36237Z" fill="#5564D7"/>
<path d="M12.2295 13.564C11.2904 14.0932 10.2198 14.3536 9.13848 14.3157C8.00383 14.3139 6.89849 13.9607 5.97905 13.306C5.05962 12.6513 4.37267 11.7283 4.01552 10.6678L0.953125 12.9922C1.70954 14.4937 2.87639 15.7575 4.32243 16.6416C5.76849 17.5258 7.43637 17.995 9.13848 17.9967C11.3782 18.0566 13.5613 17.2991 15.2682 15.8699L12.2295 13.564Z" fill="#FF8B6A"/>
</svg>
