<svg width="20" height="20" viewBox="0 0 20 20" fill="none" xmlns="http://www.w3.org/2000/svg">
<path fill-rule="evenodd" clip-rule="evenodd" d="M1.66699 2.5C1.66699 2.03976 2.04009 1.66666 2.50033 1.66666H8.33366C8.79389 1.66666 9.16699 2.03976 9.16699 2.5V8.33333C9.16699 8.79356 8.79389 9.16666 8.33366 9.16666H2.50033C2.04009 9.16666 1.66699 8.79356 1.66699 8.33333V2.5ZM3.33366 3.33333V7.49999H7.50032V3.33333H3.33366Z" fill="#828FA2"/>
<path fill-rule="evenodd" clip-rule="evenodd" d="M10.833 2.5C10.833 2.03976 11.2061 1.66666 11.6663 1.66666H17.4997C17.9599 1.66666 18.333 2.03976 18.333 2.5V8.33333C18.333 8.79356 17.9599 9.16666 17.4997 9.16666H11.6663C11.2061 9.16666 10.833 8.79356 10.833 8.33333V2.5ZM12.4997 3.33333V7.49999H16.6663V3.33333H12.4997Z" fill="#828FA2"/>
<path fill-rule="evenodd" clip-rule="evenodd" d="M10.833 11.6667C10.833 11.2064 11.2061 10.8333 11.6663 10.8333H17.4997C17.9599 10.8333 18.333 11.2064 18.333 11.6667V17.5C18.333 17.9602 17.9599 18.3333 17.4997 18.3333H11.6663C11.2061 18.3333 10.833 17.9602 10.833 17.5V11.6667ZM12.4997 12.5V16.6667H16.6663V12.5H12.4997Z" fill="#828FA2"/>
<path fill-rule="evenodd" clip-rule="evenodd" d="M1.66699 11.6667C1.66699 11.2064 2.04009 10.8333 2.50033 10.8333H8.33366C8.79389 10.8333 9.16699 11.2064 9.16699 11.6667V17.5C9.16699 17.9602 8.79389 18.3333 8.33366 18.3333H2.50033C2.04009 18.3333 1.66699 17.9602 1.66699 17.5V11.6667ZM3.33366 12.5V16.6667H7.50032V12.5H3.33366Z" fill="#828FA2"/>
</svg>
