<svg width="627" height="484" viewBox="0 0 627 484" fill="none" xmlns="http://www.w3.org/2000/svg">
<path d="M541.147 397.959C541.147 398.748 539.832 399.461 537.175 399.789H530.421C527.766 399.461 526.451 398.748 526.451 397.939C526.451 397.131 527.766 396.437 530.421 396.09H537.175C539.832 396.437 541.147 397.131 541.147 397.959ZM570.535 397.755C570.587 398.145 570.307 398.545 569.633 398.921C568.957 399.306 567.861 399.66 566.566 399.789H559.812C557.156 399.461 555.842 398.748 555.842 397.939C555.842 397.131 557.156 396.437 559.812 396.09H566.566C567.933 396.297 568.817 396.465 569.459 396.727C570.104 396.995 570.48 397.345 570.535 397.755ZM584.516 372.68C585.219 372.68 585.854 374.156 586.146 377.14C586.18 379.544 586.179 382.534 585.43 385.171C584.285 388.246 582.865 389.147 582.292 388.744C581.643 388.315 581.877 386.794 582.266 384.14C582.877 381.916 582.879 379.776 582.851 377.14C583.161 374.156 583.778 372.68 584.516 372.68ZM584.516 339.689C585.219 339.689 585.854 341.165 586.146 344.148V351.729C585.854 354.709 585.219 356.185 584.499 356.185C583.778 356.185 583.161 354.709 582.851 351.729V344.148C583.161 341.165 583.778 339.689 584.516 339.689ZM584.516 306.699C585.219 306.699 585.854 308.174 586.146 311.158V318.739C585.854 321.719 585.219 323.194 584.499 323.194C583.778 323.194 583.161 321.719 582.851 318.739V311.158C583.161 308.174 583.778 306.699 584.516 306.699ZM576.438 276.914C576.753 276.267 578.384 276.277 580.726 278.328C582.496 280.274 583.914 282.631 584.835 285.219C585.628 288.435 585.007 290.129 584.337 290.209C583.588 290.321 582.935 288.962 581.78 286.603C581.03 284.489 579.868 282.562 578.419 280.969C576.914 278.864 576.05 277.664 576.438 276.914ZM547.443 274.353C547.443 273.564 548.757 272.851 551.414 272.524H558.168C560.824 272.851 562.138 273.564 562.138 274.373C562.138 275.182 560.824 275.875 558.168 276.222H551.414C548.757 275.875 547.443 275.182 547.443 274.353ZM518.398 276.717C518.054 276.085 518.875 274.503 521.632 273.256C524.009 272.442 526.629 272.503 528.776 272.524C531.432 272.851 532.747 273.564 532.747 274.373C532.747 275.182 531.432 275.875 528.776 276.222C526.432 276.205 524.48 276.156 522.51 276.82C520.139 277.225 518.78 277.467 518.398 276.717ZM510.016 306.29C509.313 306.29 508.678 304.815 508.386 301.832V294.25C508.494 292.803 508.856 291.533 509.19 290.799C509.532 290.047 509.894 289.739 510.249 289.805C510.604 289.871 510.91 290.296 511.143 291.023C511.384 291.768 511.491 292.715 511.681 294.25V301.832C511.372 304.815 510.754 306.29 510.016 306.29ZM510.016 339.281C509.313 339.281 508.678 337.805 508.386 334.822V327.241C508.678 324.261 509.313 322.785 510.033 322.785C510.754 322.785 511.372 324.261 511.681 327.241V334.822C511.372 337.805 510.754 339.281 510.016 339.281ZM510.016 372.271C509.313 372.271 508.678 370.796 508.386 367.812V360.231C508.678 357.251 509.313 355.776 510.033 355.776C510.754 355.776 511.372 357.251 511.681 360.231V367.812C511.372 370.796 510.754 372.271 510.016 372.271ZM523.626 397.687C523.537 398.417 522.01 399.06 519.172 398.068C516.899 396.953 514.846 395.293 513.17 393.247C511.42 390.561 511.461 388.732 512.062 388.39C512.727 387.986 513.768 388.992 515.593 390.741C516.964 392.416 518.644 393.776 520.501 394.684C522.565 396.055 523.752 396.831 523.626 397.687Z" fill="#BBCAEA"/>
<path d="M327.768 263.136C327.559 263.299 327.288 263.362 326.957 263.388C325.374 268.015 307.844 318.877 286.546 348.899C275.761 364.094 264.021 373.943 252.884 369.721C218.763 356.725 205.642 331.124 205.642 331.124L241.455 284.653C241.455 284.653 247.597 290.941 254.389 297.378C262.249 304.817 270.961 312.424 272.047 310.685C273.77 307.971 301.336 264.755 310.289 251.346C310.289 251.346 310.289 251.346 310.293 251.327C310.104 246.672 309.825 234.786 311.357 233.116C313.309 231.039 316.313 240.686 316.209 243.505C316.104 246.324 340.751 207.59 342.339 223.216C343.926 238.841 330.374 261.188 327.768 263.136Z" fill="#FEC9AC"/>
<path opacity="0.5" d="M285.344 350.559C274.884 364.647 263.419 373.707 252.378 369.577C218.549 356.866 205.29 332.652 205.29 332.652L240.068 289.608C240.068 289.608 246.206 295.6 252.986 301.741C255.285 312.244 258.803 322.379 264.325 331.178C269.6 339.58 276.966 346.634 285.344 350.559Z" fill="#FFAB90"/>
<path d="M56.3166 366.3C57.0132 366.691 57.7099 367.009 58.4064 367.241L56.001 393.605L54.4799 438.389H220.511L214.525 362.537L213.023 351.774C214.21 352.678 216.125 353.191 218.454 352.898C218.552 352.886 218.65 352.874 218.748 352.861C218.901 352.837 219.064 352.8 219.227 352.776C219.423 352.739 219.63 352.69 219.836 352.642C219.88 352.629 219.924 352.617 219.967 352.605C220.218 352.544 220.468 352.471 220.718 352.385C221.164 352.238 221.621 352.067 222.09 351.86C222.155 351.835 222.231 351.811 222.307 351.774C222.568 351.652 222.83 351.518 223.102 351.383C223.243 351.31 223.385 351.237 223.526 351.151C223.668 351.078 223.798 350.992 223.951 350.907C224.103 350.821 224.245 350.736 224.397 350.638C224.669 350.467 224.952 350.272 225.235 350.076C225.54 349.868 225.855 349.636 226.16 349.392C226.432 349.172 226.704 348.94 226.987 348.708C227.129 348.586 227.27 348.463 227.423 348.317C227.575 348.182 227.727 348.048 227.869 347.901C229.197 346.655 230.546 345.116 231.874 343.271C232.026 343.063 232.168 342.856 232.32 342.636C232.462 342.428 232.614 342.208 232.756 341.988C236.01 337.114 239.123 330.297 241.659 320.951C241.8 320.426 241.942 319.888 242.083 319.351C242.78 316.638 243.433 313.718 244.02 310.591C244.14 309.968 244.26 309.332 244.369 308.685C244.488 308.05 244.597 307.39 244.706 306.73C245.033 304.751 245.337 302.686 245.62 300.536C245.707 299.84 245.805 299.131 245.892 298.41C246.001 297.445 246.11 296.468 246.219 295.479C246.437 293.426 246.643 291.3 246.818 289.113C246.818 289.113 242.268 276.677 223.015 256.702C216.037 249.476 204.108 238.309 195.936 232.879C174.614 218.627 150.529 214.924 125.897 219.135C123.22 219.599 120.564 220.149 117.931 220.809C94.8567 226.441 73.6654 239.097 56.469 256.738C50.951 262.407 46.0206 267.831 41.7105 272.84C27.4199 289.407 19.8556 301.282 19.8556 301.282C19.8556 301.282 20.3888 302.845 21.3685 305.508C26.1792 318.618 41.7105 358.274 56.3166 366.3Z" fill="#FF8B6A"/>
<path d="M163.91 222.411C161.714 229.708 153.566 234.724 147.393 236.627C141.537 238.432 135.335 238.584 129.46 236.843C116.227 232.919 115.899 223.719 115.899 223.719C118.134 222.908 119.222 216.508 119.732 209.622C120.378 200.941 120.127 191.492 120.127 191.492H155.271C155.271 191.492 156.302 203.481 157.419 212.714C157.65 214.573 158.228 216.357 159.133 217.903C159.933 219.297 160.982 220.519 162.254 221.438C163.207 222.13 163.91 222.411 163.91 222.411Z" fill="#FEC9AC"/>
<path opacity="0.5" d="M159.136 217.903C147.126 222.778 132.949 221.189 122.779 212.54C121.709 211.633 120.698 210.66 119.735 209.622C120.38 200.941 120.13 191.492 120.13 191.492H155.274C155.274 191.492 156.304 203.481 157.422 212.714C157.653 214.573 158.231 216.357 159.136 217.903Z" fill="#FFAB90"/>
<path d="M167.064 178.168C166.118 185.723 164.751 193.691 160.155 199.309C156.075 204.291 149.934 206.663 143.908 206.982C140.638 207.159 137.325 206.781 134.233 205.565C127.966 203.11 123.118 197.515 118.764 191.908C117.148 189.838 115.556 187.726 114.055 185.54C112.501 183.277 110.56 181.415 108.477 179.773C108.468 179.766 108.458 179.758 108.448 179.75C106.787 178.44 105.43 176.693 104.147 174.946C103.117 173.553 102.076 172.078 101.813 170.319C101.571 168.725 102.013 167.061 102.833 165.751C103.338 164.972 103.947 164.299 104.641 163.732C103.295 155.564 104.074 146.924 106.966 139.263C110.814 129.064 118.354 120.695 127.493 116.505L161.533 110.508C161.68 116.221 163.857 121.569 165.403 126.999C170.093 143.382 169.188 161.112 167.064 178.168Z" fill="#FEC9AC"/>
<path d="M180.832 128.762C179.468 132.317 177.755 135.785 175.219 138.415C172.683 141.045 169.22 142.736 165.795 142.245C162.95 141.825 160.453 139.99 157.814 138.69C156.063 137.808 153.694 138.083 151.57 138.849C149.252 139.716 146.819 140.15 144.386 139.903L142.249 139.702C142.571 137.967 144.759 137.895 145.982 136.768C137.357 135.742 128.435 141.782 125.217 150.828C124.045 154.152 120.441 166.059 120.441 166.059C120.441 166.059 116.874 163.343 115.317 162.663C113.244 161.768 110.888 161.117 108.687 161.739C106.962 162.216 105.365 163.603 104.876 165.525C104.052 161.637 102.317 158.495 100.834 155.121C98.6078 150.057 97.8468 144.296 98.3103 138.676C98.7576 133.116 100.267 127.46 101.683 122.201C103.022 117.274 104.4 112.274 106.923 107.968C110.45 101.956 116.038 97.6929 122.088 95.2798C128.126 92.8666 134.628 92.1878 141.039 92.2598C145.158 92.3176 149.304 92.6789 153.243 94.052C157.17 95.4244 160.878 97.8954 163.388 101.566C165.376 104.494 166.497 107.934 168.203 111.06C170.7 115.641 174.46 119.355 178.824 121.551C179.596 121.942 180.42 122.303 180.974 123.04C182.132 124.571 181.553 126.913 180.832 128.762Z" fill="#2E363A"/>
<path opacity="0.5" d="M113.811 176.926C113.889 177.793 113.271 178.661 112.511 178.762C112.138 178.819 111.777 178.718 111.43 178.559C110.219 178.025 109.293 176.897 108.494 175.742C107.04 173.646 105.752 171.219 105.701 168.559C105.688 167.721 105.817 166.826 106.319 166.204C107.027 165.323 108.276 165.265 109.305 165.583C111.378 166.204 113.09 168.126 113.67 170.438L113.811 176.926Z" fill="#FFAB90"/>
<path d="M162.691 122.173C160.129 123.965 156.808 123.343 153.885 122.491C149.328 121.161 144.706 119.384 140.033 120.048C135.398 120.684 131.111 123.878 128.755 128.387C128.176 129.513 127.7 130.713 127.004 131.754C125.305 134.283 122.434 135.525 119.628 135.757C116.808 135.987 114.015 135.323 111.26 134.658C108.556 134.022 105.866 133.372 103.175 132.722C101.875 132.404 100.6 132.1 99.2741 132.028C99.9306 128.719 100.806 125.453 101.681 122.201C103.02 117.274 104.398 112.274 106.921 107.968C110.449 101.956 116.036 97.6929 122.087 95.2798C128.125 92.8666 134.626 92.1878 141.037 92.2598C145.157 92.3176 149.302 92.6789 153.242 94.052C157.168 95.4244 160.876 97.8954 163.386 101.566C164.171 102.722 164.828 103.979 165.446 105.265C165.678 107.404 166.064 109.557 166.206 111.71C166.476 115.626 165.665 120.106 162.691 122.173Z" fill="#3A4146"/>
<path d="M131.182 156.972C131.046 156.882 131.025 156.543 131.24 155.981C131.46 155.43 131.93 154.645 132.831 153.918C134.402 152.786 136.427 152.428 138.233 152.965C139.287 153.346 139.949 153.931 140.308 154.38C140.666 154.841 140.737 155.172 140.629 155.309C140.385 155.633 139.567 154.998 137.855 154.645C136.428 154.227 134.894 154.498 133.649 155.387C132.115 156.313 131.511 157.201 131.182 156.972ZM153.249 152.001C153.041 151.777 153.501 150.618 155.349 149.511C156.953 148.729 158.727 148.418 160.468 148.613C162.527 149.032 163.28 149.977 163.14 150.271C162.989 150.651 162.068 150.389 160.318 150.337C158.843 150.169 157.32 150.437 155.961 151.103C154.306 151.752 153.502 152.318 153.249 152.001ZM146.051 181.505C146.182 181.372 146.617 181.761 147.43 182.398C147.835 182.701 148.362 183.059 148.982 183.206C149.571 183.35 150.412 183.226 150.846 182.685C151.63 181.891 151.068 179.498 150.873 177.636C150.597 175.686 150.232 173.752 149.785 171.842C148.839 167.308 148.237 165.062 148.581 164.911C148.862 164.779 150.025 166.809 151.278 171.401C151.992 174.453 152.468 177.406 152.758 180.397C152.801 180.929 152.828 181.503 152.732 182.125C152.642 182.742 152.386 183.415 151.933 183.915C150.787 185.032 149.505 184.907 148.628 184.586C147.732 184.214 147.196 183.633 146.82 183.171C146.093 182.212 145.932 181.622 146.051 181.505ZM148.506 192.723C148.545 192.889 148.22 193.194 147.458 193.467C146.702 193.728 145.492 193.995 143.877 193.796C141.168 193.334 138.576 191.953 136.663 189.63C135.595 188.187 135.232 186.698 135.278 185.742C135.32 184.773 135.62 184.375 135.765 184.413C136.148 184.464 135.836 186.227 137.815 188.476C139.407 190.42 141.729 191.692 144.103 192.082C146.916 192.66 148.418 192.274 148.506 192.723Z" fill="#4F2D2A"/>
<path d="M158.699 167.31C159.676 167.31 160.467 165.713 160.467 163.742C160.467 161.771 159.676 160.174 158.699 160.174C157.722 160.174 156.931 161.771 156.931 163.742C156.931 165.713 157.722 167.31 158.699 167.31Z" fill="#4F2D2A"/>
<path d="M137.964 169.273C138.941 169.273 139.733 167.676 139.733 165.705C139.733 163.734 138.941 162.136 137.964 162.136C136.988 162.136 136.196 163.734 136.196 165.705C136.196 167.676 136.988 169.273 137.964 169.273Z" fill="#4F2D2A"/>
<path d="M246.813 289.118C241.806 351.216 218.852 356.213 213.019 351.778L214.521 362.542C207.957 345.132 201.384 327.711 194.81 310.302C197.836 316.862 206.989 316.667 211.832 311.67C216.686 306.673 218.265 298.916 219.375 291.647C221.149 280.077 222.357 268.41 223.01 256.706C242.264 276.681 246.813 289.118 246.813 289.118Z" fill="#FF8B6A"/>
<path d="M210.136 326.656C208.025 322.857 205.859 319.082 203.671 315.319C202.256 312.875 200.841 310.432 199.415 308.001C198.599 309.711 197.728 311.385 196.792 313.034C196.618 313.364 196.422 313.706 196.226 314.036C186.518 330.847 171.618 343.87 154.661 350.161C135.712 357.186 114.39 355.745 96.3337 346.215C96.1791 346.134 96.029 346.045 95.875 345.963C86.2559 349.533 78.6064 358.082 70.8252 365.041C66.3069 369.083 61.866 373.238 57.4714 377.455L55.9979 393.605L54.4769 438.39H220.508L214.522 362.537L213.02 351.774C214.207 352.678 216.122 353.191 218.451 352.898C218.549 352.886 218.647 352.874 218.745 352.861C218.897 352.837 219.061 352.8 219.224 352.776C219.42 352.739 219.627 352.69 219.833 352.641C219.877 352.629 219.921 352.617 219.964 352.605C220.214 352.544 220.465 352.471 220.715 352.385C221.161 352.238 221.618 352.067 222.086 351.86C222.152 351.835 222.228 351.811 222.304 351.774C222.565 351.652 222.826 351.517 223.099 351.383C219.093 342.966 214.696 334.756 210.136 326.656Z" fill="#FF8B6A"/>
<path d="M65.5388 353.675C65.3618 353.99 63.9853 353.519 61.5343 351.909C59.1096 350.277 55.5853 347.484 51.6304 342.808C44.7416 334.209 41.8564 327.012 37.2401 314.842C33.15 303.182 31.5774 297.194 32.2406 296.878C32.9037 296.563 35.6298 302.001 40.2729 313.398C44.8582 325.481 47.6073 332.256 54.0802 340.336C57.6099 344.988 60.6798 348.048 62.6985 350.135C64.7382 352.199 65.7463 353.308 65.5388 353.675Z" fill="white"/>
<path d="M158.839 237.34C159.075 237.595 158.451 238.971 156.547 241.138C154.64 243.263 151.371 246.2 146.217 248.454C137.397 251.988 127.368 251.338 118.94 246.815C114.028 244.11 110.866 240.408 109.845 237.342C108.784 234.239 109.488 232.552 109.757 232.615C110.185 232.602 110.26 234.118 111.585 236.323C112.891 238.542 115.698 241.248 120.349 243.473C128.015 247.583 137.126 248.173 145.121 244.966C149.9 243.223 153.164 240.954 155.313 239.426C157.457 237.866 158.56 237.033 158.839 237.34Z" fill="white"/>
<path d="M91.3367 438.389H323.191C324.246 438.389 325.101 437.429 325.101 436.245V429.901C325.101 428.716 324.246 427.756 323.191 427.756H91.3367C90.2816 427.756 89.4263 428.716 89.4263 429.901V436.245C89.4263 437.429 90.2816 438.389 91.3367 438.389Z" fill="#2E363A"/>
<path d="M145.102 427.773H320.034L327.269 396.962L351.201 294.77C352.544 289.057 349.457 284.436 344.367 284.436H187.906C186.391 284.436 184.904 284.821 183.474 285.56C180.072 287.229 177.212 290.726 176.269 294.77L145.102 427.773Z" fill="#4A5258"/>
<path d="M145.102 427.772H320.034L327.269 396.961C322.322 397.923 317.318 398.597 312.286 398.951C280.69 401.101 248.494 388.937 224.448 365.764C203.203 345.288 188.564 316.434 183.474 285.56C180.072 287.229 177.212 290.726 176.269 294.77L145.102 427.772Z" fill="#3A4146"/>
<path d="M173.692 427.78H145.099L145.613 425.63C152.361 424.989 163.798 425.823 173.692 427.78Z" fill="#3A4146"/>
<path d="M263.55 362.066C265.959 353.908 262.945 345.448 256.819 343.169C250.693 340.89 243.775 345.656 241.366 353.814C238.958 361.971 241.971 370.431 248.097 372.71C254.223 374.989 261.142 370.223 263.55 362.066Z" fill="#3A4146"/>
<path d="M261.689 361.374C263.694 354.584 261.185 347.542 256.087 345.646C250.988 343.749 245.229 347.716 243.225 354.505C241.22 361.295 243.729 368.337 248.827 370.233C253.926 372.13 259.684 368.163 261.689 361.374Z" fill="white"/>
<path d="M136.643 434.047C136.654 440.087 105.019 445.382 83.3819 439.802C78.3215 438.484 71.5006 435.178 63.9155 430.405C39.0345 414.744 6.07024 383.509 1.04306 356.588C0.301256 352.536 -0.0309873 348.72 0.00226478 345.165C0.201635 317.722 20.7863 304.348 20.7863 304.348C20.908 304.559 21.0298 304.771 21.1739 304.994C21.1739 305.007 21.1849 305.007 21.1849 305.019C21.2403 305.181 21.2956 305.342 21.3621 305.504C25.891 317.821 39.865 353.58 53.6619 364.505C53.374 364.804 53.1083 365.065 52.8758 365.326C52.8093 365.4 52.754 365.487 52.754 365.586C50.5727 371.03 86.6595 412.506 86.6595 412.506C86.6595 412.506 91.0666 415.464 97.0903 413.451C103.136 411.437 114.508 407.51 115.937 413.364C117.343 419.243 91.4321 426.565 101.52 425.471C109.891 424.588 128.471 426.913 134.628 431.188C135.89 432.046 136.643 433.015 136.643 434.047Z" fill="#FEC9AC"/>
<path opacity="0.5" d="M53.6596 364.505C53.3717 364.804 53.106 365.065 52.8735 365.326C52.807 365.4 52.7517 365.487 52.7517 365.586C43.1404 356.712 31.691 350.361 19.5549 347.303C13.1438 345.675 6.57729 344.979 0 345.165C0.19937 317.722 20.784 304.348 20.784 304.348C20.9058 304.559 21.0276 304.771 21.1717 304.994C21.1717 305.007 21.1826 305.007 21.1826 305.019C21.238 305.181 21.2933 305.342 21.3598 305.504C25.8887 317.821 39.8628 353.58 53.6596 364.505Z" fill="#FFAB90"/>
<path d="M136.81 434.052C136.831 440.093 105.197 445.395 83.541 439.807C78.4993 438.493 71.6705 435.175 64.0758 430.399C48.7804 420.775 30.4001 405.231 17.3595 388.443H66.9692C76.3081 400.407 86.8172 412.513 86.8172 412.513C86.8172 412.513 91.242 415.475 97.2626 413.445C99.4751 412.705 102.389 411.725 105.283 411.033L102.347 423.593C99.2408 425.073 97.837 425.886 101.687 425.48C101.751 425.48 101.836 425.455 101.921 425.455C106.942 424.979 115.451 425.599 122.812 427.055C127.832 428.058 132.321 429.468 134.788 431.187C136.065 432.047 136.81 433.025 136.81 434.052Z" fill="#FEC9AC"/>
<path d="M627 475.533V476.525C627 480.414 624.187 483.571 620.709 483.571H79.6444C76.1658 483.571 73.3533 480.414 73.3533 476.525V475.533C73.3533 471.644 70.5408 468.487 67.076 468.487H22.3869C18.9222 468.487 16.1095 465.33 16.1095 461.441V459.778C16.1095 455.889 18.9222 452.732 22.3869 452.732H32.9442C36.409 452.732 39.2217 449.575 39.2217 445.686C39.2217 441.781 42.0342 438.624 45.5126 438.624H600.287C603.752 438.624 606.565 441.781 606.565 445.686C606.565 447.638 605.858 449.392 604.73 450.673C603.589 451.939 602.027 452.732 600.287 452.732H596.401C592.937 452.732 590.124 455.889 590.124 459.778V461.441C590.124 465.33 592.937 468.487 596.401 468.487H620.709C624.187 468.487 627 471.644 627 475.533Z" fill="#CE704C"/>
<path d="M620.708 468.487H596.4C594.592 468.487 592.973 467.614 591.827 466.237H17.8126C18.9587 467.614 20.5772 468.487 22.3863 468.487H67.0754C70.5402 468.487 73.3528 471.644 73.3528 475.533V476.524C73.3528 480.414 76.1653 483.571 79.6437 483.571H620.708C624.187 483.571 626.999 480.414 626.999 476.524V475.533C626.999 471.644 624.187 468.487 620.708 468.487Z" fill="#C16244"/>
<path d="M462.934 300.139C462.23 300.139 461.595 300.049 461.304 299.865V299.397C461.595 299.214 462.23 299.123 462.951 299.123C463.672 299.123 464.289 299.214 464.598 299.397V299.865C464.289 300.049 463.672 300.139 462.934 300.139Z" fill="#F3F6FD"/>
<path d="M431.081 240.036V315.281C431.081 318.43 433.356 320.984 436.161 320.984H542.414C545.219 320.984 547.494 318.43 547.494 315.281V240.036H431.081Z" fill="#F6F6FE"/>
<path d="M547.494 240.036V228.836C547.494 225.686 545.219 223.133 542.414 223.133H436.161C433.356 223.133 431.081 225.686 431.081 228.836V240.036H547.494Z" fill="#64D3FF"/>
<path d="M461.966 256.937V263.627C461.966 265.268 460.783 266.595 459.338 266.595H446.811C445.349 266.595 444.167 265.268 444.167 263.627V256.937C444.167 255.315 445.349 253.988 446.811 253.988H459.338C460.783 253.988 461.966 255.315 461.966 256.937ZM486.112 256.937V263.627C486.112 265.268 484.93 266.595 483.485 266.595H470.957C469.496 266.595 468.314 265.268 468.314 263.627V256.937C468.314 255.315 469.496 253.988 470.957 253.988H483.485C484.93 253.988 486.112 255.315 486.112 256.937ZM510.259 256.937V263.627C510.259 265.268 509.077 266.595 507.632 266.595H495.104C493.643 266.595 492.461 265.268 492.461 263.627V256.937C492.461 255.315 493.643 253.988 495.104 253.988H507.632C509.077 253.988 510.259 255.315 510.259 256.937ZM534.406 256.937V263.627C534.406 265.268 533.224 266.595 531.779 266.595H519.251C517.79 266.595 516.607 265.268 516.607 263.627V256.937C516.607 255.315 517.79 253.988 519.251 253.988H531.779C533.224 253.988 534.406 255.315 534.406 256.937Z" fill="#D1DCF8"/>
<path d="M461.966 277.156V283.846C461.966 285.486 460.783 286.813 459.338 286.813H446.811C445.349 286.813 444.167 285.486 444.167 283.846V277.156C444.167 275.533 445.349 274.206 446.811 274.206H459.338C460.783 274.206 461.966 275.533 461.966 277.156ZM486.112 277.156V283.846C486.112 285.486 484.93 286.813 483.485 286.813H470.957C469.496 286.813 468.314 285.486 468.314 283.846V277.156C468.314 275.533 469.496 274.206 470.957 274.206H483.485C484.93 274.206 486.112 275.533 486.112 277.156ZM510.259 277.156V283.846C510.259 285.486 509.077 286.813 507.632 286.813H495.104C493.643 286.813 492.461 285.486 492.461 283.846V277.156C492.461 275.533 493.643 274.206 495.104 274.206H507.632C509.077 274.206 510.259 275.533 510.259 277.156ZM534.406 277.156V283.846C534.406 285.486 533.224 286.813 531.779 286.813H519.251C517.79 286.813 516.607 285.486 516.607 283.846V277.156C516.607 275.533 517.79 274.206 519.251 274.206H531.779C533.224 274.206 534.406 275.533 534.406 277.156Z" fill="#D1DCF8"/>
<path d="M461.966 297.374V304.064C461.966 305.704 460.783 307.031 459.338 307.031H446.811C445.349 307.031 444.167 305.704 444.167 304.064V297.374C444.167 295.752 445.349 294.425 446.811 294.425H459.338C460.783 294.425 461.966 295.752 461.966 297.374ZM486.112 297.374V304.064C486.112 305.704 484.93 307.031 483.485 307.031H470.957C469.496 307.031 468.314 305.704 468.314 304.064V297.374C468.314 295.752 469.496 294.425 470.957 294.425H483.485C484.93 294.425 486.112 295.752 486.112 297.374ZM510.259 297.374V304.064C510.259 305.704 509.077 307.031 507.632 307.031H495.104C493.643 307.031 492.461 305.704 492.461 304.064V297.374C492.461 295.752 493.643 294.425 495.104 294.425H507.632C509.077 294.425 510.259 295.752 510.259 297.374ZM534.406 297.374V304.064C534.406 305.704 533.224 307.031 531.779 307.031H519.251C517.79 307.031 516.607 305.704 516.607 304.064V297.374C516.607 295.752 517.79 294.425 519.251 294.425H531.779C533.224 294.425 534.406 295.752 534.406 297.374Z" fill="#D1DCF8"/>
<path d="M455.468 223.111V231.482C455.468 234.107 457.355 236.244 459.694 236.244C462.034 236.244 463.937 234.107 463.937 231.482V223.111H455.468Z" fill="#42C1F4"/>
<path d="M462.664 217.221V229.626C462.664 232.251 460.76 234.388 458.421 234.388C456.082 234.388 454.194 232.251 454.194 229.626V217.221C454.194 214.595 456.082 212.459 458.421 212.459C459.583 212.459 460.647 213.002 461.422 213.853C462.196 214.722 462.664 215.899 462.664 217.221Z" fill="#E4ECF9"/>
<path d="M515.909 223.111V231.482C515.909 234.107 517.797 236.244 520.136 236.244C522.475 236.244 524.379 234.107 524.379 231.482V223.111H515.909Z" fill="#42C1F4"/>
<path d="M523.106 217.221V229.626C523.106 232.251 521.202 234.388 518.863 234.388C516.523 234.388 514.636 232.251 514.636 229.626V217.221C514.636 214.595 516.523 212.459 518.863 212.459C520.024 212.459 521.089 213.002 521.863 213.853C522.638 214.722 523.106 215.899 523.106 217.221Z" fill="#E4ECF9"/>
<path d="M552.664 113.723C580.641 113.723 603.322 88.2654 603.322 56.8616C603.322 25.4578 580.641 0 552.664 0C524.687 0 502.007 25.4578 502.007 56.8616C502.007 88.2654 524.687 113.723 552.664 113.723Z" fill="#D1DCF8"/>
<path d="M552.664 107.4C577.53 107.4 597.688 84.7732 597.688 56.8615C597.688 28.95 577.53 6.32313 552.664 6.32313C527.798 6.32313 507.64 28.95 507.64 56.8615C507.64 84.7732 527.798 107.4 552.664 107.4Z" fill="#F3F6FD"/>
<path d="M572.354 58.0622H546.621C546.049 58.0622 545.585 57.5422 545.585 56.8996C545.585 56.257 546.049 55.737 546.621 55.737H572.354C572.927 55.737 573.39 56.257 573.39 56.8996C573.39 57.5422 572.927 58.0622 572.354 58.0622Z" fill="#D1DCF8"/>
<path d="M552.65 64.1215C552.365 64.1215 552.132 63.8615 552.132 63.5402V16.1821C552.132 15.8608 552.365 15.6008 552.65 15.6008C552.935 15.6008 553.168 15.8608 553.168 16.1821V63.5402C553.168 63.8615 552.935 64.1215 552.65 64.1215Z" fill="#FE4C40"/>
<path d="M535.971 80.3806C535.856 80.3806 535.738 80.3374 535.643 80.2489C535.421 80.0456 535.388 79.6801 535.57 79.4314L556.176 51.1537C556.356 50.905 556.685 50.8676 556.904 51.0719C557.126 51.2751 557.159 51.6407 556.977 51.8894L536.371 80.1671C536.27 80.3079 536.121 80.3806 535.971 80.3806Z" fill="#D1DCF8"/>
<path d="M552.65 58.8633C553.595 58.8633 554.36 58.0041 554.36 56.9443C554.36 55.8845 553.595 55.0254 552.65 55.0254C551.706 55.0254 550.941 55.8845 550.941 56.9443C550.941 58.0041 551.706 58.8633 552.65 58.8633Z" fill="white"/>
<path d="M597.683 56.8612C597.683 84.7864 577.528 107.41 552.67 107.41C535.001 107.41 519.713 95.9935 512.339 79.3921C520.604 90.576 533.074 97.7142 547.036 97.7142C571.893 97.7142 592.069 75.0671 592.069 47.1651C592.069 39.1202 590.391 31.4936 587.388 24.7276C593.83 33.4702 597.683 44.6541 597.683 56.8612Z" fill="#E4ECF9"/>
<path d="M491.509 217.948C492.215 217.936 492.863 219.4 493.224 222.358C493.288 224.869 493.37 227.383 493.53 229.85C493.419 232.829 493.084 234.053 492.463 234.388C491.752 234.758 490.711 233.108 490.245 230.126C490.077 227.548 489.996 225.006 489.931 222.46C490.169 219.449 490.774 217.961 491.509 217.948ZM491.732 184.95C492.435 184.973 493.047 186.468 493.291 189.453L493.171 197.021C492.833 199.991 492.174 201.46 491.454 201.454C490.733 201.448 490.139 199.965 489.877 196.97L489.997 189.367C490.354 186.382 490.995 184.925 491.732 184.95ZM474.593 172.072C474.593 171.283 475.908 170.57 478.567 170.243H485.325C487.981 170.57 489.296 171.283 489.296 172.092C489.296 172.9 487.981 173.594 485.325 173.941H478.567C475.908 173.594 474.593 172.9 474.593 172.072ZM445.205 172.072C445.205 171.283 446.52 170.57 449.178 170.243H455.933C458.588 170.57 459.902 171.283 459.902 172.092C459.902 172.9 458.588 173.594 455.933 173.941H449.178C446.52 173.594 445.205 172.9 445.205 172.072ZM415.796 172.072C415.796 171.283 417.112 170.57 419.772 170.243H426.531C429.188 170.57 430.503 171.283 430.503 172.092C430.503 172.9 429.188 173.594 426.531 173.941H419.772C417.112 173.594 415.796 172.9 415.796 172.072ZM413.767 141.4C414.47 141.4 415.105 142.875 415.397 145.858V153.44C415.105 156.42 414.47 157.895 413.75 157.895C413.029 157.895 412.411 156.42 412.102 153.44V145.858C412.411 142.875 413.029 141.4 413.767 141.4ZM413.767 108.409C414.47 108.409 415.105 109.885 415.397 112.867V120.449C415.105 123.429 414.47 124.905 413.75 124.905C413.029 124.905 412.411 123.429 412.102 120.449V112.867C412.411 109.885 413.029 108.409 413.767 108.409ZM413.767 75.4191C414.47 75.4191 415.105 76.8944 415.397 79.8771V87.4588C415.105 90.4389 414.47 91.9143 413.75 91.9143C413.029 91.9143 412.411 90.4389 412.102 87.4588V79.8771C412.411 76.8944 413.029 75.4191 413.767 75.4191ZM395.73 62.6356C395.73 61.8462 397.044 61.1334 399.702 60.8066H406.456C409.111 61.1334 410.425 61.8462 410.425 62.655C410.425 63.4645 409.111 64.1578 406.456 64.5041H399.702C397.044 64.1578 395.73 63.4645 395.73 62.6356ZM366.339 62.6356C366.339 61.8462 367.653 61.1334 370.311 60.8066H377.065C379.72 61.1334 381.034 61.8462 381.034 62.655C381.034 63.4645 379.72 64.1578 377.065 64.5041H370.311C367.653 64.1578 366.339 63.4645 366.339 62.6356ZM342.467 62.6356C342.467 61.8462 343.287 61.1334 344.947 60.8066H349.165C350.823 61.1334 351.644 61.8462 351.644 62.655C351.644 63.4645 350.823 64.1578 349.165 64.5041H344.947C343.287 64.1578 342.467 63.4645 342.467 62.6356Z" fill="#BBCAEA"/>
<path d="M310.435 134.436L308.303 123.807L298.691 123.14C297.532 120.666 296.103 118.406 294.456 116.392L297.125 106.006L288.917 100.186L281.702 107.344C279.382 106.536 276.949 106.054 274.461 105.94L269.805 96.4778L260.329 98.8727L259.741 109.66C257.537 110.961 255.523 112.566 253.73 114.414L244.477 111.418L239.284 120.625L245.661 128.725C244.942 131.336 244.513 134.066 244.411 136.859L235.982 142.086L238.114 152.715L247.726 153.382C248.885 155.856 250.314 158.116 251.96 160.123L249.291 170.509L257.5 176.336L264.715 169.178C267.042 169.985 269.474 170.466 271.962 170.581L276.612 180.044L286.088 177.649L286.682 166.86C288.886 165.56 290.9 163.955 292.687 162.108L301.94 165.104L307.132 155.889L300.754 147.79C301.475 145.186 301.904 142.456 302.006 139.663L310.435 134.436ZM277.784 161.069C266.593 163.898 255.477 156.007 252.957 143.445C250.437 130.883 257.467 118.406 268.658 115.577C279.849 112.749 290.965 120.639 293.485 133.201C296.005 145.763 288.975 158.24 277.784 161.069Z" fill="#E2E8ED"/>
<path d="M273.221 155.613C281.728 155.613 288.624 147.872 288.624 138.323C288.624 128.774 281.728 121.033 273.221 121.033C264.714 121.033 257.818 128.774 257.818 138.323C257.818 147.872 264.714 155.613 273.221 155.613Z" fill="#E2E8ED"/>
<path d="M386.99 50.5007L382.477 35.9477L368.874 36.7383C366.893 33.4697 364.561 30.5509 361.96 28.0175L364.228 12.9422L351.863 6.23902L342.745 17.5964C339.369 16.8772 335.883 16.6381 332.37 16.9244L324.476 4.46518L311.502 9.53465L312.215 24.7998C309.303 27.0237 306.703 29.6412 304.446 32.5614L291.016 30.0145L285.032 43.8873L295.15 54.1228C294.512 57.9218 294.299 61.8349 294.554 65.7781L283.455 74.6394L287.968 89.1924L301.57 88.4015C303.552 91.6701 305.884 94.5888 308.482 97.1125L306.213 112.188L318.581 118.901L327.7 107.544C331.084 108.259 334.571 108.499 338.083 108.212L345.969 120.675L358.943 115.605L358.238 100.337C361.15 98.1128 363.75 95.4951 365.999 92.5787L379.429 95.1252L385.41 81.2425L375.292 71.0073C375.932 67.218 376.145 63.3048 375.89 59.3617L386.99 50.5007ZM344.907 93.7985C329.584 99.7859 312.837 90.6958 307.503 73.4959C302.169 56.2961 310.267 37.4986 325.59 31.5112C340.913 25.5239 357.66 34.6138 362.994 51.8136C368.328 69.0134 360.23 87.8112 344.907 93.7985Z" fill="#E2E8ED"/>
<path d="M335.249 87.1082C347.281 87.1082 357.034 76.1598 357.034 62.6541C357.034 49.1485 347.281 38.2 335.249 38.2C323.217 38.2 313.463 49.1485 313.463 62.6541C313.463 76.1598 323.217 87.1082 335.249 87.1082Z" fill="#E2E8ED"/>
<path d="M427.713 203.303C451.082 195.361 464.291 167.658 457.215 141.426C450.139 115.195 425.459 100.368 402.09 108.311C378.72 116.253 365.512 143.956 372.587 170.188C379.663 196.419 404.343 211.246 427.713 203.303Z" fill="#FE4C40"/>
<path d="M427.913 188.603C444.049 180.536 451.305 159.314 444.118 141.201C436.932 123.088 418.025 114.944 401.888 123.01C385.752 131.077 378.496 152.3 385.683 170.413C392.869 188.526 411.776 196.67 427.913 188.603Z" fill="#E4ECF9"/>
<path d="M392.932 155.808C392.932 169.428 402.768 180.468 414.901 180.468C427.035 180.468 436.871 169.428 436.871 155.808C436.871 142.189 427.035 131.148 414.901 131.148C402.768 131.148 392.932 142.189 392.932 155.808Z" fill="#FE4C40"/>
<path d="M403.389 155.808C403.389 162.943 408.542 168.727 414.898 168.727C421.254 168.727 426.407 162.943 426.407 155.808C426.407 148.674 421.254 142.89 414.898 142.89C408.542 142.89 403.389 148.674 403.389 155.808Z" fill="#E4ECF9"/>
<path d="M413.12 157.807H420.347L413.12 149.696V157.807Z" fill="#22252D"/>
<path d="M459.979 105.209H468.248V102.869H462.064V95.9276H459.979V105.209Z" fill="#2E363A"/>
<path d="M463.761 100.961H472.029V98.6191H465.845V91.6801H463.761V100.961Z" fill="#2E363A"/>
<path d="M464.412 98.5802L414.409 154.706L415.883 156.36L465.886 100.235L464.412 98.5802Z" fill="#2E363A"/>
</svg>
