<svg width="40" height="40" viewBox="0 0 40 40" fill="none" xmlns="http://www.w3.org/2000/svg">
<rect width="40" height="40" rx="20" fill="#F8F8F8"/>
<path fill-rule="evenodd" clip-rule="evenodd" d="M19.1667 13.3333C15.9451 13.3333 13.3334 15.945 13.3334 19.1667C13.3334 22.3884 15.9451 25 19.1667 25C22.3884 25 25 22.3884 25 19.1667C25 15.945 22.3884 13.3333 19.1667 13.3333ZM11.6667 19.1667C11.6667 15.0245 15.0246 11.6667 19.1667 11.6667C23.3088 11.6667 26.6667 15.0245 26.6667 19.1667C26.6667 23.3088 23.3088 26.6667 19.1667 26.6667C15.0246 26.6667 11.6667 23.3088 11.6667 19.1667Z" fill="#2D2D2D"/>
<path fill-rule="evenodd" clip-rule="evenodd" d="M23.2858 23.2857C23.6113 22.9603 24.1389 22.9603 24.4643 23.2857L28.0893 26.9108C28.4148 27.2362 28.4148 27.7638 28.0893 28.0893C27.7639 28.4147 27.2363 28.4147 26.9108 28.0893L23.2858 24.4643C22.9604 24.1388 22.9604 23.6112 23.2858 23.2857Z" fill="#2D2D2D"/>
</svg>
