<svg width="311" height="246" viewBox="0 0 311 246" fill="none" xmlns="http://www.w3.org/2000/svg">
<path d="M92 8C89.7909 8 88 6.20914 88 4C88 1.79086 89.7909 0 92 0L158 0V8L92 8Z" fill="#5564D7"/>
<path d="M206 8C208.209 8 210 6.20914 210 4C210 1.79086 208.209 0 206 0L158 0V8L206 8Z" fill="#FFC95F"/>
<path d="M69 48C66.7909 48 65 46.2091 65 44C65 41.7909 66.7909 40 69 40L158 40V48L69 48Z" fill="#5564D7"/>
<path d="M230 48C232.209 48 234 46.2091 234 44C234 41.7909 232.209 40 230 40L158 40V48L230 48Z" fill="#FFC95F"/>
<path d="M46 87C43.7909 87 42 85.2091 42 83C42 80.7909 43.7909 79 46 79H158V87H46Z" fill="#5564D7"/>
<path d="M254 87.3335C256.209 87.3335 258 85.5426 258 83.3335C258 81.1244 256.209 79.3335 254 79.3335H158V87.3335H254Z" fill="#FFC95F"/>
<path d="M4 127C1.79086 127 0 125.209 0 123C0 120.791 1.79086 119 4 119L158 119V127L4 127Z" fill="#5564D7"/>
<path d="M242 127C244.209 127 246 125.209 246 123C246 120.791 244.209 119 242 119H158V127H242Z" fill="#FFC95F"/>
<path d="M53 167C50.7909 167 49 165.209 49 163C49 160.791 50.7909 159 53 159H158V167H53Z" fill="#5564D7"/>
<path d="M307 167C309.209 167 311 165.209 311 163C311 160.791 309.209 159 307 159H158V167H307Z" fill="#FFC95F"/>
<path d="M88 206C85.7909 206 84 204.209 84 202C84 199.791 85.7909 198 88 198H158V206H88Z" fill="#5564D7"/>
<path d="M242 206C244.209 206 246 204.209 246 202C246 199.791 244.209 198 242 198H158V206H242Z" fill="#FFC95F"/>
<path d="M81 246C78.7909 246 77 244.209 77 242C77 239.791 78.7909 238 81 238H158V246H81Z" fill="#5564D7"/>
<path d="M188 246C190.209 246 192 244.209 192 242C192 239.791 190.209 238 188 238H158V246H188Z" fill="#FFC95F"/>
</svg>
