<svg width="19" height="17" viewBox="0 0 19 17" fill="none" xmlns="http://www.w3.org/2000/svg">
<path fill-rule="evenodd" clip-rule="evenodd" d="M2.55 1.7C2.32457 1.7 2.10836 1.78955 1.94895 1.94895C1.78955 2.10836 1.7 2.32457 1.7 2.55V14.45C1.7 14.6754 1.78955 14.8916 1.94895 15.051C2.10836 15.2104 2.32457 15.3 2.55 15.3H16.1499C16.3754 15.3 16.5916 15.2104 16.751 15.051C16.9105 14.8916 17 14.6754 17 14.45V5.09999C17 4.87456 16.9105 4.65835 16.751 4.49895C16.5916 4.33954 16.3754 4.25 16.1499 4.25H8.49999C8.21578 4.25 7.95039 4.10796 7.79275 3.87149L6.34509 1.7H2.55ZM0.746877 0.746877C1.22509 0.26866 1.8737 0 2.55 0H6.79999C7.08419 0 7.34959 0.142036 7.50723 0.378504L8.9549 2.55H16.1499C16.8263 2.55 17.4749 2.81865 17.9531 3.29687C18.4313 3.77509 18.6999 4.42369 18.6999 5.09999V14.45C18.6999 15.1263 18.4313 15.7749 17.9531 16.2531C17.4749 16.7313 16.8263 17 16.1499 17H2.55C1.8737 17 1.22509 16.7313 0.746877 16.2531C0.26866 15.7749 0 15.1263 0 14.45V2.55C0 1.8737 0.26866 1.22509 0.746877 0.746877Z" fill="#E04343"/>
</svg>
