<svg width="20" height="20" viewBox="0 0 20 20" fill="none" xmlns="http://www.w3.org/2000/svg">
<path fill-rule="evenodd" clip-rule="evenodd" d="M4.16797 3.33336C3.94696 3.33336 3.73499 3.42115 3.57871 3.57743C3.42243 3.73371 3.33464 3.94568 3.33464 4.16669V15.8334C3.33464 16.0544 3.42243 16.2663 3.57871 16.4226C3.73499 16.5789 3.94696 16.6667 4.16797 16.6667H7.5013C7.96154 16.6667 8.33464 17.0398 8.33464 17.5C8.33464 17.9603 7.96154 18.3334 7.5013 18.3334H4.16797C3.50493 18.3334 2.86904 18.07 2.4002 17.6011C1.93136 17.1323 1.66797 16.4964 1.66797 15.8334V4.16669C1.66797 3.50365 1.93136 2.86776 2.4002 2.39892C2.86904 1.93008 3.50493 1.66669 4.16797 1.66669H7.5013C7.96154 1.66669 8.33464 2.03978 8.33464 2.50002C8.33464 2.96026 7.96154 3.33336 7.5013 3.33336H4.16797Z" fill="white"/>
<path fill-rule="evenodd" clip-rule="evenodd" d="M12.7441 5.24408C13.0695 4.91864 13.5972 4.91864 13.9226 5.24408L18.0893 9.41074C18.4147 9.73618 18.4147 10.2638 18.0893 10.5893L13.9226 14.7559C13.5972 15.0814 13.0695 15.0814 12.7441 14.7559C12.4186 14.4305 12.4186 13.9029 12.7441 13.5774L16.3215 10L12.7441 6.42259C12.4186 6.09715 12.4186 5.56951 12.7441 5.24408Z" fill="white"/>
<path fill-rule="evenodd" clip-rule="evenodd" d="M6.66797 10C6.66797 9.53978 7.04106 9.16669 7.5013 9.16669H17.5013C17.9616 9.16669 18.3347 9.53978 18.3347 10C18.3347 10.4603 17.9616 10.8334 17.5013 10.8334H7.5013C7.04106 10.8334 6.66797 10.4603 6.66797 10Z" fill="white"/>
</svg>
