<svg width="20" height="20" viewBox="0 0 20 20" fill="none" xmlns="http://www.w3.org/2000/svg">
<path fill-rule="evenodd" clip-rule="evenodd" d="M3.33301 3.33333C3.112 3.33333 2.90003 3.42112 2.74375 3.5774C2.58747 3.73368 2.49968 3.94565 2.49968 4.16666V15.8334C2.49968 16.0544 2.58747 16.2663 2.74375 16.4226C2.90003 16.5789 3.112 16.6667 3.33301 16.6667H16.6663C16.8873 16.6667 17.0993 16.5789 17.2556 16.4226C17.4119 16.2663 17.4997 16.0544 17.4997 15.8334V6.66666C17.4997 6.44565 17.4119 6.23368 17.2556 6.0774C17.0993 5.92112 16.8873 5.83333 16.6663 5.83333H9.16634C8.88771 5.83333 8.62752 5.69408 8.47297 5.46224L7.05369 3.33333H3.33301ZM1.56524 2.39889C2.03408 1.93005 2.66997 1.66666 3.33301 1.66666H7.49968C7.7783 1.66666 8.0385 1.80591 8.19305 2.03774L9.61233 4.16666H16.6663C17.3294 4.16666 17.9653 4.43005 18.4341 4.89889C18.9029 5.36773 19.1663 6.00362 19.1663 6.66666V15.8334C19.1663 16.4964 18.9029 17.1323 18.4341 17.6011C17.9653 18.07 17.3294 18.3334 16.6663 18.3334H3.33301C2.66997 18.3334 2.03408 18.07 1.56524 17.6011C1.0964 17.1323 0.833008 16.4964 0.833008 15.8334V4.16666C0.833008 3.50362 1.0964 2.86773 1.56524 2.39889Z" fill="#828FA2"/>
</svg>
