<svg width="20" height="20" viewBox="0 0 20 20" fill="none" xmlns="http://www.w3.org/2000/svg">
<path fill-rule="evenodd" clip-rule="evenodd" d="M4.74695 2.07476C3.33857 2.28906 2.22267 3.32105 1.98085 4.72496C1.81231 5.70342 1.66797 6.94637 1.66797 8.33366C1.66797 9.72095 1.81231 10.9639 1.98085 11.9424C2.18843 13.1475 3.0401 14.0786 4.16797 14.4536V17.29C4.16797 17.9352 4.86973 18.3357 5.42524 18.0074L10.5214 14.9961C12.3667 14.9658 14.0212 14.7804 15.2557 14.5926C16.6641 14.3783 17.78 13.3463 18.0218 11.9424C18.1903 10.9639 18.3347 9.72095 18.3347 8.33366C18.3347 6.94637 18.1903 5.70342 18.0218 4.72496C17.78 3.32105 16.6641 2.28906 15.2557 2.07476C13.9062 1.86944 12.055 1.66699 10.0013 1.66699C7.94763 1.66699 6.09639 1.86944 4.74695 2.07476ZM5.0013 6.66699C5.0013 6.20676 5.3744 5.83366 5.83464 5.83366H14.168C14.6282 5.83366 15.0013 6.20676 15.0013 6.66699C15.0013 7.12723 14.6282 7.50033 14.168 7.50033H5.83464C5.3744 7.50033 5.0013 7.12723 5.0013 6.66699ZM5.0013 10.0003C5.0013 9.54009 5.3744 9.16699 5.83464 9.16699H9.16797C9.6282 9.16699 10.0013 9.54009 10.0013 10.0003C10.0013 10.4606 9.6282 10.8337 9.16797 10.8337H5.83464C5.3744 10.8337 5.0013 10.4606 5.0013 10.0003Z" fill="#D9D9D9"/>
</svg>
