<svg width="147" height="195" viewBox="0 0 147 195" fill="none" xmlns="http://www.w3.org/2000/svg">
<path d="M28.8213 39.1545L0.844991 96.505C-0.118959 98.481 -0.264573 100.772 0.441098 102.86L29.7151 189.459C31.1602 193.734 35.7091 196.004 39.8828 194.531L124.81 164.568C129.018 163.083 131.237 158.365 129.747 154.066L99.7516 67.476C99.0413 65.4243 97.5641 63.7464 95.6457 62.8117L39.4163 35.4141C35.4802 33.4962 30.7703 35.1589 28.8213 39.1545Z" fill="#FF8B6A"/>
<path d="M54.3545 179.732L54.5988 180.459L54.3545 179.732ZM44.1869 174.66L43.4778 174.912L44.1869 174.66ZM144.219 139.267L143.511 139.524L144.219 139.267ZM139.281 149.769L139.037 149.042L139.281 149.769ZM114.223 52.6768L113.517 52.9342L114.223 52.6768ZM15.3168 81.7059L14.6456 81.3619L15.3168 81.7059ZM14.9129 88.0606L14.2039 88.3123L14.9129 88.0606ZM15.9879 82.0499L43.9642 24.6994L42.6218 24.0114L14.6456 81.3619L15.9879 82.0499ZM53.566 21.3096L109.795 48.7072L110.44 47.3179L54.2103 19.9204L53.566 21.3096ZM113.517 52.9342L143.511 139.524L144.926 139.009L114.931 52.4196L113.517 52.9342ZM139.037 149.042L54.1103 179.005L54.5988 180.459L139.525 150.496L139.037 149.042ZM44.8959 174.409L15.6219 87.8087L14.2039 88.3123L43.4778 174.912L44.8959 174.409ZM54.1103 179.005C50.3279 180.339 46.2055 178.283 44.8959 174.409L43.4778 174.912C45.0584 179.588 50.0338 182.069 54.5988 180.459L54.1103 179.005ZM143.511 139.524C144.861 143.42 142.851 147.696 139.037 149.042L139.525 150.496C144.129 148.872 146.555 143.711 144.926 139.009L143.511 139.524ZM109.795 48.7072C111.534 49.5543 112.873 51.075 113.517 52.9342L114.931 52.4196C114.153 50.1755 112.538 48.3403 110.44 47.3179L109.795 48.7072ZM43.9642 24.6994C45.7305 21.0783 49.9987 19.5715 53.566 21.3096L54.2103 19.9204C49.905 17.8227 44.7536 19.6413 42.6218 24.0114L43.9642 24.6994ZM14.6456 81.3619C13.5913 83.5233 13.432 86.0291 14.2039 88.3123L15.6219 87.8087C14.9824 85.9169 15.1143 83.8407 15.9879 82.0499L14.6456 81.3619Z" fill="#2D2D2D"/>
<path d="M65.888 51.1927C65.888 56.0662 62.0385 59.9851 57.3287 59.9851C52.6189 59.9851 48.7694 56.0662 48.7694 51.1927C48.7694 46.3192 52.6189 42.4003 57.3287 42.4003C62.0385 42.4003 65.888 46.3192 65.888 51.1927Z" fill="white" stroke="#2D2D2D" stroke-width="1.5"/>
<path d="M23.5584 2.68638L24.1995 4.62921L23.5584 2.68638ZM60.4956 53.0698C61.5499 52.7667 62.1659 51.6722 61.8627 50.6179C59.0429 40.8147 54.2266 27.6232 48.0741 17.223C44.8009 11.6896 41.0621 6.7951 36.9242 3.65675C32.7388 0.482428 27.9672 -1.0072 22.9173 0.743544L24.1995 4.62921C27.6426 3.43554 31.0578 4.31019 34.5438 6.95411C38.0773 9.63399 41.4944 14.0117 44.6522 19.3497C50.5438 29.3092 55.2293 42.0857 57.9951 51.677C58.3046 52.7504 59.422 53.3784 60.4956 53.0698ZM22.9173 0.743544C19.1591 2.04643 17.2736 5.58803 16.4926 9.56967C15.7073 13.5737 15.9168 18.5062 16.7246 23.5671C18.209 32.8664 21.8154 43.197 25.8765 50.1256C26.4487 51.1018 27.7278 51.3489 28.6595 50.7068C29.5616 50.0852 29.8 48.8602 29.2485 47.9136C25.5235 41.5198 22.0865 31.7533 20.674 22.9047C19.903 18.0745 19.7655 13.6948 20.416 10.3782C21.071 7.03914 22.4044 5.25153 24.1995 4.62921L22.9173 0.743544Z" fill="#2D2D2D"/>
<path d="M146.25 94.7197C146.25 106.806 136.695 116.572 124.948 116.572C113.201 116.572 103.647 106.806 103.647 94.7197C103.647 82.6335 113.201 72.8675 124.948 72.8675C136.695 72.8675 146.25 82.6335 146.25 94.7197Z" fill="white" stroke="#2D2D2D" stroke-width="1.5"/>
<ellipse cx="124.95" cy="94.7197" rx="16.5387" ry="16.9524" fill="#5564D7"/>
<path d="M123.964 97.9466C123.964 95.7634 123.964 95.7736 121.755 95.7634C121.203 95.7634 120.65 95.7634 120.098 95.7533C119.536 95.7431 119.229 95.469 119.229 94.9003C119.229 94.3114 119.525 93.956 120.119 93.9459C121.141 93.9154 122.164 93.9052 123.176 93.9459C123.79 93.9662 124.005 93.7529 123.974 93.1437C123.933 92.2196 123.964 91.2956 123.964 90.3615C123.964 89.7116 124.189 89.1937 124.945 89.1937C125.692 89.1937 125.927 89.6811 125.927 90.3513C125.927 91.2753 125.958 92.2095 125.917 93.1335C125.896 93.7225 126.08 93.9763 126.704 93.9459C127.666 93.9052 128.627 93.9459 129.588 93.9357C130.243 93.9357 130.672 94.1794 130.662 94.8902C130.662 95.5705 130.222 95.7736 129.619 95.7736C128.688 95.7736 127.758 95.7939 126.817 95.7736C126.162 95.7533 125.856 95.9462 125.907 96.6672C125.968 97.5607 125.917 98.4644 125.917 99.358C125.917 100.008 125.702 100.556 124.976 100.577C124.178 100.607 123.974 100.018 123.953 99.3478C123.964 98.8808 123.964 98.4137 123.964 97.9466Z" fill="white"/>
</svg>
