<svg width="76" height="34" viewBox="0 0 76 34" fill="none" xmlns="http://www.w3.org/2000/svg">
<g filter="url(#filter0_d_1_6725)">
<path d="M53.1063 2.42617L52.4606 1.56917L53.1063 2.42617ZM43.3154 11.5675L42.6697 10.7106L43.3154 11.5675ZM9.14847 23.7716L8.4209 24.5429L9.14847 23.7716ZM3.30309 17.1121C3.73318 16.6561 4.46376 16.6738 4.87125 17.1501L9.87605 23.0002L8.4209 24.5429L3.26894 18.521C2.91872 18.1116 2.93344 17.504 3.30309 17.1121ZM16.1033 22.4411L23.4287 10.5225L25.0872 11.7857L17.7618 23.7043L16.1033 22.4411ZM30.5422 8.03726L38.6617 11.4658L37.949 13.5574L29.8295 10.1289L30.5422 8.03726ZM42.6697 10.7106L52.4606 1.56917L53.7519 3.28305L43.961 12.4245L42.6697 10.7106ZM60.5974 1.96568L69.7702 12.177C70.1311 12.5788 70.1311 13.188 69.7702 13.5898C69.3502 14.0573 68.6175 14.0573 68.1975 13.5898L59.1765 3.54747L60.5974 1.96568ZM52.4606 1.56917C54.8552 -0.666608 58.3875 -0.49447 60.5974 1.96568L59.1765 3.54747C57.7032 1.90741 55.3483 1.79265 53.7519 3.28305L52.4606 1.56917ZM38.6617 11.4658C40.022 12.0402 41.555 11.7514 42.6697 10.7106L43.961 12.4245C42.2889 13.9857 39.9895 14.419 37.949 13.5574L38.6617 11.4658ZM23.4287 10.5225C25.0003 7.96556 27.94 6.93855 30.5422 8.03726L29.8295 10.1289C28.0947 9.39635 26.1349 10.081 25.0872 11.7857L23.4287 10.5225ZM9.87605 23.0002C11.6391 25.061 14.6597 24.7898 16.1033 22.4411L17.7618 23.7043C15.5964 27.2273 11.0655 27.6341 8.4209 24.5429L9.87605 23.0002Z" fill="#E04343"/>
<path d="M71.981 11.5261C71.981 13.5462 70.5328 14.9954 68.9667 14.9954C67.4007 14.9954 65.9525 13.5462 65.9525 11.5261C65.9525 9.50601 67.4007 8.05684 68.9667 8.05684C70.5328 8.05684 71.981 9.50601 71.981 11.5261Z" fill="white" stroke="#E04343" stroke-width="2"/>
</g>
<defs>
<filter id="filter0_d_1_6725" x="0" y="0" width="76" height="33.6592" filterUnits="userSpaceOnUse" color-interpolation-filters="sRGB">
<feFlood flood-opacity="0" result="BackgroundImageFix"/>
<feColorMatrix in="SourceAlpha" type="matrix" values="0 0 0 0 0 0 0 0 0 0 0 0 0 0 0 0 0 0 127 0" result="hardAlpha"/>
<feOffset dy="4"/>
<feGaussianBlur stdDeviation="1.5"/>
<feComposite in2="hardAlpha" operator="out"/>
<feColorMatrix type="matrix" values="0 0 0 0 1 0 0 0 0 0.427451 0 0 0 0 0.4 0 0 0 0.2 0"/>
<feBlend mode="normal" in2="BackgroundImageFix" result="effect1_dropShadow_1_6725"/>
<feBlend mode="normal" in="SourceGraphic" in2="effect1_dropShadow_1_6725" result="shape"/>
</filter>
</defs>
</svg>
