<svg width="28" height="28" viewBox="0 0 28 28" fill="none" xmlns="http://www.w3.org/2000/svg">
<path d="M21.6655 14.3247C22.0028 14.5841 22.0676 15.07 21.8102 15.4099C21.5528 15.7499 21.0707 15.8152 20.7334 15.5558L21.6655 14.3247ZM18.2117 16.1296L18.887 16.4988C18.7231 16.8032 18.3787 16.9609 18.0435 16.8851C17.7082 16.8093 17.4637 16.5183 17.4446 16.1726L18.2117 16.1296ZM13.2321 16.1296L13.9481 16.4103C13.8141 16.7575 13.4537 16.9593 13.0904 16.8906C12.727 16.8219 12.4638 16.5021 12.4638 16.1296H13.2321ZM4.26875 10.8819C3.84448 10.8819 3.50046 10.5352 3.50046 10.1076C3.50046 9.68002 3.84448 9.33337 4.26875 9.33337V10.8819ZM20.7334 15.5558C20.4671 15.351 20.2771 15.3343 20.1411 15.3539C19.9764 15.3777 19.7849 15.473 19.5773 15.6489C19.3735 15.8215 19.1979 16.0349 19.0693 16.2156C19.0065 16.3038 18.9583 16.3794 18.9268 16.4311C18.9111 16.4568 18.8998 16.4764 18.893 16.4882C18.8896 16.4941 18.8874 16.4981 18.8864 16.4999C18.8859 16.5008 18.8857 16.5012 18.8858 16.501C18.8858 16.5009 18.886 16.5007 18.8861 16.5003C18.8863 16.5002 18.8864 16.4999 18.8865 16.4997C18.8866 16.4996 18.8867 16.4993 18.8867 16.4993C18.8869 16.4991 18.887 16.4988 18.2117 16.1296C17.5364 15.7604 17.5365 15.7601 17.5367 15.7599C17.5367 15.7598 17.5369 15.7595 17.537 15.7593C17.5372 15.7589 17.5374 15.7584 17.5377 15.7579C17.5382 15.757 17.5388 15.7559 17.5395 15.7546C17.5409 15.7521 17.5426 15.7489 17.5447 15.7452C17.5488 15.7378 17.5542 15.7281 17.561 15.7162C17.5745 15.6926 17.5933 15.6603 17.6172 15.6212C17.6647 15.543 17.7332 15.4359 17.8208 15.3129C17.993 15.0711 18.2531 14.7477 18.5887 14.4635C18.9205 14.1824 19.3722 13.9006 19.9233 13.8211C20.5032 13.7374 21.1017 13.8912 21.6655 14.3247L20.7334 15.5558ZM18.2117 16.1296C17.4446 16.1726 17.4446 16.1728 17.4446 16.1731C17.4446 16.1731 17.4446 16.1733 17.4446 16.1734C17.4446 16.1736 17.4446 16.1738 17.4447 16.1739C17.4447 16.1742 17.4447 16.1743 17.4447 16.1742C17.4447 16.174 17.4446 16.1731 17.4445 16.1716C17.4443 16.1685 17.4439 16.1627 17.4433 16.1545C17.442 16.138 17.4399 16.1116 17.4364 16.0767C17.4296 16.0069 17.4177 15.9041 17.3982 15.7796C17.3588 15.5271 17.2907 15.2023 17.1777 14.8871C16.9281 14.1905 16.6069 13.8929 16.2198 13.8929V12.3444C17.6583 12.3444 18.333 13.5522 18.6229 14.3611C18.7797 14.7987 18.8673 15.2266 18.9161 15.5387C18.9408 15.6965 18.9561 15.8289 18.9655 15.9237C18.9702 15.9712 18.9734 16.0095 18.9754 16.0371C18.9765 16.0509 18.9773 16.062 18.9778 16.0703C18.9781 16.0745 18.9783 16.0779 18.9784 16.0806C18.9785 16.082 18.9786 16.0832 18.9786 16.0842C18.9787 16.0847 18.9787 16.0851 18.9787 16.0855C18.9787 16.0857 18.9787 16.086 18.9788 16.0861C18.9788 16.0863 18.9788 16.0866 18.2117 16.1296ZM16.2198 13.8929C15.9824 13.8929 15.7276 13.9894 15.45 14.2037C15.17 14.4199 14.906 14.7268 14.6724 15.0658C14.4415 15.4009 14.2581 15.7411 14.1319 16.0003C14.0692 16.1289 14.0218 16.2351 13.9907 16.3076C13.9752 16.3439 13.9637 16.3715 13.9566 16.3891C13.953 16.3979 13.9505 16.4042 13.9491 16.4078C13.9484 16.4096 13.9479 16.4107 13.9478 16.4111C13.9477 16.4114 13.9477 16.4114 13.9477 16.4112C13.9477 16.4112 13.9478 16.4111 13.9479 16.4109C13.9479 16.4108 13.9479 16.4107 13.948 16.4106C13.948 16.4105 13.9481 16.4103 13.2321 16.1296C12.516 15.8489 12.5161 15.8487 12.5162 15.8485C12.5162 15.8484 12.5163 15.8482 12.5164 15.848C12.5165 15.8477 12.5167 15.8473 12.5168 15.8468C12.5171 15.846 12.5176 15.8449 12.5181 15.8437C12.519 15.8412 12.5203 15.838 12.5218 15.8341C12.5249 15.8263 12.5292 15.8157 12.5346 15.8025C12.5453 15.776 12.5607 15.7389 12.5805 15.6928C12.62 15.6006 12.6777 15.4717 12.7525 15.318C12.9012 15.0126 13.1225 14.6001 13.4103 14.1825C13.6955 13.7687 14.0643 13.3228 14.5157 12.9744C14.9694 12.6241 15.5446 12.3444 16.2198 12.3444V13.8929ZM13.2321 16.1296C12.4638 16.1296 12.4638 16.1301 12.4638 16.1307C12.4638 16.1308 12.4638 16.1313 12.4638 16.1316C12.4638 16.1322 12.4638 16.1327 12.4638 16.1331C12.4638 16.1339 12.4638 16.1343 12.4638 16.1344C12.4638 16.1347 12.4638 16.1335 12.4637 16.131C12.4636 16.1261 12.4633 16.1158 12.4626 16.1006C12.4611 16.0702 12.4577 16.0202 12.4506 15.9533C12.4364 15.8194 12.407 15.6197 12.3467 15.3764C12.2257 14.889 11.9831 14.2363 11.497 13.5832C10.5515 12.3127 8.56295 10.8819 4.26875 10.8819V9.33337C8.93787 9.33337 11.431 10.9136 12.7263 12.6541C13.3606 13.5064 13.6782 14.3592 13.8374 15.0009C13.9171 15.3221 13.9577 15.593 13.9785 15.7884C13.9889 15.8862 13.9943 15.9655 13.9972 16.0233C13.9986 16.0522 13.9994 16.0758 13.9999 16.0936C14.0001 16.1025 14.0002 16.11 14.0003 16.116C14.0003 16.119 14.0003 16.1217 14.0003 16.1239C14.0003 16.1251 14.0003 16.1261 14.0004 16.127C14.0004 16.1275 14.0004 16.1281 14.0004 16.1284C14.0004 16.129 14.0004 16.1296 13.2321 16.1296Z" fill="#FF8B6A"/>
<path d="M5.80539 18.8679C5.38108 18.8679 5.03711 19.2145 5.03711 19.6421C5.03711 20.0697 5.38108 20.4164 5.80539 20.4164V18.8679ZM23.732 20.4164C24.1563 20.4164 24.5002 20.0697 24.5002 19.6421C24.5002 19.2145 24.1563 18.8679 23.732 18.8679V20.4164ZM5.80539 20.4164H23.732V18.8679H5.80539V20.4164Z" fill="#FF8B6A"/>
</svg>
