<svg width="20" height="20" viewBox="0 0 20 20" fill="none" xmlns="http://www.w3.org/2000/svg">
<path fill-rule="evenodd" clip-rule="evenodd" d="M8.96447 2.29778C9.90215 1.3601 11.1739 0.833313 12.5 0.833313H15C15.4602 0.833313 15.8333 1.20641 15.8333 1.66665V4.99998C15.8333 5.46021 15.4602 5.83331 15 5.83331H12.5V7.49998H15C15.2566 7.49998 15.4989 7.6182 15.6568 7.82047C15.8148 8.02273 15.8707 8.28647 15.8085 8.53542L14.9751 11.8687C14.8824 12.2397 14.5491 12.5 14.1667 12.5H12.5V18.3333C12.5 18.7935 12.1269 19.1666 11.6667 19.1666H8.33333C7.8731 19.1666 7.5 18.7935 7.5 18.3333V12.5H5.83333C5.3731 12.5 5 12.1269 5 11.6666V8.33331C5 7.87307 5.3731 7.49998 5.83333 7.49998H7.5V5.83331C7.5 4.50723 8.02678 3.23546 8.96447 2.29778ZM12.5 2.49998C11.6159 2.49998 10.7681 2.85117 10.143 3.47629C9.51786 4.10141 9.16667 4.94925 9.16667 5.83331V8.33331C9.16667 8.79355 8.79357 9.16664 8.33333 9.16664H6.66667V10.8333H8.33333C8.79357 10.8333 9.16667 11.2064 9.16667 11.6666V17.5H10.8333V11.6666C10.8333 11.2064 11.2064 10.8333 11.6667 10.8333H13.516L13.9327 9.16664H11.6667C11.2064 9.16664 10.8333 8.79355 10.8333 8.33331V5.83331C10.8333 5.39128 11.0089 4.96736 11.3215 4.6548C11.634 4.34224 12.058 4.16664 12.5 4.16664H14.1667V2.49998H12.5Z" fill="#2D2D2D"/>
</svg>
