<svg width="20" height="20" viewBox="0 0 20 20" fill="none" xmlns="http://www.w3.org/2000/svg">
<g clip-path="url(#clip0_1_3755)">
<path fill-rule="evenodd" clip-rule="evenodd" d="M0.833984 10C0.833984 4.9374 4.93804 0.833344 10.0007 0.833344C15.0633 0.833344 19.1673 4.9374 19.1673 10C19.1673 15.0626 15.0633 19.1666 10.0007 19.1666C4.93804 19.1666 0.833984 15.0626 0.833984 10Z" fill="#FF8B6A"/>
<path fill-rule="evenodd" clip-rule="evenodd" d="M14.4272 6.70242C14.7527 7.02786 14.7527 7.5555 14.4272 7.88093L9.25462 13.2976C8.92918 13.623 8.40154 13.623 8.07611 13.2976L5.57611 10.7976C5.25067 10.4722 5.25067 9.94453 5.57611 9.61909C5.90155 9.29365 6.42918 9.29365 6.75462 9.61909L8.66536 11.5298L13.2487 6.70242C13.5741 6.37698 14.1018 6.37698 14.4272 6.70242Z" fill="white"/>
</g>
<defs>
<clipPath id="clip0_1_3755">
<rect width="20" height="20" fill="white"/>
</clipPath>
</defs>
</svg>
