<svg width="20" height="20" viewBox="0 0 20 20" fill="none" xmlns="http://www.w3.org/2000/svg">
<path fill-rule="evenodd" clip-rule="evenodd" d="M4.95951 10C4.70203 10 4.50618 10.2312 4.54851 10.4852L5.34665 15.274C5.48059 16.0777 6.1759 16.6667 6.99064 16.6667H13.0098C13.8245 16.6667 14.5198 16.0777 14.6538 15.274L15.4519 10.4852C15.4943 10.2312 15.2984 10 15.0409 10H4.95951ZM3.48393 8.33334C2.96898 8.33334 2.57728 8.79573 2.66194 9.30368L3.70266 15.548C3.97054 17.1553 5.36117 18.3333 6.99064 18.3333H13.0098C14.6393 18.3333 16.0299 17.1553 16.2978 15.548L17.3385 9.30368C17.4232 8.79573 17.0315 8.33334 16.5165 8.33334H3.48393Z" fill="#828FA2"/>
<path d="M8.33333 11.6667C7.8731 11.6667 7.5 12.0398 7.5 12.5V14.1667C7.5 14.6269 7.8731 15 8.33333 15C8.79357 15 9.16667 14.6269 9.16667 14.1667V12.5C9.16667 12.0398 8.79357 11.6667 8.33333 11.6667ZM11.6667 11.6667C11.2064 11.6667 10.8333 12.0398 10.8333 12.5V14.1667C10.8333 14.6269 11.2064 15 11.6667 15C12.1269 15 12.5 14.6269 12.5 14.1667V12.5C12.5 12.0398 12.1269 11.6667 11.6667 11.6667Z" fill="#828FA2"/>
<path d="M8.33333 11.6667C7.8731 11.6667 7.5 12.0398 7.5 12.5V14.1667C7.5 14.6269 7.8731 15 8.33333 15C8.79357 15 9.16667 14.6269 9.16667 14.1667V12.5C9.16667 12.0398 8.79357 11.6667 8.33333 11.6667ZM11.6667 11.6667C11.2064 11.6667 10.8333 12.0398 10.8333 12.5V14.1667C10.8333 14.6269 11.2064 15 11.6667 15C12.1269 15 12.5 14.6269 12.5 14.1667V12.5C12.5 12.0398 12.1269 11.6667 11.6667 11.6667Z" fill="#828FA2"/>
<path d="M8.92291 3.08925C9.24835 2.76381 9.24835 2.23617 8.92291 1.91073C8.59748 1.5853 8.06984 1.5853 7.7444 1.91073L4.41107 5.24407C4.08563 5.56951 4.08563 6.09715 4.41107 6.42258C4.73651 6.74802 5.26414 6.74802 5.58958 6.42258L8.92291 3.08925ZM11.0777 3.08925C10.7523 2.76381 10.7523 2.23617 11.0777 1.91073C11.4032 1.5853 11.9308 1.5853 12.2563 1.91073L15.5896 5.24407C15.915 5.56951 15.915 6.09715 15.5896 6.42258C15.2642 6.74802 14.7365 6.74802 14.4111 6.42258L11.0777 3.08925Z" fill="#828FA2"/>
<path d="M8.92291 3.08925C9.24835 2.76381 9.24835 2.23617 8.92291 1.91073C8.59748 1.5853 8.06984 1.5853 7.7444 1.91073L4.41107 5.24407C4.08563 5.56951 4.08563 6.09715 4.41107 6.42258C4.73651 6.74802 5.26414 6.74802 5.58958 6.42258L8.92291 3.08925ZM11.0777 3.08925C10.7523 2.76381 10.7523 2.23617 11.0777 1.91073C11.4032 1.5853 11.9308 1.5853 12.2563 1.91073L15.5896 5.24407C15.915 5.56951 15.915 6.09715 15.5896 6.42258C15.2642 6.74802 14.7365 6.74802 14.4111 6.42258L11.0777 3.08925Z" fill="#828FA2"/>
<path fill-rule="evenodd" clip-rule="evenodd" d="M15.8337 6.66667H4.16699C3.70675 6.66667 3.33366 7.03976 3.33366 7.5C3.33366 7.96024 3.70675 8.33333 4.16699 8.33333H15.8337C16.2939 8.33333 16.667 7.96024 16.667 7.5C16.667 7.03976 16.2939 6.66667 15.8337 6.66667ZM4.16699 5C2.78628 5 1.66699 6.11929 1.66699 7.5C1.66699 8.88071 2.78628 10 4.16699 10H15.8337C17.2144 10 18.3337 8.88071 18.3337 7.5C18.3337 6.11929 17.2144 5 15.8337 5H4.16699Z" fill="#828FA2"/>
</svg>
