<svg width="76" height="34" viewBox="0 0 76 34" fill="none" xmlns="http://www.w3.org/2000/svg">
<g filter="url(#filter0_d_1_6698)">
<path d="M53.1063 24.1997L52.4606 25.0567L53.1063 24.1997ZM43.3154 15.0584L42.6697 15.9153L43.3154 15.0584ZM9.14847 2.85433L8.4209 2.08296L9.14847 2.85433ZM3.30309 9.51378C3.73318 9.96978 4.46376 9.95207 4.87125 9.47576L9.87605 3.62572L8.4209 2.08296L3.26894 8.10495C2.91872 8.51432 2.93344 9.12187 3.30309 9.51378ZM16.1033 4.18484L23.4287 16.1034L25.0872 14.8402L17.7618 2.92164L16.1033 4.18484ZM30.5422 18.5886L38.6617 15.1601L37.949 13.0685L29.8295 16.497L30.5422 18.5886ZM42.6697 15.9153L52.4606 25.0567L53.7519 23.3428L43.961 14.2014L42.6697 15.9153ZM60.5974 24.6602L69.7702 14.4489C70.1311 14.0471 70.1311 13.4379 69.7702 13.0361C69.3502 12.5686 68.6175 12.5686 68.1975 13.0361L59.1765 23.0784L60.5974 24.6602ZM52.4606 25.0567C54.8552 27.2925 58.3875 27.1204 60.5974 24.6602L59.1765 23.0784C57.7032 24.7185 55.3483 24.8333 53.7519 23.3428L52.4606 25.0567ZM38.6617 15.1601C40.022 14.5857 41.555 14.8745 42.6697 15.9153L43.961 14.2014C42.2889 12.6402 39.9895 12.2069 37.949 13.0685L38.6617 15.1601ZM23.4287 16.1034C25.0003 18.6603 27.94 19.6874 30.5422 18.5886L29.8295 16.497C28.0947 17.2296 26.1349 16.5449 25.0872 14.8402L23.4287 16.1034ZM9.87605 3.62572C11.6391 1.56492 14.6597 1.83613 16.1033 4.18484L17.7618 2.92164C15.5964 -0.601431 11.0655 -1.00824 8.4209 2.08296L9.87605 3.62572Z" fill="#279145"/>
<path d="M71.981 14.5406C71.981 16.5606 70.5328 18.0098 68.9667 18.0098C67.4007 18.0098 65.9525 16.5606 65.9525 14.5406C65.9525 12.5205 67.4007 11.0713 68.9667 11.0713C70.5328 11.0713 71.981 12.5205 71.981 14.5406Z" fill="white" stroke="#279145" stroke-width="2"/>
</g>
<defs>
<filter id="filter0_d_1_6698" x="0" y="0" width="76" height="33.6592" filterUnits="userSpaceOnUse" color-interpolation-filters="sRGB">
<feFlood flood-opacity="0" result="BackgroundImageFix"/>
<feColorMatrix in="SourceAlpha" type="matrix" values="0 0 0 0 0 0 0 0 0 0 0 0 0 0 0 0 0 0 127 0" result="hardAlpha"/>
<feOffset dy="4"/>
<feGaussianBlur stdDeviation="1.5"/>
<feComposite in2="hardAlpha" operator="out"/>
<feColorMatrix type="matrix" values="0 0 0 0 0.568627 0 0 0 0 0.729412 0 0 0 0 0.513726 0 0 0 0.2 0"/>
<feBlend mode="normal" in2="BackgroundImageFix" result="effect1_dropShadow_1_6698"/>
<feBlend mode="normal" in="SourceGraphic" in2="effect1_dropShadow_1_6698" result="shape"/>
</filter>
</defs>
</svg>
