<svg width="344" height="176" viewBox="0 0 344 176" fill="none" xmlns="http://www.w3.org/2000/svg">
<path d="M0 4C0 1.79086 1.79086 0 4 0C6.20914 0 8 1.79086 8 4V176H0V4Z" fill="#F8F8F8"/>
<path d="M0 103C0 100.791 1.79086 99 4 99C6.20914 99 8 100.791 8 103V176H0V103Z" fill="#5564D7"/>
<path d="M56 4C56 1.79086 57.7909 0 60 0C62.2091 0 64 1.79086 64 4V176H56V4Z" fill="#F8F8F8"/>
<path d="M56 82C56 79.7909 57.7909 78 60 78C62.2091 78 64 79.7909 64 82V176H56V82Z" fill="#5564D7"/>
<path d="M56 127H64V176H56V127Z" fill="#FFC95F"/>
<path d="M112 4C112 1.79086 113.791 0 116 0C118.209 0 120 1.79086 120 4V176H112V4Z" fill="#F8F8F8"/>
<path d="M112 145C112 142.791 113.791 141 116 141C118.209 141 120 142.791 120 145V176H112V145Z" fill="#5564D7"/>
<path d="M112 164H120V176H112V164Z" fill="#FFC95F"/>
<path d="M168 4C168 1.79086 169.791 0 172 0C174.209 0 176 1.79086 176 4V176H168V4Z" fill="#F8F8F8"/>
<path d="M168 103C168 100.791 169.791 99 172 99C174.209 99 176 100.791 176 103V176H168V103Z" fill="#5564D7"/>
<path d="M168 164H176V176H168V164Z" fill="#FFC95F"/>
<path d="M224 4C224 1.79086 225.791 0 228 0C230.209 0 232 1.79086 232 4V176H224V4Z" fill="#F8F8F8"/>
<path d="M224 156C224 153.791 225.791 152 228 152C230.209 152 232 153.791 232 156V176H224V156Z" fill="#FFC95F"/>
<path d="M280 4C280 1.79086 281.791 0 284 0C286.209 0 288 1.79086 288 4V176H280V4Z" fill="#F8F8F8"/>
<path d="M280 126C280 123.791 281.791 122 284 122C286.209 122 288 123.791 288 126V176H280V126Z" fill="#5564D7"/>
<path d="M280 133H288V176H280V133Z" fill="#FFC95F"/>
<path d="M336 4C336 1.79086 337.791 0 340 0C342.209 0 344 1.79086 344 4V176H336V4Z" fill="#F8F8F8"/>
<path d="M336 48C336 45.7909 337.791 44 340 44C342.209 44 344 45.7909 344 48V176H336V48Z" fill="#5564D7"/>
<path d="M336 164H344V176H336V164Z" fill="#FFC95F"/>
</svg>
