<svg width="14" height="14" viewBox="0 0 14 14" fill="none" xmlns="http://www.w3.org/2000/svg">
<path fill-rule="evenodd" clip-rule="evenodd" d="M7.00001 0C7.48326 0 7.87501 0.391751 7.87501 0.875001V13.125C7.87501 13.6082 7.48326 14 7.00001 14C6.51676 14 6.12501 13.6082 6.12501 13.125V0.875001C6.12501 0.391751 6.51676 0 7.00001 0ZM0 7.00001C0 6.51676 0.391751 6.12501 0.875001 6.12501H13.125C13.6082 6.12501 14 6.51676 14 7.00001C14 7.48326 13.6082 7.87501 13.125 7.87501H0.875001C0.391751 7.87501 0 7.48326 0 7.00001Z" fill="#2D2D2D"/>
<path fill-rule="evenodd" clip-rule="evenodd" d="M7.00001 0C7.48326 0 7.87501 0.391751 7.87501 0.875001V13.125C7.87501 13.6082 7.48326 14 7.00001 14C6.51676 14 6.12501 13.6082 6.12501 13.125V0.875001C6.12501 0.391751 6.51676 0 7.00001 0ZM0 7.00001C0 6.51676 0.391751 6.12501 0.875001 6.12501H13.125C13.6082 6.12501 14 6.51676 14 7.00001C14 7.48326 13.6082 7.87501 13.125 7.87501H0.875001C0.391751 7.87501 0 7.48326 0 7.00001Z" fill="#2D2D2D"/>
</svg>
