<svg width="342" height="342" viewBox="0 0 342 342" fill="none" xmlns="http://www.w3.org/2000/svg">
<path d="M142.143 217.82C131.27 216.898 121.402 211.082 112.991 204.171C106.787 199.071 101.08 193.233 97.1064 186.28C93.1326 179.326 90.9801 171.152 92.1281 163.235C93.0994 156.528 96.3558 150.186 96.4109 143.415C96.4551 138.047 94.4572 132.808 94.5013 127.43C94.5675 120.306 98.3427 113.503 103.785 108.864C109.227 104.225 116.192 101.611 123.267 100.464C137.264 98.2037 151.625 101.439 164.915 106.378C178.205 111.317 190.8 117.938 204.102 122.845C212.69 126.016 221.564 128.469 229.799 132.455C238.034 136.44 245.772 142.183 250.077 150.218C256.544 162.292 253.906 177.923 245.54 188.776C237.173 199.628 223.949 206.046 210.416 208.435C203.561 209.645 196.573 209.903 189.619 209.581C183.846 209.313 177.642 207.546 171.891 207.921C166.814 208.242 163.878 211.735 159.661 214.113C154.396 217.059 148.148 218.335 142.143 217.82Z" fill="#FFEDDC"/>
<path d="M100.638 214.349C100.318 214.189 99.9868 214.017 99.6778 213.846C97.9668 212.892 96.3331 211.853 94.8981 210.75C93.1873 209.4 91.6088 207.889 90.229 206.218C89.3128 205.125 88.3303 203.561 87.7012 202.082C87.2707 201.108 86.785 199.554 86.498 198.322C86.3324 197.647 86.1778 196.951 86.0564 196.254C86.4207 196.265 86.785 196.265 87.1382 196.265C88.4959 196.265 89.8316 195.965 91.101 195.526C92.1165 195.194 93.0658 194.69 93.9379 194.079C94.556 193.662 95.141 193.201 95.6377 192.655C96.9292 191.272 97.6136 189.505 98.0772 187.726C98.3752 186.666 98.4083 185.541 98.1876 184.459C98.0109 183.259 97.448 182.112 96.311 181.534C95.2293 180.966 93.4743 180.838 92.2711 181.073C91.2776 181.298 90.3504 181.759 89.5115 182.316C88.7388 182.862 88.1317 183.591 87.646 184.394C86.9395 185.584 86.4759 186.88 86.0785 188.187C85.6149 189.666 85.3058 191.198 85.2948 192.74C85.2837 193.769 85.372 194.787 85.5266 195.804C82.9325 195.665 81.2326 194.894 78.8483 193.458C75.4595 191.423 73.2629 188.798 71.2981 185.391C70.415 183.87 69.554 182.337 68.8255 180.741C67.7437 178.395 66.7944 175.577 66.2536 172.877C65.9555 171.367 65.812 170.103 65.7016 168.549C65.5581 167.189 65.514 165.828 65.4809 164.467C65.3705 162.014 65.4367 159.55 65.6906 157.096C66.5295 148.868 69.6865 140.748 74.157 133.58C75.5478 131.352 77.0711 129.188 78.6717 127.281C79.7093 126.081 80.6917 124.742 82.0274 123.831C81.1995 124.217 80.4931 124.784 79.8418 125.406C78.7931 126.381 77.9101 127.495 77.038 128.62C74.7421 131.609 72.7773 134.823 71.0663 138.144C68.2294 143.758 66.1984 149.736 65.4036 155.896C64.951 159.218 64.929 162.571 65.0945 165.903C65.1166 167.081 65.2491 168.26 65.3484 169.438C65.4478 170.788 65.6575 172.128 65.9335 173.456C66.7393 177.184 68.1632 180.784 70.0728 184.116C70.9228 185.659 71.8169 187.191 72.8656 188.616C74.2122 190.426 75.8459 192.022 77.7445 193.287C79.2788 194.283 80.8904 195.226 82.6455 195.794C83.6059 196.083 84.5993 196.212 85.5928 196.265C85.7032 196.951 85.8467 197.626 86.0123 198.301C86.4097 199.972 86.9174 201.632 87.7012 203.175C88.6284 205.05 89.9309 206.711 91.399 208.211C92.823 209.689 94.4015 211.028 96.1013 212.185C97.5805 213.203 99.2031 214.007 100.936 214.542C101.345 214.682 100.726 214.403 100.638 214.349ZM85.9902 190.383C86.233 189.162 86.6083 187.973 87.0168 186.805C87.668 185.069 88.5953 183.27 90.2731 182.38C91.1341 181.92 91.7854 181.598 92.7788 181.448C93.5294 181.352 95.1189 181.48 95.7922 181.791C97.0837 182.327 97.5804 183.355 97.7902 184.759C97.8785 185.251 97.9447 186.034 97.8454 186.698C97.8233 186.955 97.6025 187.919 97.4369 188.38C96.9733 189.976 96.289 191.401 95.152 192.558C93.8937 193.79 92.3263 194.733 90.6374 195.247C89.1472 195.74 87.8778 195.912 86.3213 195.858C86.1999 195.858 86.0785 195.858 85.9681 195.847C85.6922 194.005 85.637 192.14 85.9902 190.383ZM276.137 172.331C276.06 171.335 275.928 170.349 275.828 169.363C275.431 166.942 274.824 164.553 274.095 162.196C273.124 159.153 271.711 156.293 270.166 153.497C269.68 152.65 269.183 151.804 268.697 150.958C268.157 150.133 267.616 149.297 267.075 148.472C266.567 147.797 266.059 147.133 265.54 146.469C264.525 145.237 263.421 144.079 262.284 142.955C260.805 141.465 259.193 140.105 257.516 138.819C259.238 140.651 261.092 142.355 262.858 144.154C263.576 144.851 264.525 145.965 265.055 146.544C265.596 147.251 266.137 147.968 266.677 148.676C267.207 149.479 267.726 150.293 268.256 151.097C269.592 153.304 271.038 155.971 272.042 158.114L272.936 160.203C273.588 162.003 274.173 163.835 274.614 165.699C274.824 166.503 275.022 167.317 275.155 168.131C275.376 169.213 275.475 170.06 275.585 171.195C275.729 172.32 275.74 173.456 275.806 174.581C275.828 174.956 275.828 175.331 275.817 175.706C275.817 182.434 274.857 188.862 273.013 195.333C271.998 198.547 270.718 201.632 269.371 204.579C268.731 205.982 268.123 207.396 267.417 208.768C268.278 207.589 268.996 206.325 269.636 205.029C271.093 201.9 272.406 198.708 273.444 195.429C275.287 189.001 276.281 182.327 276.259 175.642C276.27 174.527 276.17 173.435 276.137 172.331Z" fill="#EFC7A5"/>
<path d="M173.93 82.8445C174.261 80.1837 172.307 77.7663 169.565 77.4451C166.823 77.124 164.333 79.0207 164.002 81.6815L173.93 82.8445ZM162.688 92.2451C162.358 94.9059 164.312 97.3233 167.053 97.6444C169.795 97.9655 172.285 96.0688 172.616 93.408L162.688 92.2451ZM174.294 79.9205C174.625 77.2598 172.672 74.8421 169.93 74.5205C167.189 74.1988 164.698 76.0951 164.366 78.7559L174.294 79.9205ZM164.002 81.6807C163.671 84.3414 165.624 86.7591 168.366 87.0808C171.107 87.4023 173.598 85.5061 173.93 82.8453L164.002 81.6807ZM175.729 68.4388C176.062 65.7782 174.11 63.3593 171.368 63.0359C168.627 62.7126 166.135 64.6073 165.802 67.2679L175.729 68.4388ZM165.415 70.3534C165.082 73.0139 167.034 75.4329 169.776 75.7562C172.517 76.0795 175.009 74.1848 175.342 71.5243L165.415 70.3534ZM164.002 81.6815L162.688 92.2451L172.616 93.408L173.93 82.8445L164.002 81.6815ZM172.616 93.408L173.93 82.8445L164.002 81.6815L162.688 92.2451L172.616 93.408ZM164.366 78.7559L164.002 81.6807L173.93 82.8453L174.294 79.9205L164.366 78.7559ZM173.93 82.8453L174.294 79.9205L164.366 78.7559L164.002 81.6807L173.93 82.8453ZM165.802 67.2679L165.415 70.3534L175.342 71.5243L175.729 68.4388L165.802 67.2679Z" fill="#FF8B17"/>
<path d="M184.818 87.1186C185.965 84.6806 184.858 81.8017 182.346 80.6884C179.834 79.5751 176.868 80.649 175.721 83.087L184.818 87.1186ZM170.257 94.7004C169.11 97.1385 170.217 100.017 172.728 101.131C175.24 102.244 178.207 101.17 179.354 98.7321L170.257 94.7004ZM192.91 69.8671C194.055 67.4284 192.947 64.5502 190.435 63.4384C187.922 62.3266 184.957 63.4023 183.811 65.8409L192.91 69.8671ZM179.76 74.4653C178.614 76.904 179.723 79.7822 182.235 80.8939C184.748 82.0058 187.713 80.9301 188.859 78.4915L179.76 74.4653ZM175.721 83.087L170.257 94.7004L179.354 98.7321L184.818 87.1186L175.721 83.087ZM179.354 98.7321L184.818 87.1186L175.721 83.087L170.257 94.7004L179.354 98.7321ZM183.811 65.8409L179.76 74.4653L188.859 78.4915L192.91 69.8671L183.811 65.8409Z" fill="#279145"/>
<path d="M220.759 77.2544C222.811 75.4607 222.976 72.3922 221.128 70.4008C219.28 68.4095 216.118 68.2493 214.066 70.0431L220.759 77.2544ZM180.245 99.6124C178.193 101.406 178.028 104.475 179.876 106.466C181.724 108.457 184.886 108.618 186.938 106.824L180.245 99.6124ZM214.066 70.0431L180.245 99.6124L186.938 106.824L220.759 77.2544L214.066 70.0431Z" fill="#5288FF"/>
<path d="M199.112 103.383C196.584 104.46 195.434 107.323 196.544 109.777C197.654 112.231 200.603 113.347 203.132 112.27L199.112 103.383ZM234.867 98.7493C237.396 97.6721 238.546 94.8093 237.436 92.3552C236.326 89.9011 233.376 88.7849 230.848 89.8622L234.867 98.7493ZM183.716 109.938C181.187 111.014 180.035 113.876 181.144 116.331C182.253 118.786 185.202 119.903 187.731 118.827L183.716 109.938ZM197.754 114.563C200.283 113.488 201.434 110.625 200.326 108.171C199.217 105.716 196.268 104.598 193.739 105.674L197.754 114.563ZM196.287 115.581C193.567 116.042 191.747 118.557 192.223 121.197C192.699 123.837 195.289 125.603 198.009 125.141L196.287 115.581ZM228.244 120.01C230.964 119.548 232.783 117.033 232.307 114.393C231.832 111.753 229.241 109.987 226.521 110.449L228.244 120.01ZM203.132 112.27L234.867 98.7493L230.848 89.8622L199.112 103.383L203.132 112.27ZM230.848 89.8622L199.112 103.383L203.132 112.27L234.867 98.7493L230.848 89.8622ZM187.731 118.827L197.754 114.563L193.739 105.674L183.716 109.938L187.731 118.827ZM193.739 105.674L183.716 109.938L187.731 118.827L197.754 114.563L193.739 105.674ZM198.009 125.141L228.244 120.01L226.521 110.449L196.287 115.581L198.009 125.141Z" fill="#FF8B17"/>
<path d="M266.568 95.6333C269.763 95.6333 272.352 93.1199 272.352 90.0194C272.352 86.9189 269.763 84.4055 266.568 84.4055C263.374 84.4055 260.784 86.9189 260.784 90.0194C260.784 93.1199 263.374 95.6333 266.568 95.6333Z" fill="#FF8B17"/>
<path d="M83.0419 108.286C86.2364 108.286 88.8261 105.772 88.8261 102.672C88.8261 99.5713 86.2364 97.0579 83.0419 97.0579C79.8474 97.0579 77.2578 99.5713 77.2578 102.672C77.2578 105.772 79.8474 108.286 83.0419 108.286Z" fill="#FF8B6A"/>
<path d="M79.3125 93.9785L79.4693 93.7985L93.0145 104.915L92.8577 105.095L79.3125 93.9785Z" fill="white"/>
<path d="M78.4844 94.9253L78.6412 94.7453L92.1863 105.862L92.0295 106.042L78.4844 94.9253Z" fill="white"/>
<path d="M77.6641 95.8788L77.8209 95.6989L91.366 106.816L91.2092 106.996L77.6641 95.8788Z" fill="white"/>
<path d="M76.8438 96.8181L77.0006 96.6381L90.5457 107.755L90.3889 107.935L76.8438 96.8181Z" fill="white"/>
<path d="M76.0176 97.765L76.1744 97.585L89.7195 108.702L89.5627 108.882L76.0176 97.765Z" fill="white"/>
<path d="M75.1953 98.7033L75.3521 98.5234L88.8973 109.64L88.7405 109.82L75.1953 98.7033Z" fill="white"/>
<path d="M74.3691 99.6502L74.5259 99.4702L88.0711 110.587L87.9143 110.767L74.3691 99.6502Z" fill="white"/>
<path d="M73.5566 100.596L73.7134 100.416L87.2586 111.533L87.1018 111.713L73.5566 100.596Z" fill="white"/>
<path d="M258.244 247.069C261.439 247.069 264.028 244.555 264.028 241.455C264.028 238.355 261.439 235.841 258.244 235.841C255.05 235.841 252.46 238.355 252.46 241.455C252.46 244.555 255.05 247.069 258.244 247.069Z" fill="#279145"/>
<path d="M253.796 250.301L267.765 239.69L267.915 239.876L253.946 250.487L253.796 250.301Z" fill="white"/>
<path d="M253.011 249.325L266.98 238.714L267.13 238.899L253.16 249.51L253.011 249.325Z" fill="white"/>
<path d="M252.226 248.349L266.195 237.738L266.344 237.924L252.375 248.535L252.226 248.349Z" fill="white"/>
<path d="M251.44 247.372L265.41 236.761L265.559 236.947L251.59 247.558L251.44 247.372Z" fill="white"/>
<path d="M250.657 246.397L264.626 235.786L264.776 235.972L250.807 246.583L250.657 246.397Z" fill="white"/>
<path d="M249.872 245.421L263.841 234.81L263.991 234.995L250.022 245.606L249.872 245.421Z" fill="white"/>
<path d="M249.079 244.452L263.048 233.841L263.198 234.027L249.229 244.638L249.079 244.452Z" fill="white"/>
<path d="M248.294 243.476L262.263 232.865L262.413 233.05L248.444 243.661L248.294 243.476Z" fill="white"/>
<path d="M98.0556 85.156C98.9578 85.156 99.6892 84.4461 99.6892 83.5704C99.6892 82.6947 98.9578 81.9848 98.0556 81.9848C97.1533 81.9848 96.4219 82.6947 96.4219 83.5704C96.4219 84.4461 97.1533 85.156 98.0556 85.156Z" fill="#FFC95F"/>
<path d="M99.4559 80.7951C100.358 80.7951 101.09 80.0852 101.09 79.2095C101.09 78.3338 100.358 77.6239 99.4559 77.6239C98.5537 77.6239 97.8223 78.3338 97.8223 79.2095C97.8223 80.0852 98.5537 80.7951 99.4559 80.7951Z" fill="#FFC95F"/>
<path d="M102.636 86.5379C103.538 86.5379 104.269 85.828 104.269 84.9523C104.269 84.0766 103.538 83.3667 102.636 83.3667C101.733 83.3667 101.002 84.0766 101.002 84.9523C101.002 85.828 101.733 86.5379 102.636 86.5379Z" fill="#FFC95F"/>
<path d="M104.038 82.177C104.94 82.177 105.672 81.4671 105.672 80.5914C105.672 79.7157 104.94 79.0058 104.038 79.0058C103.136 79.0058 102.404 79.7157 102.404 80.5914C102.404 81.4671 103.136 82.177 104.038 82.177Z" fill="#FFC95F"/>
<path d="M243.707 71.024C244.609 71.024 245.341 70.3141 245.341 69.4384C245.341 68.5627 244.609 67.8528 243.707 67.8528C242.805 67.8528 242.073 68.5627 242.073 69.4384C242.073 70.3141 242.805 71.024 243.707 71.024Z" fill="#FFC95F"/>
<path d="M248.144 69.5142C249.047 69.5142 249.778 68.8043 249.778 67.9286C249.778 67.0529 249.047 66.343 248.144 66.343C247.242 66.343 246.511 67.0529 246.511 67.9286C246.511 68.8043 247.242 69.5142 248.144 69.5142Z" fill="#FFC95F"/>
<path d="M245.297 75.4172C246.199 75.4172 246.93 74.7073 246.93 73.8316C246.93 72.9559 246.199 72.246 245.297 72.246C244.395 72.246 243.663 72.9559 243.663 73.8316C243.663 74.7073 244.395 75.4172 245.297 75.4172Z" fill="#FFC95F"/>
<path d="M249.734 73.9063C250.637 73.9063 251.368 73.1964 251.368 72.3207C251.368 71.445 250.637 70.7351 249.734 70.7351C248.832 70.7351 248.101 71.445 248.101 72.3207C248.101 73.1964 248.832 73.9063 249.734 73.9063Z" fill="#FFC95F"/>
<path d="M268.4 262.668C269.303 262.668 270.034 261.958 270.034 261.082C270.034 260.207 269.303 259.497 268.4 259.497C267.498 259.497 266.767 260.207 266.767 261.082C266.767 261.958 267.498 262.668 268.4 262.668Z" fill="#A288FF"/>
<path d="M272.838 261.157C273.74 261.157 274.471 260.447 274.471 259.572C274.471 258.696 273.74 257.986 272.838 257.986C271.936 257.986 271.204 258.696 271.204 259.572C271.204 260.447 271.936 261.157 272.838 261.157Z" fill="#A288FF"/>
<path d="M269.99 267.06C270.892 267.06 271.624 266.35 271.624 265.475C271.624 264.599 270.892 263.889 269.99 263.889C269.088 263.889 268.356 264.599 268.356 265.475C268.356 266.35 269.088 267.06 269.99 267.06Z" fill="#A288FF"/>
<path d="M274.428 265.549C275.33 265.549 276.061 264.839 276.061 263.964C276.061 263.088 275.33 262.378 274.428 262.378C273.525 262.378 272.794 263.088 272.794 263.964C272.794 264.839 273.525 265.549 274.428 265.549Z" fill="#A288FF"/>
<path d="M143.014 266.096C143.916 266.096 144.648 265.386 144.648 264.511C144.648 263.635 143.916 262.925 143.014 262.925C142.112 262.925 141.38 263.635 141.38 264.511C141.38 265.386 142.112 266.096 143.014 266.096Z" fill="#279145"/>
<path d="M146.866 268.732C147.768 268.732 148.499 268.022 148.499 267.147C148.499 266.271 147.768 265.561 146.866 265.561C145.963 265.561 145.232 266.271 145.232 267.147C145.232 268.022 145.963 268.732 146.866 268.732Z" fill="#279145"/>
<path d="M140.254 269.899C141.157 269.899 141.888 269.189 141.888 268.313C141.888 267.438 141.157 266.728 140.254 266.728C139.352 266.728 138.621 267.438 138.621 268.313C138.621 269.189 139.352 269.899 140.254 269.899Z" fill="#279145"/>
<path d="M144.096 272.535C144.998 272.535 145.73 271.825 145.73 270.949C145.73 270.073 144.998 269.364 144.096 269.364C143.194 269.364 142.462 270.073 142.462 270.949C142.462 271.825 143.194 272.535 144.096 272.535Z" fill="#279145"/>
<path d="M125.998 151.634C127.113 149.182 125.97 146.317 123.444 145.234C120.918 144.151 117.966 145.26 116.85 147.712L125.998 151.634ZM115.846 149.919C114.73 152.37 115.873 155.236 118.399 156.319C120.925 157.402 123.877 156.292 124.993 153.841L115.846 149.919ZM128.315 146.603C129.445 144.158 128.32 141.286 125.8 140.188C123.281 139.091 120.322 140.184 119.191 142.629L128.315 146.603ZM118.176 144.825C117.045 147.27 118.171 150.142 120.69 151.24C123.21 152.337 126.169 151.244 127.299 148.799L118.176 144.825ZM118.587 152.044C121.113 153.127 124.065 152.017 125.181 149.566C126.297 147.114 125.153 144.249 122.628 143.166L118.587 152.044ZM120.354 142.191C117.828 141.108 114.875 142.217 113.76 144.669C112.644 147.121 113.787 149.986 116.313 151.069L120.354 142.191ZM123.789 154.297C126.311 155.389 129.268 154.292 130.394 151.844C131.52 149.397 130.389 146.527 127.867 145.434L123.789 154.297ZM125.593 144.449C123.072 143.356 120.115 144.454 118.989 146.901C117.863 149.348 118.994 152.218 121.516 153.311L125.593 144.449ZM116.85 147.712L115.846 149.919L124.993 153.841L125.998 151.634L116.85 147.712ZM124.993 153.841L125.998 151.634L116.85 147.712L115.846 149.919L124.993 153.841ZM119.191 142.629L118.176 144.825L127.299 148.799L128.315 146.603L119.191 142.629ZM127.299 148.799L128.315 146.603L119.191 142.629L118.176 144.825L127.299 148.799ZM122.628 143.166L120.354 142.191L116.313 151.069L118.587 152.044L122.628 143.166ZM116.313 151.069L118.587 152.044L122.628 143.166L120.354 142.191L116.313 151.069ZM127.867 145.434L125.593 144.449L121.516 153.311L123.789 154.297L127.867 145.434Z" fill="white"/>
<path d="M255.422 124.764C256.538 122.313 255.395 119.447 252.869 118.364C250.343 117.281 247.391 118.391 246.275 120.842L255.422 124.764ZM245.271 123.049C244.155 125.501 245.298 128.366 247.824 129.449C250.35 130.532 253.302 129.423 254.418 126.971L245.271 123.049ZM257.743 119.715C258.869 117.267 257.738 114.398 255.217 113.305C252.695 112.212 249.739 113.31 248.613 115.757L257.743 119.715ZM247.597 117.964C246.471 120.411 247.602 123.281 250.123 124.374C252.645 125.467 255.602 124.369 256.728 121.922L247.597 117.964ZM248.012 125.175C250.538 126.258 253.49 125.148 254.606 122.696C255.721 120.245 254.578 117.38 252.052 116.297L248.012 125.175ZM249.778 115.322C247.253 114.239 244.3 115.348 243.184 117.8C242.069 120.251 243.212 123.117 245.738 124.2L249.778 115.322ZM253.233 127.424C255.759 128.507 258.711 127.398 259.827 124.946C260.943 122.495 259.799 119.629 257.274 118.546L253.233 127.424ZM255 117.571C252.474 116.488 249.521 117.598 248.406 120.05C247.29 122.501 248.433 125.366 250.959 126.449L255 117.571ZM246.275 120.842L245.271 123.049L254.418 126.971L255.422 124.764L246.275 120.842ZM254.418 126.971L255.422 124.764L246.275 120.842L245.271 123.049L254.418 126.971ZM248.613 115.757L247.597 117.964L256.728 121.922L257.743 119.715L248.613 115.757ZM256.728 121.922L257.743 119.715L248.613 115.757L247.597 117.964L256.728 121.922ZM252.052 116.297L249.778 115.322L245.738 124.2L248.012 125.175L252.052 116.297ZM245.738 124.2L248.012 125.175L252.052 116.297L249.778 115.322L245.738 124.2ZM257.274 118.546L255 117.571L250.959 126.449L253.233 127.424L257.274 118.546Z" fill="#5288FF"/>
<path d="M236.738 273.808C237.864 271.36 236.733 268.491 234.212 267.398C231.691 266.305 228.734 267.403 227.608 269.85L236.738 273.808ZM226.592 272.057C225.466 274.504 226.597 277.374 229.119 278.467C231.64 279.56 234.597 278.462 235.723 276.015L226.592 272.057ZM239.056 268.74C240.183 266.293 239.051 263.423 236.53 262.33C234.009 261.237 231.052 262.335 229.926 264.782L239.056 268.74ZM228.91 266.989C227.784 269.436 228.915 272.306 231.437 273.399C233.958 274.492 236.915 273.394 238.041 270.947L228.91 266.989ZM229.336 274.2C231.862 275.283 234.814 274.173 235.93 271.722C237.046 269.27 235.902 266.405 233.377 265.322L229.336 274.2ZM231.103 264.347C228.577 263.264 225.625 264.373 224.509 266.825C223.393 269.277 224.536 272.142 227.062 273.225L231.103 264.347ZM234.519 276.449C237.038 277.546 239.997 276.454 241.128 274.008C242.259 271.563 241.133 268.691 238.613 267.594L234.519 276.449ZM236.351 266.608C233.831 265.511 230.872 266.604 229.742 269.049C228.611 271.494 229.737 274.366 232.256 275.463L236.351 266.608ZM227.608 269.85L226.592 272.057L235.723 276.015L236.738 273.808L227.608 269.85ZM235.723 276.015L236.738 273.808L227.608 269.85L226.592 272.057L235.723 276.015ZM229.926 264.782L228.91 266.989L238.041 270.947L239.056 268.74L229.926 264.782ZM238.041 270.947L239.056 268.74L229.926 264.782L228.91 266.989L238.041 270.947ZM233.377 265.322L231.103 264.347L227.062 273.225L229.336 274.2L233.377 265.322ZM227.062 273.225L229.336 274.2L233.377 265.322L231.103 264.347L227.062 273.225ZM238.613 267.594L236.351 266.608L232.256 275.463L234.519 276.449L238.613 267.594Z" fill="#FFC95F"/>
<path d="M69.9082 70.6282L71.3101 65.0786L76.1228 68.0783L69.9082 70.6282ZM97.6035 267.5L99.9547 263.45L104.558 267.5H97.6035Z" fill="#CADDFF"/>
<path d="M115.12 179.381C136.049 151.536 140.685 112.721 125.353 82.7337C124.602 81.266 125.187 79.4661 126.699 78.7161C135.055 74.5807 150.785 76.9698 160.698 112.657C163.159 121.506 165.499 127.141 172.001 133.816C187.83 130.484 203.659 127.163 219.874 122.984C226.729 121.217 234.003 123.927 237.8 129.734C242.138 136.376 243.507 144.926 240.659 152.318C250.815 157.589 254.468 171.934 248.022 181.191C257.449 187.202 257.725 202.789 247.934 207.492C252.868 217.371 247.227 230.816 236.586 234.533C217.258 241.294 197.941 248.054 178.094 255.543C161.879 261.66 143.434 257.878 131.236 245.847C120.076 234.845 112.206 220.445 109.192 205.093C107.426 196.105 109.568 186.773 115.12 179.381Z" fill="#FF8B6A"/>
<path d="M134.216 88.2838C133.587 86.4732 132.759 84.7269 131.655 83.1413C130.607 81.5664 129.337 80.1201 127.847 78.9309C129.426 80.7629 130.629 82.8628 131.7 84.9948C132.759 87.0946 133.543 89.1516 134.117 91.6586C134.514 93.1263 134.823 94.6155 135.044 96.1154C135.21 97.0689 135.232 98.5045 134.746 99.5438C135.199 99.0295 135.618 97.6367 135.629 96.7153C135.718 93.8441 135.155 90.9944 134.216 88.2838ZM182.046 218.486C181.626 213.043 180.92 207.622 180.18 202.211C179.529 197.497 178.856 192.783 178.039 188.102C177.564 185.134 176.913 182.198 176.339 179.252C175.919 177.496 175.467 175.738 175.036 173.981C174.617 172.46 174.12 170.96 173.667 169.449C173.082 167.885 172.575 166.289 171.945 164.735C170.786 161.95 169.738 159.111 168.248 156.465C167.243 154.654 165.952 153.004 164.671 151.354C165.477 152.94 166.349 154.493 167.122 156.1C167.806 157.557 168.888 160.022 169.351 161.05C169.981 162.593 170.621 164.136 171.25 165.689C171.725 167.028 172.21 168.357 172.685 169.696C173.336 171.817 174.021 173.928 174.517 176.092C176.571 184.192 177.774 192.472 178.966 200.733C179.661 205.811 180.544 212.26 180.975 217.853C181.229 221.089 181.714 224.303 182.112 227.527C182.322 224.517 182.277 221.485 182.046 218.486ZM217.898 136.538C214.399 138.048 211.054 139.869 207.886 141.926C206.363 142.88 204.862 143.855 203.383 144.862C202.444 144.219 201.528 143.544 200.59 142.912C199.376 142.141 198.118 141.412 196.936 140.598C198.592 142.537 200.778 144.037 203.173 145.012C201.848 145.923 200.535 146.865 199.243 147.84C198.482 148.419 197.731 148.997 196.97 149.576C196.385 149.994 196.02 150.347 195.203 150.797C194.629 151.076 192.885 151.461 191.793 151.569C191.318 151.633 189.243 151.836 188.249 152.008C187.201 152.211 186.174 152.49 185.169 152.822C181.041 154.268 176.615 156.315 174.551 160.289C174.043 161.414 173.899 162.657 173.645 163.846C174.164 162.668 174.44 161.607 175.091 160.557C175.853 159.454 176.858 158.511 177.917 157.675C178.646 157.086 179.761 156.315 181.129 155.597C183.37 154.472 185.401 153.668 188.039 153.068C189.784 152.704 191.362 152.683 193.349 152.34C194.21 152.179 195.082 151.976 195.866 151.59C196.506 151.215 197.08 150.754 197.676 150.315C200.391 148.226 202.985 146.287 206.065 144.294C209.233 142.248 212.467 140.287 215.591 138.166C216.441 137.598 217.28 137.009 218.152 136.452C218.053 136.473 217.976 136.505 217.898 136.538ZM189.474 166.771C188.514 166.203 187.377 166.021 186.284 165.828C184.75 165.56 183.171 165.475 181.637 165.71C180.644 165.839 179.683 166.096 178.756 166.471C177.84 166.868 176.968 167.35 176.074 167.8C177.41 167.435 179.441 166.771 180.445 166.685C182.112 166.471 183.801 166.492 185.479 166.589C186.737 166.696 187.653 166.707 188.746 166.975C189.618 167.232 190.479 167.639 191.141 168.249C190.932 167.81 190.071 167.114 189.474 166.771ZM237.536 152.233C234.699 153.604 231.917 155.093 229.301 156.84C224.753 159.957 220.305 163.257 215.404 165.85C212.986 167.135 210.999 168.175 208.516 168.839C205.469 169.642 202.963 169.867 199.773 170.103C197.786 170.231 195.788 170.231 193.802 170.349C190.799 170.574 187.797 170.917 184.816 171.378C182.012 171.871 179.242 172.578 176.56 173.499C178.9 173.156 180.953 172.899 183.315 172.567C186.527 172.106 189.176 171.742 192.499 171.431C194.651 171.217 196.815 171.239 198.979 171.131C201.429 171.003 203.88 170.767 206.297 170.349C207.809 170.06 209.321 169.696 210.767 169.149C212.589 168.464 214.322 167.553 216.033 166.632C221.309 163.836 226.034 160.204 230.979 156.915C232.955 155.575 234.909 154.204 236.841 152.811C237.139 152.597 237.426 152.383 237.724 152.168L237.856 152.072C237.746 152.126 237.646 152.179 237.536 152.233ZM236.929 186.012C234.92 187.063 232.955 188.177 230.913 189.173C227.579 190.856 224.168 192.376 220.713 193.812C218.45 194.755 214.852 196.159 212.39 196.255C211.341 196.276 210.69 196.083 209.487 195.858C207.268 195.419 205.105 194.755 202.941 194.09C199.078 192.848 195.568 191.155 191.759 189.216C189.64 188.166 187.565 187.052 185.644 185.67C184.772 185.059 183.668 184.181 182.785 183.109C182.653 182.938 182.52 182.755 182.388 182.584C182.001 182.017 181.659 181.417 181.383 180.784C181.262 180.452 181.151 180.152 181.074 179.874C181.648 179.777 182.222 179.68 182.807 179.68C184.86 179.68 186.748 180.12 188.823 180.828C190.093 181.256 192.234 182.22 193.15 182.906C193.614 183.248 194.033 183.634 194.431 184.041C195.049 184.684 195.347 185.006 195.755 185.842C196.142 186.773 196.484 188.016 196.594 188.98L196.627 189.366C196.782 188.338 196.66 187.298 196.484 186.28C196.318 185.295 195.855 184.394 195.203 183.624C194.751 183.056 194.243 182.52 193.658 182.07C192.609 181.277 191.362 180.784 190.148 180.26C187.885 179.348 185.368 178.92 182.929 179.22C182.277 179.295 181.648 179.499 181.03 179.724C180.787 178.845 180.787 178.128 181.174 176.863C181.361 176.231 181.549 175.556 182.012 175.063C182.697 174.41 183.602 174.003 184.54 173.81C183.922 173.821 183.326 173.917 182.752 174.142C182.068 174.367 181.438 174.774 181.063 175.385C180.423 176.435 179.948 177.645 179.904 178.867C180.026 180.763 180.997 182.52 182.211 183.977C183.271 185.187 184.595 186.163 185.931 187.052C187.885 188.402 190.026 189.43 192.135 190.501C194.839 191.873 197.588 193.159 200.424 194.252C202.202 194.915 204.023 195.462 205.855 195.966C207.092 196.308 208.328 196.629 209.597 196.865C210.447 197.037 211.297 197.219 212.158 197.219C213.097 197.229 214.013 197.048 214.918 196.833C216.463 196.469 217.942 195.944 219.422 195.376C226.961 192.355 234.291 188.819 241.201 184.609C242.338 183.924 243.453 183.216 244.612 182.563C241.962 183.516 239.424 184.738 236.929 186.012ZM193.746 212.796C194.464 212.218 194.707 211.982 195.579 211.522C196.252 211.178 197.676 210.9 198.824 210.739C199.288 210.675 201.297 210.45 202.29 210.472C204.001 210.461 205.701 210.568 207.401 210.697C208.273 210.761 209.068 210.846 209.851 210.943C212.434 211.864 215.05 212.7 217.667 213.536C218.98 213.91 220.283 214.457 221.673 214.446C224.72 214.35 227.733 213.729 230.659 212.925C235.107 211.65 239.545 210.321 243.916 208.832C244.821 208.532 245.726 208.222 246.632 207.911C246.554 207.922 246.477 207.933 246.389 207.943C243.177 208.415 239.998 209.1 236.896 210.043C233.032 211.201 228.142 212.775 224.621 213.204C222.998 213.396 221.408 213.632 220.139 213.246C216.717 212.239 213.328 211.125 209.973 209.936C208.35 209.336 207.29 208.822 205.469 208.125C201.727 206.679 198.129 205.854 194.839 203.99C194.033 203.54 193.272 203.004 192.532 202.447C191.682 201.794 190.854 201.097 190.137 200.315C189.706 199.876 189.408 199.33 189.022 198.547C189.044 198.59 189.055 198.622 189.077 198.666C188.757 198.011 188.768 196.994 188.823 196.748C188.934 195.869 189.474 195.173 189.927 194.594C190.887 193.427 192.444 192.655 193.989 192.762C192.378 192.334 190.578 192.955 189.419 194.08C188.382 195.034 187.631 196.351 187.819 197.776C187.863 198.376 188.062 198.955 188.36 199.479C189.011 200.797 190.148 201.794 191.285 202.736C192.83 203.969 194.497 205.062 196.329 205.854C199.122 207.076 202.08 207.901 204.939 208.983C205.855 209.325 206.54 209.604 207.235 209.904C204.012 209.336 200.822 209.315 197.268 209.989C196.671 210.129 196.053 210.236 195.479 210.472C194.74 210.761 194.1 211.222 193.492 211.714C192.433 212.55 191.406 213.44 190.622 214.531C188.79 216.953 188.161 219.953 190.622 222.203C191.384 222.974 192.3 223.585 193.283 224.067C194.519 224.731 195.844 225.214 197.179 225.642C198.934 226.22 200.723 226.745 202.511 227.206C205.215 227.902 207.864 228.771 210.58 229.456C213.328 230.141 216.11 230.677 218.936 230.966C220.647 231.159 222.38 231.32 224.102 231.255C226.685 231.138 229.202 230.517 231.73 230.045C235.008 229.402 238.176 228.352 241.256 227.099C241.002 227.142 240.759 227.195 240.505 227.249C238.11 227.742 235.726 228.235 233.33 228.706C231.708 229.039 230.085 229.37 228.462 229.67C226.95 229.938 225.989 230.141 224.654 230.238C223.108 230.345 221.563 230.238 220.029 230.088C218.285 229.906 217.247 229.788 215.558 229.499C211.573 228.835 207.721 227.613 203.846 226.52C201.727 225.974 199.608 225.395 197.532 224.699C195.656 224.131 193.47 223.167 192.212 222.246C191.307 221.485 190.744 221.014 190.313 220.125C189.497 218.25 190.424 216.311 191.815 214.586C192.4 213.942 193.062 213.364 193.746 212.796Z" fill="#2E2E2E"/>
<path d="M202.114 199.715C201.86 199.115 201.54 198.537 201.098 198.044C200.756 197.669 200.348 197.358 199.939 197.048C198.858 196.287 197.666 195.676 196.407 195.269C195.767 195.066 195.094 194.959 194.431 194.884C193.67 194.787 192.897 194.787 192.146 194.969C191.517 195.119 190.844 195.301 190.402 195.794C190.767 195.526 191.219 195.43 191.672 195.376C192.146 195.323 192.632 195.301 193.118 195.344C194.763 195.569 196.198 196.051 197.566 196.769C198.979 197.498 200.26 198.076 201.154 199.169C201.717 199.897 202.346 200.905 202.489 201.912C202.511 201.987 202.5 202.265 202.522 202.051C202.633 201.258 202.401 200.455 202.114 199.715ZM206.154 222.053C205.194 219.729 203.152 217.992 200.911 216.857C199.299 216 197.467 215.646 195.635 215.668C194.52 215.689 192.643 215.807 191.881 216.664C192.831 215.936 194.906 216.203 195.69 216.278C197.644 216.514 199.078 216.964 200.624 217.832C202.434 218.817 203.836 219.835 205.094 221.389C205.867 222.417 206.408 223.542 206.651 224.785L206.684 225.01V224.924C206.739 223.939 206.507 222.963 206.154 222.053ZM173.458 134.984C171.946 134.074 170.997 133.345 169.705 132.049C168.646 131.009 168.061 130.131 167.244 128.749C165.996 126.521 164.65 123.885 163.811 121.935C162.254 118.239 160.996 114.425 159.958 110.568C160.124 112.872 160.444 115.164 161.084 117.393C161.857 120.157 163.027 122.814 164.319 125.385C165.356 127.388 166.328 129.445 167.685 131.267C168.259 132.038 168.944 132.724 169.65 133.388C170.434 134.116 171.273 134.802 172.2 135.348C174.871 136.881 177.101 137.48 180.192 136.816C177.41 136.87 175.765 136.345 173.458 134.984Z" fill="#2E2E2E"/>
<path d="M130.608 97.9796C131.514 99.126 133.368 98.8689 133.909 97.5189C134.505 96.0404 134.737 93.4478 132.938 89.1731C129.615 81.2987 127.915 80.0773 126.789 79.8202C126.281 79.7023 125.685 80.1202 125.189 80.613C124.46 81.3201 124.195 82.3593 124.482 83.3235C125.465 86.5911 128.125 94.8191 130.608 97.9796ZM177.488 172.535C175.877 172.717 174.453 171.41 174.63 169.835C174.729 168.989 175.248 168.185 176.672 167.778C180.458 166.685 190.602 166.332 191.154 169.728C191.154 169.728 191.64 171.067 186.518 171.571C183.251 171.903 179.663 172.289 177.488 172.535ZM180.171 182.273C180.546 180.634 182.478 179.617 184.608 179.927C187.213 180.302 190.039 181.535 192.335 182.82C197.369 185.637 196.784 189.484 194.896 189.902C192.17 190.512 185.867 187.18 181.882 185.188C180.601 184.555 179.906 183.377 180.171 182.273ZM191.154 202.522C190.392 201.997 189.752 201.333 189.3 200.54C188.825 199.694 188.505 198.601 189.145 197.668C190.414 195.794 192.986 195.665 195.249 196.619C197.512 197.572 202.413 199.618 201.663 202.769C200.912 205.918 199.344 206.079 196.596 205.318C194.62 204.772 192.302 203.304 191.154 202.522ZM193.814 223.799C192.07 223.188 190.724 221.978 190.205 220.488C189.829 219.418 189.918 218.26 191.408 217.543C194.797 215.882 199.709 217.896 200.559 218.464C201.398 219.032 207.005 222.16 205.548 225.053C204.444 227.206 197.302 225.021 193.814 223.799Z" fill="#FFC95F"/>
<path d="M90.0095 243.301C87.6687 247.556 89.3258 252.848 93.7106 255.12C98.0955 257.392 103.548 255.784 105.888 251.528L90.0095 243.301ZM125.534 239.368L120.425 232.177L120.418 232.182L125.534 239.368ZM133.945 229.865L127.679 223.596L127.674 223.6L133.945 229.865ZM146.562 224.991L145.96 216.275L145.959 216.275L146.562 224.991ZM158.809 234.82C163.708 235.64 168.363 232.45 169.207 227.696C170.051 222.941 166.765 218.423 161.866 217.604L158.809 234.82ZM105.888 251.528C105.708 251.857 105.593 251.635 106.604 251.274C107.671 250.892 109.26 250.64 111.218 250.598L110.819 233.132C107.788 233.197 104.017 233.582 100.385 234.879C96.6967 236.197 92.5416 238.697 90.0095 243.301L105.888 251.528ZM111.218 250.598C113.119 250.557 116.579 250.614 119.593 250.291C122.851 249.943 126.888 249.078 130.65 246.555L120.418 232.182C120.074 232.412 119.348 232.742 117.622 232.926C115.652 233.137 113.907 233.065 110.819 233.132L111.218 250.598ZM130.642 246.56C133.805 244.444 135.899 241.697 137.213 239.926C138.794 237.795 139.397 236.904 140.216 236.131L127.674 223.6C125.392 225.752 123.566 228.423 122.606 229.717C121.378 231.373 120.817 231.915 120.425 232.177L130.642 246.56ZM140.212 236.135C141.509 234.914 143.88 233.92 147.165 233.706L145.959 216.275C140.038 216.661 133.027 218.56 127.679 223.596L140.212 236.135ZM147.164 233.706C150.532 233.487 154.094 234.032 158.809 234.82L161.866 217.604C157.486 216.871 151.82 215.894 145.96 216.275L147.164 233.706Z" fill="#5564D7"/>
<path d="M92.1176 258.27C89.5823 262.419 90.9929 267.778 95.2682 270.239C99.5436 272.699 105.065 271.33 107.6 267.181L92.1176 258.27ZM132.61 254.947L126.96 248.147L126.95 248.155L132.61 254.947ZM142.368 242.723L147.572 249.849L147.574 249.848L142.368 242.723ZM173.967 244.087C177.632 240.828 177.882 235.303 174.525 231.745C171.168 228.188 165.475 227.945 161.81 231.203L173.967 244.087ZM107.6 267.181C107.605 267.173 107.606 267.172 107.612 267.166C107.62 267.158 107.655 267.123 107.741 267.068C107.924 266.951 108.315 266.752 109.022 266.568C110.522 266.175 112.621 266.051 115.08 266.204L116.23 248.769C112.827 248.558 108.523 248.605 104.339 249.699C100.087 250.811 95.1966 253.23 92.1176 258.27L107.6 267.181ZM115.08 266.204C117.664 266.364 121.593 266.7 125.354 266.401C129.273 266.09 134.056 265.046 138.269 261.739L126.95 248.155C126.604 248.427 125.84 248.834 123.887 248.989C121.775 249.157 119.507 248.973 116.23 248.769L115.08 266.204ZM138.259 261.747C141.874 258.918 144.034 255.051 145.177 253.158C146.679 250.674 147.205 250.102 147.572 249.849L137.163 235.597C133.17 238.344 130.898 242.256 129.651 244.319C128.046 246.975 127.507 247.719 126.96 248.147L138.259 261.747ZM147.574 249.848C147.74 249.734 148.212 249.471 149.549 249.318C151.022 249.149 152.664 249.185 155.223 249.231C159.167 249.301 167.618 249.73 173.967 244.087L161.81 231.203C161.602 231.388 160.919 231.859 155.554 231.764C153.459 231.726 150.404 231.628 147.436 231.968C144.332 232.324 140.622 233.216 137.161 235.598L147.574 249.848Z" fill="#FFC95F"/>
<path d="M75.206 242.045C78.943 242.045 81.9725 239.104 81.9725 235.477C81.9725 231.85 78.943 228.91 75.206 228.91C71.4689 228.91 68.4395 231.85 68.4395 235.477C68.4395 239.104 71.4689 242.045 75.206 242.045Z" fill="#A288FF"/>
</svg>
