<svg width="32" height="32" viewBox="0 0 32 32" fill="none" xmlns="http://www.w3.org/2000/svg">
<path fill-rule="evenodd" clip-rule="evenodd" d="M13.332 16C13.332 14.5272 14.5259 13.3333 15.9987 13.3333C17.4715 13.3333 18.6654 14.5272 18.6654 16C18.6654 17.4727 17.4715 18.6666 15.9987 18.6666C14.5259 18.6666 13.332 17.4727 13.332 16Z" fill="#828FA2"/>
<path fill-rule="evenodd" clip-rule="evenodd" d="M22.668 16C22.668 14.5272 23.8619 13.3333 25.3346 13.3333C26.8074 13.3333 28.0013 14.5272 28.0013 16C28.0013 17.4727 26.8074 18.6666 25.3346 18.6666C23.8619 18.6666 22.668 17.4727 22.668 16Z" fill="#828FA2"/>
<path fill-rule="evenodd" clip-rule="evenodd" d="M4 16C4 14.5272 5.19391 13.3333 6.66667 13.3333C8.13943 13.3333 9.33333 14.5272 9.33333 16C9.33333 17.4727 8.13943 18.6666 6.66667 18.6666C5.19391 18.6666 4 17.4727 4 16Z" fill="#828FA2"/>
</svg>
