<svg width="32" height="32" viewBox="0 0 32 32" fill="none" xmlns="http://www.w3.org/2000/svg">
<path fill-rule="evenodd" clip-rule="evenodd" d="M14.668 5.33333C9.51331 5.33333 5.33464 9.512 5.33464 14.6667C5.33464 19.8214 9.51331 24 14.668 24C19.8227 24 24.0013 19.8214 24.0013 14.6667C24.0013 9.512 19.8227 5.33333 14.668 5.33333ZM2.66797 14.6667C2.66797 8.03924 8.04055 2.66666 14.668 2.66666C21.2954 2.66666 26.668 8.03924 26.668 14.6667C26.668 21.2941 21.2954 26.6667 14.668 26.6667C8.04055 26.6667 2.66797 21.2941 2.66797 14.6667Z" fill="#828FA2"/>
<path fill-rule="evenodd" clip-rule="evenodd" d="M21.2577 21.2572C21.7784 20.7365 22.6226 20.7365 23.1433 21.2572L28.9433 27.0572C29.464 27.5779 29.464 28.4221 28.9433 28.9428C28.4226 29.4635 27.5784 29.4635 27.0577 28.9428L21.2577 23.1428C20.737 22.6221 20.737 21.7779 21.2577 21.2572Z" fill="#828FA2"/>
</svg>
