<svg width="20" height="20" viewBox="0 0 20 20" fill="none" xmlns="http://www.w3.org/2000/svg">
<path fill-rule="evenodd" clip-rule="evenodd" d="M1.66797 2.5C1.66797 2.03976 2.04106 1.66666 2.5013 1.66666H8.33464C8.79487 1.66666 9.16797 2.03976 9.16797 2.5V8.33333C9.16797 8.79356 8.79487 9.16666 8.33464 9.16666H2.5013C2.04106 9.16666 1.66797 8.79356 1.66797 8.33333V2.5ZM3.33464 3.33333V7.49999H7.5013V3.33333H3.33464ZM3.33464 7.49999V3.33333H7.5013V7.49999H3.33464Z" fill="#FF8B6A"/>
<path d="M1.66797 2.5C1.66797 2.03976 2.04106 1.66666 2.5013 1.66666H8.33464C8.79487 1.66666 9.16797 2.03976 9.16797 2.5V8.33333C9.16797 8.79356 8.79487 9.16666 8.33464 9.16666H2.5013C2.04106 9.16666 1.66797 8.79356 1.66797 8.33333V2.5ZM3.33464 3.33333V7.49999H7.5013V3.33333H3.33464ZM3.33464 7.49999V3.33333H7.5013V7.49999H3.33464Z" fill="#FF8B6A"/>
<path fill-rule="evenodd" clip-rule="evenodd" d="M10.832 2.5C10.832 2.03976 11.2051 1.66666 11.6654 1.66666H17.4987C17.9589 1.66666 18.332 2.03976 18.332 2.5V8.33333C18.332 8.79356 17.9589 9.16666 17.4987 9.16666H11.6654C11.2051 9.16666 10.832 8.79356 10.832 8.33333V2.5ZM12.4987 3.33333V7.49999H16.6654V3.33333H12.4987ZM12.4987 7.49999V3.33333H16.6654V7.49999H12.4987Z" fill="#FF8B6A"/>
<path d="M10.832 2.5C10.832 2.03976 11.2051 1.66666 11.6654 1.66666H17.4987C17.9589 1.66666 18.332 2.03976 18.332 2.5V8.33333C18.332 8.79356 17.9589 9.16666 17.4987 9.16666H11.6654C11.2051 9.16666 10.832 8.79356 10.832 8.33333V2.5ZM12.4987 3.33333V7.49999H16.6654V3.33333H12.4987ZM12.4987 7.49999V3.33333H16.6654V7.49999H12.4987Z" fill="#FF8B6A"/>
<path fill-rule="evenodd" clip-rule="evenodd" d="M10.832 11.6667C10.832 11.2064 11.2051 10.8333 11.6654 10.8333H17.4987C17.9589 10.8333 18.332 11.2064 18.332 11.6667V17.5C18.332 17.9602 17.9589 18.3333 17.4987 18.3333H11.6654C11.2051 18.3333 10.832 17.9602 10.832 17.5V11.6667ZM12.4987 12.5V16.6667H16.6654V12.5H12.4987ZM12.4987 16.6667V12.5H16.6654V16.6667H12.4987Z" fill="#FF8B6A"/>
<path d="M10.832 11.6667C10.832 11.2064 11.2051 10.8333 11.6654 10.8333H17.4987C17.9589 10.8333 18.332 11.2064 18.332 11.6667V17.5C18.332 17.9602 17.9589 18.3333 17.4987 18.3333H11.6654C11.2051 18.3333 10.832 17.9602 10.832 17.5V11.6667ZM12.4987 12.5V16.6667H16.6654V12.5H12.4987ZM12.4987 16.6667V12.5H16.6654V16.6667H12.4987Z" fill="#FF8B6A"/>
<path fill-rule="evenodd" clip-rule="evenodd" d="M1.66797 11.6667C1.66797 11.2064 2.04106 10.8333 2.5013 10.8333H8.33464C8.79487 10.8333 9.16797 11.2064 9.16797 11.6667V17.5C9.16797 17.9602 8.79487 18.3333 8.33464 18.3333H2.5013C2.04106 18.3333 1.66797 17.9602 1.66797 17.5V11.6667ZM3.33464 12.5V16.6667H7.5013V12.5H3.33464ZM3.33464 16.6667V12.5H7.5013V16.6667H3.33464Z" fill="#FF8B6A"/>
<path d="M1.66797 11.6667C1.66797 11.2064 2.04106 10.8333 2.5013 10.8333H8.33464C8.79487 10.8333 9.16797 11.2064 9.16797 11.6667V17.5C9.16797 17.9602 8.79487 18.3333 8.33464 18.3333H2.5013C2.04106 18.3333 1.66797 17.9602 1.66797 17.5V11.6667ZM3.33464 12.5V16.6667H7.5013V12.5H3.33464ZM3.33464 16.6667V12.5H7.5013V16.6667H3.33464Z" fill="#FF8B6A"/>
</svg>
