<svg width="12" height="12" viewBox="0 0 12 12" fill="none" xmlns="http://www.w3.org/2000/svg">
<path fill-rule="evenodd" clip-rule="evenodd" d="M6.6991 0.541347C6.90271 0.629731 7.02368 0.841765 6.99614 1.06201L6.5664 4.5H10.5C10.694 4.5 10.8705 4.61223 10.9528 4.78792C11.0351 4.96361 11.0083 5.17105 10.8841 5.32009L5.88412 11.3201C5.74202 11.4906 5.50452 11.5471 5.30091 11.4587C5.0973 11.3703 4.97634 11.1583 5.00387 10.938L5.43361 7.5H1.50001C1.306 7.5 1.1295 7.38777 1.04721 7.21208C0.964922 7.03638 0.991694 6.82895 1.1159 6.67991L6.1159 0.679905C6.25799 0.509388 6.49549 0.452962 6.6991 0.541347ZM2.56753 6.5H6.00001C6.14342 6.5 6.27993 6.56158 6.37485 6.6691C6.46976 6.77661 6.51393 6.91971 6.49614 7.06202L6.20768 9.36977L9.43248 5.5H6.00001C5.85659 5.5 5.72008 5.43841 5.62517 5.3309C5.53025 5.22338 5.48608 5.08029 5.50387 4.93798L5.79234 2.63023L2.56753 6.5Z" fill="#E04343"/>
</svg>
