<svg width="20" height="20" viewBox="0 0 20 20" fill="none" xmlns="http://www.w3.org/2000/svg">
<g clip-path="url(#clip0_1_3153)">
<path d="M13.3329 19.1667C12.8329 19.1667 12.4996 18.8333 12.4996 18.3333V15.0833C12.5829 14.4167 12.3329 13.9167 11.9163 13.5C11.6663 13.25 11.5829 12.9167 11.7496 12.6667C11.8329 12.3333 12.1663 12.1667 12.4163 12.0833C14.8329 11.8333 17.0829 11 17.0829 7.08331C17.0829 6.16664 16.7496 5.24997 16.0829 4.49997C15.8329 4.24997 15.8329 3.91664 15.9163 3.66664C16.1663 2.99997 16.1663 2.33331 15.9996 1.66664C15.5829 1.74997 14.9163 1.99997 13.8329 2.74997C13.6663 2.91664 13.4163 2.91664 13.1663 2.83331C11.4163 2.33331 9.49956 2.33331 7.74956 2.83331C7.49956 2.91664 7.24956 2.91664 6.99956 2.74997C5.99956 1.99997 5.24956 1.74997 4.83289 1.66664C4.66622 2.33331 4.66622 2.99997 4.91622 3.66664C4.99956 3.99997 4.99956 4.33331 4.74956 4.49997C4.08289 5.24997 3.74956 6.16664 3.74956 7.08331C3.74956 11 5.99956 11.8333 8.41622 12.0833C8.74956 12.0833 8.99956 12.3333 9.08289 12.6667C9.16622 13 9.08289 13.3333 8.91622 13.5C8.49956 13.9167 8.33289 14.4167 8.33289 15V15.75V15.8333V18.25C8.33289 18.75 7.99956 19.0833 7.49956 19.0833C6.99956 19.0833 6.66622 18.75 6.66622 18.25V16.8333C4.16622 17.25 3.08289 15.8333 2.33289 14.9167C1.99956 14.5 1.74956 14.1667 1.41623 14.0833C0.99956 14 0.666226 13.5 0.832893 13.0833C0.916226 12.6667 1.41623 12.3333 1.83289 12.5C2.66622 12.75 3.16622 13.3333 3.66622 13.9167C4.33289 14.8333 4.91622 15.5 6.66622 15.1667V15.0833C6.66622 14.5833 6.74956 14 6.91622 13.5833C4.58289 13.0833 2.08289 11.5833 2.08289 7.16664C2.08289 5.91664 2.49956 4.74997 3.24956 3.83331C2.91622 2.66664 2.99956 1.58331 3.49956 0.499974C3.58289 0.249974 3.74956 0.0833085 3.99956 -2.53096e-05C4.33289 -0.0833586 5.41622 -0.250026 7.66622 1.16664C9.49956 0.749974 11.4163 0.749974 13.1663 1.16664C15.3329 -0.250026 16.4996 -0.0833586 16.8329 -2.53096e-05C17.0829 0.0833085 17.2496 0.249974 17.3329 0.499974C17.7496 1.58331 17.8329 2.66664 17.5829 3.74997C18.3329 4.66664 18.7496 5.83331 18.7496 7.08331C18.7496 11.8333 15.9163 13.0833 13.9163 13.5833C14.0829 14.0833 14.1663 14.6667 14.1663 15.1667V18.3333C14.1663 18.8333 13.8329 19.1667 13.3329 19.1667Z" fill="#2D2D2D"/>
</g>
<defs>
<clipPath id="clip0_1_3153">
<rect width="20" height="20" fill="white"/>
</clipPath>
</defs>
</svg>
