<svg width="450" height="206" viewBox="0 0 450 206" fill="none" xmlns="http://www.w3.org/2000/svg">
<path d="M0 177.5C0 175.015 2.01472 173 4.5 173C6.98528 173 9 175.015 9 177.5V206H0V177.5Z" fill="#5564D7"/>
<path d="M9 133.5C9 131.015 11.0147 129 13.5 129C15.9853 129 18 131.015 18 133.5V206H9V133.5Z" fill="#FFC95F"/>
<path d="M72 161.5C72 159.015 74.0147 157 76.5 157C78.9853 157 81 159.015 81 161.5V206H72V161.5Z" fill="#5564D7"/>
<path d="M81 202.5C81 200.015 83.0147 198 85.5 198C87.9853 198 90 200.015 90 202.5V206H81V202.5Z" fill="#FFC95F"/>
<path d="M144 152.5C144 150.015 146.015 148 148.5 148C150.985 148 153 150.015 153 152.5V206H144V152.5Z" fill="#5564D7"/>
<path d="M153 152.5C153 150.015 155.015 148 157.5 148C159.985 148 162 150.015 162 152.5V206H153V152.5Z" fill="#FFC95F"/>
<path d="M216 4.50001C216 2.01472 218.015 0 220.5 0C222.985 0 225 2.01472 225 4.5V206H216V4.50001Z" fill="#5564D7"/>
<path d="M225 175.5C225 173.015 227.015 171 229.5 171C231.985 171 234 173.015 234 175.5V206H225V175.5Z" fill="#FFC95F"/>
<path d="M288 119.5C288 117.015 290.015 115 292.5 115C294.985 115 297 117.015 297 119.5V206H288V119.5Z" fill="#5564D7"/>
<path d="M297 133.5C297 131.015 299.015 129 301.5 129C303.985 129 306 131.015 306 133.5V206H297V133.5Z" fill="#FFC95F"/>
<path d="M360 111.5C360 109.015 362.015 107 364.5 107C366.985 107 369 109.015 369 111.5V206H360V111.5Z" fill="#5564D7"/>
<path d="M369 165.5C369 163.015 371.015 161 373.5 161C375.985 161 378 163.015 378 165.5V206H369V165.5Z" fill="#FFC95F"/>
<path d="M432 146.5C432 144.015 434.015 142 436.5 142C438.985 142 441 144.015 441 146.5V206H432V146.5Z" fill="#5564D7"/>
<path d="M441 133.5C441 131.015 443.015 129 445.5 129C447.985 129 450 131.015 450 133.5V206H441V133.5Z" fill="#FFC95F"/>
</svg>
