<svg width="344" height="139" viewBox="0 0 344 139" fill="none" xmlns="http://www.w3.org/2000/svg">
<path d="M0 85C0 82.7909 1.79086 81 4 81C6.20914 81 8 82.7909 8 85V139H0V85Z" fill="#5564D7"/>
<path d="M56 48C56 45.7909 57.7909 44 60 44C62.2091 44 64 45.7909 64 48V139H56V48Z" fill="#5564D7"/>
<path d="M112 66C112 63.7909 113.791 62 116 62C118.209 62 120 63.7909 120 66V139H112V66Z" fill="#5564D7"/>
<path d="M168 4C168 1.79086 169.791 0 172 0C174.209 0 176 1.79086 176 4V139H168V4Z" fill="#FFC95F"/>
<path d="M224 66C224 63.7909 225.791 62 228 62C230.209 62 232 63.7909 232 66V139H224V66Z" fill="#5564D7"/>
<path d="M280 103C280 100.791 281.791 99 284 99C286.209 99 288 100.791 288 103V139H280V103Z" fill="#5564D7"/>
<path d="M336 66C336 63.7909 337.791 62 340 62C342.209 62 344 63.7909 344 66V139H336V66Z" fill="#5564D7"/>
</svg>
