<svg width="40" height="12" viewBox="0 0 40 12" fill="none" xmlns="http://www.w3.org/2000/svg">
<path d="M14.0938 11.1658H17.3305L19.3572 0.190796H16.1184L14.0938 11.1658Z" fill="white"/>
<path d="M25.8871 4.59729C24.7547 4.08942 24.0617 3.75052 24.0689 3.23698C24.0689 2.78103 24.6555 2.29298 25.9239 2.29298C26.9612 2.27788 27.7973 2.47329 28.6384 2.8405L29.0779 0.461617C28.435 0.238833 27.4293 0 26.1743 0C22.9743 0 20.7197 1.48869 20.7013 3.62214C20.6829 5.19862 22.311 6.07843 23.5395 6.6033C24.7996 7.14138 25.2238 7.48405 25.2177 7.96455C25.2095 8.69993 24.211 9.03599 23.2799 9.03599C21.8429 9.03599 21.1183 8.83115 19.8142 8.28551L19.3594 10.7428C20.1157 11.0486 21.5148 11.3148 22.9671 11.328C26.3715 11.328 28.5812 9.85633 28.6067 7.57845C28.618 6.33048 27.7554 5.37987 25.8871 4.59729Z" fill="white"/>
<path d="M37.3793 0.200928H34.8763C34.1006 0.200928 33.5211 0.396337 33.1808 1.11095L28.3711 11.1684H31.7714C31.7714 11.1684 32.3274 9.81559 32.4531 9.51918C32.8251 9.51918 36.1283 9.5239 36.6005 9.5239C36.6976 9.90811 36.995 11.1684 36.995 11.1684H39.9998L37.3793 0.200928ZM33.3852 7.27434C33.5191 6.9581 34.8416 3.82307 35.1053 3.15943C35.5427 5.05121 35.1165 3.21607 36.0741 7.27434H33.3852Z" fill="white"/>
<path d="M11.3752 0.199268L8.20486 7.68332L7.86657 6.16253L6.7311 1.11967C6.53487 0.424885 5.96662 0.217204 5.26346 0.193604H0.0408812L0 0.422053C1.27038 0.706198 2.40586 1.11589 3.40132 1.62566L6.28038 11.1573L9.70725 11.1535L14.8062 0.200212H11.3752V0.199268Z" fill="white"/>
</svg>
