<svg width="528" height="227" viewBox="0 0 528 227" fill="none" xmlns="http://www.w3.org/2000/svg">
<path opacity="0.15" d="M2 1H3.99242V0H2V1ZM7.97727 1H11.9621V0H7.97727V1ZM15.947 1H19.9318V0H15.947V1ZM23.9167 1H27.9015V0H23.9167V1ZM31.8864 1H35.8712V0H31.8864V1ZM39.8561 1H43.8409V0H39.8561V1ZM47.8258 1H51.8106V0H47.8258V1ZM55.7955 1H59.7803V0H55.7955V1ZM63.7651 1H67.75V0H63.7651V1ZM71.7348 1H75.7197V0H71.7348V1ZM79.7045 1H83.6894V0H79.7045V1ZM87.6742 1H91.6591V0H87.6742V1ZM95.6439 1H99.6288V0H95.6439V1ZM103.614 1H107.598V0H103.614V1ZM111.583 1H115.568V0H111.583V1ZM119.553 1H123.538V0H119.553V1ZM127.523 1H131.508V0H127.523V1ZM135.492 1H139.477V0H135.492V1ZM143.462 1H147.447V0H143.462V1ZM151.432 1H155.417V0H151.432V1ZM159.402 1H163.386V0H159.402V1ZM167.371 1H171.356V0H167.371V1ZM175.341 1H179.326V0H175.341V1ZM183.311 1H187.295V0H183.311V1ZM191.28 1H195.265V0H191.28V1ZM199.25 1H203.235V0H199.25V1ZM207.22 1H211.205V0H207.22V1ZM215.189 1H219.174V0H215.189V1ZM223.159 1H227.144V0H223.159V1ZM231.129 1H235.114V0H231.129V1ZM239.098 1H243.083V0H239.098V1ZM247.068 1H251.053V0H247.068V1ZM255.038 1H259.023V0H255.038V1ZM263.008 1H266.992V0H263.008V1ZM270.977 1H274.962V0H270.977V1ZM278.947 1H282.932V0H278.947V1ZM286.917 1H290.902V0H286.917V1ZM294.886 1H298.871V0H294.886V1ZM302.856 1H306.841V0H302.856V1ZM310.826 1H314.811V0H310.826V1ZM318.796 1H322.781V0H318.796V1ZM326.765 1H330.75V0H326.765V1ZM334.735 1H338.72V0H334.735V1ZM342.705 1H346.69V0H342.705V1ZM350.675 1H354.659V0H350.675V1ZM358.644 1H362.629V0H358.644V1ZM366.614 1H370.599V0H366.614V1ZM374.584 1H378.569V0H374.584V1ZM382.553 1H386.538V0H382.553V1ZM390.523 1H394.508V0H390.523V1ZM398.493 1H402.478V0H398.493V1ZM406.463 1H410.448V0H406.463V1ZM414.432 1H418.417V0H414.432V1ZM422.402 1H426.387V0H422.402V1ZM430.372 1H434.357V0H430.372V1ZM438.342 1H442.326V0H438.342V1ZM446.311 1H450.296V0H446.311V1ZM454.281 1H458.266V0H454.281V1ZM462.251 1H466.236V0H462.251V1ZM470.22 1H474.205V0H470.22V1ZM478.19 1H482.175V0H478.19V1ZM486.16 1H490.145V0H486.16V1ZM494.13 1H498.115V0H494.13V1ZM502.099 1H506.084V0H502.099V1ZM510.069 1H514.054V0H510.069V1ZM518.039 1H522.024V0H518.039V1ZM526.009 1H528V0H526.009V1Z" fill="#2D2D2D"/>
<path opacity="0.15" d="M2 33.2857H3.99242V32.2857H2V33.2857ZM7.97727 33.2857H11.9621V32.2857H7.97727V33.2857ZM15.947 33.2857H19.9318V32.2857H15.947V33.2857ZM23.9167 33.2857H27.9015V32.2857H23.9167V33.2857ZM31.8864 33.2857H35.8712V32.2857H31.8864V33.2857ZM39.8561 33.2857H43.8409V32.2857H39.8561V33.2857ZM47.8258 33.2857H51.8106V32.2857H47.8258V33.2857ZM55.7955 33.2857H59.7803V32.2857H55.7955V33.2857ZM63.7651 33.2857H67.75V32.2857H63.7651V33.2857ZM71.7348 33.2857H75.7197V32.2857H71.7348V33.2857ZM79.7045 33.2857H83.6894V32.2857H79.7045V33.2857ZM87.6742 33.2857H91.6591V32.2857H87.6742V33.2857ZM95.6439 33.2857H99.6288V32.2857H95.6439V33.2857ZM103.614 33.2857H107.598V32.2857H103.614V33.2857ZM111.583 33.2857H115.568V32.2857H111.583V33.2857ZM119.553 33.2857H123.538V32.2857H119.553V33.2857ZM127.523 33.2857H131.508V32.2857H127.523V33.2857ZM135.492 33.2857H139.477V32.2857H135.492V33.2857ZM143.462 33.2857H147.447V32.2857H143.462V33.2857ZM151.432 33.2857H155.417V32.2857H151.432V33.2857ZM159.402 33.2857H163.386V32.2857H159.402V33.2857ZM167.371 33.2857H171.356V32.2857H167.371V33.2857ZM175.341 33.2857H179.326V32.2857H175.341V33.2857ZM183.311 33.2857H187.295V32.2857H183.311V33.2857ZM191.28 33.2857H195.265V32.2857H191.28V33.2857ZM199.25 33.2857H203.235V32.2857H199.25V33.2857ZM207.22 33.2857H211.205V32.2857H207.22V33.2857ZM215.189 33.2857H219.174V32.2857H215.189V33.2857ZM223.159 33.2857H227.144V32.2857H223.159V33.2857ZM231.129 33.2857H235.114V32.2857H231.129V33.2857ZM239.098 33.2857H243.083V32.2857H239.098V33.2857ZM247.068 33.2857H251.053V32.2857H247.068V33.2857ZM255.038 33.2857H259.023V32.2857H255.038V33.2857ZM263.008 33.2857H266.992V32.2857H263.008V33.2857ZM270.977 33.2857H274.962V32.2857H270.977V33.2857ZM278.947 33.2857H282.932V32.2857H278.947V33.2857ZM286.917 33.2857H290.902V32.2857H286.917V33.2857ZM294.886 33.2857H298.871V32.2857H294.886V33.2857ZM302.856 33.2857H306.841V32.2857H302.856V33.2857ZM310.826 33.2857H314.811V32.2857H310.826V33.2857ZM318.796 33.2857H322.781V32.2857H318.796V33.2857ZM326.765 33.2857H330.75V32.2857H326.765V33.2857ZM334.735 33.2857H338.72V32.2857H334.735V33.2857ZM342.705 33.2857H346.69V32.2857H342.705V33.2857ZM350.675 33.2857H354.659V32.2857H350.675V33.2857ZM358.644 33.2857H362.629V32.2857H358.644V33.2857ZM366.614 33.2857H370.599V32.2857H366.614V33.2857ZM374.584 33.2857H378.569V32.2857H374.584V33.2857ZM382.553 33.2857H386.538V32.2857H382.553V33.2857ZM390.523 33.2857H394.508V32.2857H390.523V33.2857ZM398.493 33.2857H402.478V32.2857H398.493V33.2857ZM406.463 33.2857H410.448V32.2857H406.463V33.2857ZM414.432 33.2857H418.417V32.2857H414.432V33.2857ZM422.402 33.2857H426.387V32.2857H422.402V33.2857ZM430.372 33.2857H434.357V32.2857H430.372V33.2857ZM438.342 33.2857H442.326V32.2857H438.342V33.2857ZM446.311 33.2857H450.296V32.2857H446.311V33.2857ZM454.281 33.2857H458.266V32.2857H454.281V33.2857ZM462.251 33.2857H466.236V32.2857H462.251V33.2857ZM470.22 33.2857H474.205V32.2857H470.22V33.2857ZM478.19 33.2857H482.175V32.2857H478.19V33.2857ZM486.16 33.2857H490.145V32.2857H486.16V33.2857ZM494.13 33.2857H498.115V32.2857H494.13V33.2857ZM502.099 33.2857H506.084V32.2857H502.099V33.2857ZM510.069 33.2857H514.054V32.2857H510.069V33.2857ZM518.039 33.2857H522.024V32.2857H518.039V33.2857ZM526.009 33.2857H528V32.2857H526.009V33.2857Z" fill="#2D2D2D"/>
<path opacity="0.15" d="M2 65.5714H3.99242V64.5714H2V65.5714ZM7.97727 65.5714H11.9621V64.5714H7.97727V65.5714ZM15.947 65.5714H19.9318V64.5714H15.947V65.5714ZM23.9167 65.5714H27.9015V64.5714H23.9167V65.5714ZM31.8864 65.5714H35.8712V64.5714H31.8864V65.5714ZM39.8561 65.5714H43.8409V64.5714H39.8561V65.5714ZM47.8258 65.5714H51.8106V64.5714H47.8258V65.5714ZM55.7955 65.5714H59.7803V64.5714H55.7955V65.5714ZM63.7651 65.5714H67.75V64.5714H63.7651V65.5714ZM71.7348 65.5714H75.7197V64.5714H71.7348V65.5714ZM79.7045 65.5714H83.6894V64.5714H79.7045V65.5714ZM87.6742 65.5714H91.6591V64.5714H87.6742V65.5714ZM95.6439 65.5714H99.6288V64.5714H95.6439V65.5714ZM103.614 65.5714H107.598V64.5714H103.614V65.5714ZM111.583 65.5714H115.568V64.5714H111.583V65.5714ZM119.553 65.5714H123.538V64.5714H119.553V65.5714ZM127.523 65.5714H131.508V64.5714H127.523V65.5714ZM135.492 65.5714H139.477V64.5714H135.492V65.5714ZM143.462 65.5714H147.447V64.5714H143.462V65.5714ZM151.432 65.5714H155.417V64.5714H151.432V65.5714ZM159.402 65.5714H163.386V64.5714H159.402V65.5714ZM167.371 65.5714H171.356V64.5714H167.371V65.5714ZM175.341 65.5714H179.326V64.5714H175.341V65.5714ZM183.311 65.5714H187.295V64.5714H183.311V65.5714ZM191.28 65.5714H195.265V64.5714H191.28V65.5714ZM199.25 65.5714H203.235V64.5714H199.25V65.5714ZM207.22 65.5714H211.205V64.5714H207.22V65.5714ZM215.189 65.5714H219.174V64.5714H215.189V65.5714ZM223.159 65.5714H227.144V64.5714H223.159V65.5714ZM231.129 65.5714H235.114V64.5714H231.129V65.5714ZM239.098 65.5714H243.083V64.5714H239.098V65.5714ZM247.068 65.5714H251.053V64.5714H247.068V65.5714ZM255.038 65.5714H259.023V64.5714H255.038V65.5714ZM263.008 65.5714H266.992V64.5714H263.008V65.5714ZM270.977 65.5714H274.962V64.5714H270.977V65.5714ZM278.947 65.5714H282.932V64.5714H278.947V65.5714ZM286.917 65.5714H290.902V64.5714H286.917V65.5714ZM294.886 65.5714H298.871V64.5714H294.886V65.5714ZM302.856 65.5714H306.841V64.5714H302.856V65.5714ZM310.826 65.5714H314.811V64.5714H310.826V65.5714ZM318.796 65.5714H322.781V64.5714H318.796V65.5714ZM326.765 65.5714H330.75V64.5714H326.765V65.5714ZM334.735 65.5714H338.72V64.5714H334.735V65.5714ZM342.705 65.5714H346.69V64.5714H342.705V65.5714ZM350.675 65.5714H354.659V64.5714H350.675V65.5714ZM358.644 65.5714H362.629V64.5714H358.644V65.5714ZM366.614 65.5714H370.599V64.5714H366.614V65.5714ZM374.584 65.5714H378.569V64.5714H374.584V65.5714ZM382.553 65.5714H386.538V64.5714H382.553V65.5714ZM390.523 65.5714H394.508V64.5714H390.523V65.5714ZM398.493 65.5714H402.478V64.5714H398.493V65.5714ZM406.463 65.5714H410.448V64.5714H406.463V65.5714ZM414.432 65.5714H418.417V64.5714H414.432V65.5714ZM422.402 65.5714H426.387V64.5714H422.402V65.5714ZM430.372 65.5714H434.357V64.5714H430.372V65.5714ZM438.342 65.5714H442.326V64.5714H438.342V65.5714ZM446.311 65.5714H450.296V64.5714H446.311V65.5714ZM454.281 65.5714H458.266V64.5714H454.281V65.5714ZM462.251 65.5714H466.236V64.5714H462.251V65.5714ZM470.22 65.5714H474.205V64.5714H470.22V65.5714ZM478.19 65.5714H482.175V64.5714H478.19V65.5714ZM486.16 65.5714H490.145V64.5714H486.16V65.5714ZM494.13 65.5714H498.115V64.5714H494.13V65.5714ZM502.099 65.5714H506.084V64.5714H502.099V65.5714ZM510.069 65.5714H514.054V64.5714H510.069V65.5714ZM518.039 65.5714H522.024V64.5714H518.039V65.5714ZM526.009 65.5714H528V64.5714H526.009V65.5714Z" fill="#2D2D2D"/>
<path opacity="0.15" d="M2 97.8571H3.99242V96.8571H2V97.8571ZM7.97727 97.8571H11.9621V96.8571H7.97727V97.8571ZM15.947 97.8571H19.9318V96.8571H15.947V97.8571ZM23.9167 97.8571H27.9015V96.8571H23.9167V97.8571ZM31.8864 97.8571H35.8712V96.8571H31.8864V97.8571ZM39.8561 97.8571H43.8409V96.8571H39.8561V97.8571ZM47.8258 97.8571H51.8106V96.8571H47.8258V97.8571ZM55.7955 97.8571H59.7803V96.8571H55.7955V97.8571ZM63.7651 97.8571H67.75V96.8571H63.7651V97.8571ZM71.7348 97.8571H75.7197V96.8571H71.7348V97.8571ZM79.7045 97.8571H83.6894V96.8571H79.7045V97.8571ZM87.6742 97.8571H91.6591V96.8571H87.6742V97.8571ZM95.6439 97.8571H99.6288V96.8571H95.6439V97.8571ZM103.614 97.8571H107.598V96.8571H103.614V97.8571ZM111.583 97.8571H115.568V96.8571H111.583V97.8571ZM119.553 97.8571H123.538V96.8571H119.553V97.8571ZM127.523 97.8571H131.508V96.8571H127.523V97.8571ZM135.492 97.8571H139.477V96.8571H135.492V97.8571ZM143.462 97.8571H147.447V96.8571H143.462V97.8571ZM151.432 97.8571H155.417V96.8571H151.432V97.8571ZM159.402 97.8571H163.386V96.8571H159.402V97.8571ZM167.371 97.8571H171.356V96.8571H167.371V97.8571ZM175.341 97.8571H179.326V96.8571H175.341V97.8571ZM183.311 97.8571H187.295V96.8571H183.311V97.8571ZM191.28 97.8571H195.265V96.8571H191.28V97.8571ZM199.25 97.8571H203.235V96.8571H199.25V97.8571ZM207.22 97.8571H211.205V96.8571H207.22V97.8571ZM215.189 97.8571H219.174V96.8571H215.189V97.8571ZM223.159 97.8571H227.144V96.8571H223.159V97.8571ZM231.129 97.8571H235.114V96.8571H231.129V97.8571ZM239.098 97.8571H243.083V96.8571H239.098V97.8571ZM247.068 97.8571H251.053V96.8571H247.068V97.8571ZM255.038 97.8571H259.023V96.8571H255.038V97.8571ZM263.008 97.8571H266.992V96.8571H263.008V97.8571ZM270.977 97.8571H274.962V96.8571H270.977V97.8571ZM278.947 97.8571H282.932V96.8571H278.947V97.8571ZM286.917 97.8571H290.902V96.8571H286.917V97.8571ZM294.886 97.8571H298.871V96.8571H294.886V97.8571ZM302.856 97.8571H306.841V96.8571H302.856V97.8571ZM310.826 97.8571H314.811V96.8571H310.826V97.8571ZM318.796 97.8571H322.781V96.8571H318.796V97.8571ZM326.765 97.8571H330.75V96.8571H326.765V97.8571ZM334.735 97.8571H338.72V96.8571H334.735V97.8571ZM342.705 97.8571H346.69V96.8571H342.705V97.8571ZM350.675 97.8571H354.659V96.8571H350.675V97.8571ZM358.644 97.8571H362.629V96.8571H358.644V97.8571ZM366.614 97.8571H370.599V96.8571H366.614V97.8571ZM374.584 97.8571H378.569V96.8571H374.584V97.8571ZM382.553 97.8571H386.538V96.8571H382.553V97.8571ZM390.523 97.8571H394.508V96.8571H390.523V97.8571ZM398.493 97.8571H402.478V96.8571H398.493V97.8571ZM406.463 97.8571H410.448V96.8571H406.463V97.8571ZM414.432 97.8571H418.417V96.8571H414.432V97.8571ZM422.402 97.8571H426.387V96.8571H422.402V97.8571ZM430.372 97.8571H434.357V96.8571H430.372V97.8571ZM438.342 97.8571H442.326V96.8571H438.342V97.8571ZM446.311 97.8571H450.296V96.8571H446.311V97.8571ZM454.281 97.8571H458.266V96.8571H454.281V97.8571ZM462.251 97.8571H466.236V96.8571H462.251V97.8571ZM470.22 97.8571H474.205V96.8571H470.22V97.8571ZM478.19 97.8571H482.175V96.8571H478.19V97.8571ZM486.16 97.8571H490.145V96.8571H486.16V97.8571ZM494.13 97.8571H498.115V96.8571H494.13V97.8571ZM502.099 97.8571H506.084V96.8571H502.099V97.8571ZM510.069 97.8571H514.054V96.8571H510.069V97.8571ZM518.039 97.8571H522.024V96.8571H518.039V97.8571ZM526.009 97.8571H528V96.8571H526.009V97.8571Z" fill="#2D2D2D"/>
<path opacity="0.15" d="M2 130.143H3.99242V129.143H2V130.143ZM7.97727 130.143H11.9621V129.143H7.97727V130.143ZM15.947 130.143H19.9318V129.143H15.947V130.143ZM23.9167 130.143H27.9015V129.143H23.9167V130.143ZM31.8864 130.143H35.8712V129.143H31.8864V130.143ZM39.8561 130.143H43.8409V129.143H39.8561V130.143ZM47.8258 130.143H51.8106V129.143H47.8258V130.143ZM55.7955 130.143H59.7803V129.143H55.7955V130.143ZM63.7651 130.143H67.75V129.143H63.7651V130.143ZM71.7348 130.143H75.7197V129.143H71.7348V130.143ZM79.7045 130.143H83.6894V129.143H79.7045V130.143ZM87.6742 130.143H91.6591V129.143H87.6742V130.143ZM95.6439 130.143H99.6288V129.143H95.6439V130.143ZM103.614 130.143H107.598V129.143H103.614V130.143ZM111.583 130.143H115.568V129.143H111.583V130.143ZM119.553 130.143H123.538V129.143H119.553V130.143ZM127.523 130.143H131.508V129.143H127.523V130.143ZM135.492 130.143H139.477V129.143H135.492V130.143ZM143.462 130.143H147.447V129.143H143.462V130.143ZM151.432 130.143H155.417V129.143H151.432V130.143ZM159.402 130.143H163.386V129.143H159.402V130.143ZM167.371 130.143H171.356V129.143H167.371V130.143ZM175.341 130.143H179.326V129.143H175.341V130.143ZM183.311 130.143H187.295V129.143H183.311V130.143ZM191.28 130.143H195.265V129.143H191.28V130.143ZM199.25 130.143H203.235V129.143H199.25V130.143ZM207.22 130.143H211.205V129.143H207.22V130.143ZM215.189 130.143H219.174V129.143H215.189V130.143ZM223.159 130.143H227.144V129.143H223.159V130.143ZM231.129 130.143H235.114V129.143H231.129V130.143ZM239.098 130.143H243.083V129.143H239.098V130.143ZM247.068 130.143H251.053V129.143H247.068V130.143ZM255.038 130.143H259.023V129.143H255.038V130.143ZM263.008 130.143H266.992V129.143H263.008V130.143ZM270.977 130.143H274.962V129.143H270.977V130.143ZM278.947 130.143H282.932V129.143H278.947V130.143ZM286.917 130.143H290.902V129.143H286.917V130.143ZM294.886 130.143H298.871V129.143H294.886V130.143ZM302.856 130.143H306.841V129.143H302.856V130.143ZM310.826 130.143H314.811V129.143H310.826V130.143ZM318.796 130.143H322.781V129.143H318.796V130.143ZM326.765 130.143H330.75V129.143H326.765V130.143ZM334.735 130.143H338.72V129.143H334.735V130.143ZM342.705 130.143H346.69V129.143H342.705V130.143ZM350.675 130.143H354.659V129.143H350.675V130.143ZM358.644 130.143H362.629V129.143H358.644V130.143ZM366.614 130.143H370.599V129.143H366.614V130.143ZM374.584 130.143H378.569V129.143H374.584V130.143ZM382.553 130.143H386.538V129.143H382.553V130.143ZM390.523 130.143H394.508V129.143H390.523V130.143ZM398.493 130.143H402.478V129.143H398.493V130.143ZM406.463 130.143H410.448V129.143H406.463V130.143ZM414.432 130.143H418.417V129.143H414.432V130.143ZM422.402 130.143H426.387V129.143H422.402V130.143ZM430.372 130.143H434.357V129.143H430.372V130.143ZM438.342 130.143H442.326V129.143H438.342V130.143ZM446.311 130.143H450.296V129.143H446.311V130.143ZM454.281 130.143H458.266V129.143H454.281V130.143ZM462.251 130.143H466.236V129.143H462.251V130.143ZM470.22 130.143H474.205V129.143H470.22V130.143ZM478.19 130.143H482.175V129.143H478.19V130.143ZM486.16 130.143H490.145V129.143H486.16V130.143ZM494.13 130.143H498.115V129.143H494.13V130.143ZM502.099 130.143H506.084V129.143H502.099V130.143ZM510.069 130.143H514.054V129.143H510.069V130.143ZM518.039 130.143H522.024V129.143H518.039V130.143ZM526.009 130.143H528V129.143H526.009V130.143Z" fill="#2D2D2D"/>
<path opacity="0.15" d="M2 162.429H3.99242V161.429H2V162.429ZM7.97727 162.429H11.9621V161.429H7.97727V162.429ZM15.947 162.429H19.9318V161.429H15.947V162.429ZM23.9167 162.429H27.9015V161.429H23.9167V162.429ZM31.8864 162.429H35.8712V161.429H31.8864V162.429ZM39.8561 162.429H43.8409V161.429H39.8561V162.429ZM47.8258 162.429H51.8106V161.429H47.8258V162.429ZM55.7955 162.429H59.7803V161.429H55.7955V162.429ZM63.7651 162.429H67.75V161.429H63.7651V162.429ZM71.7348 162.429H75.7197V161.429H71.7348V162.429ZM79.7045 162.429H83.6894V161.429H79.7045V162.429ZM87.6742 162.429H91.6591V161.429H87.6742V162.429ZM95.6439 162.429H99.6288V161.429H95.6439V162.429ZM103.614 162.429H107.598V161.429H103.614V162.429ZM111.583 162.429H115.568V161.429H111.583V162.429ZM119.553 162.429H123.538V161.429H119.553V162.429ZM127.523 162.429H131.508V161.429H127.523V162.429ZM135.492 162.429H139.477V161.429H135.492V162.429ZM143.462 162.429H147.447V161.429H143.462V162.429ZM151.432 162.429H155.417V161.429H151.432V162.429ZM159.402 162.429H163.386V161.429H159.402V162.429ZM167.371 162.429H171.356V161.429H167.371V162.429ZM175.341 162.429H179.326V161.429H175.341V162.429ZM183.311 162.429H187.295V161.429H183.311V162.429ZM191.28 162.429H195.265V161.429H191.28V162.429ZM199.25 162.429H203.235V161.429H199.25V162.429ZM207.22 162.429H211.205V161.429H207.22V162.429ZM215.189 162.429H219.174V161.429H215.189V162.429ZM223.159 162.429H227.144V161.429H223.159V162.429ZM231.129 162.429H235.114V161.429H231.129V162.429ZM239.098 162.429H243.083V161.429H239.098V162.429ZM247.068 162.429H251.053V161.429H247.068V162.429ZM255.038 162.429H259.023V161.429H255.038V162.429ZM263.008 162.429H266.992V161.429H263.008V162.429ZM270.977 162.429H274.962V161.429H270.977V162.429ZM278.947 162.429H282.932V161.429H278.947V162.429ZM286.917 162.429H290.902V161.429H286.917V162.429ZM294.886 162.429H298.871V161.429H294.886V162.429ZM302.856 162.429H306.841V161.429H302.856V162.429ZM310.826 162.429H314.811V161.429H310.826V162.429ZM318.796 162.429H322.781V161.429H318.796V162.429ZM326.765 162.429H330.75V161.429H326.765V162.429ZM334.735 162.429H338.72V161.429H334.735V162.429ZM342.705 162.429H346.69V161.429H342.705V162.429ZM350.675 162.429H354.659V161.429H350.675V162.429ZM358.644 162.429H362.629V161.429H358.644V162.429ZM366.614 162.429H370.599V161.429H366.614V162.429ZM374.584 162.429H378.569V161.429H374.584V162.429ZM382.553 162.429H386.538V161.429H382.553V162.429ZM390.523 162.429H394.508V161.429H390.523V162.429ZM398.493 162.429H402.478V161.429H398.493V162.429ZM406.463 162.429H410.448V161.429H406.463V162.429ZM414.432 162.429H418.417V161.429H414.432V162.429ZM422.402 162.429H426.387V161.429H422.402V162.429ZM430.372 162.429H434.357V161.429H430.372V162.429ZM438.342 162.429H442.326V161.429H438.342V162.429ZM446.311 162.429H450.296V161.429H446.311V162.429ZM454.281 162.429H458.266V161.429H454.281V162.429ZM462.251 162.429H466.236V161.429H462.251V162.429ZM470.22 162.429H474.205V161.429H470.22V162.429ZM478.19 162.429H482.175V161.429H478.19V162.429ZM486.16 162.429H490.145V161.429H486.16V162.429ZM494.13 162.429H498.115V161.429H494.13V162.429ZM502.099 162.429H506.084V161.429H502.099V162.429ZM510.069 162.429H514.054V161.429H510.069V162.429ZM518.039 162.429H522.024V161.429H518.039V162.429ZM526.009 162.429H528V161.429H526.009V162.429Z" fill="#2D2D2D"/>
<path opacity="0.15" d="M2 194.714H3.99242V193.714H2V194.714ZM7.97727 194.714H11.9621V193.714H7.97727V194.714ZM15.947 194.714H19.9318V193.714H15.947V194.714ZM23.9167 194.714H27.9015V193.714H23.9167V194.714ZM31.8864 194.714H35.8712V193.714H31.8864V194.714ZM39.8561 194.714H43.8409V193.714H39.8561V194.714ZM47.8258 194.714H51.8106V193.714H47.8258V194.714ZM55.7955 194.714H59.7803V193.714H55.7955V194.714ZM63.7651 194.714H67.75V193.714H63.7651V194.714ZM71.7348 194.714H75.7197V193.714H71.7348V194.714ZM79.7045 194.714H83.6894V193.714H79.7045V194.714ZM87.6742 194.714H91.6591V193.714H87.6742V194.714ZM95.6439 194.714H99.6288V193.714H95.6439V194.714ZM103.614 194.714H107.598V193.714H103.614V194.714ZM111.583 194.714H115.568V193.714H111.583V194.714ZM119.553 194.714H123.538V193.714H119.553V194.714ZM127.523 194.714H131.508V193.714H127.523V194.714ZM135.492 194.714H139.477V193.714H135.492V194.714ZM143.462 194.714H147.447V193.714H143.462V194.714ZM151.432 194.714H155.417V193.714H151.432V194.714ZM159.402 194.714H163.386V193.714H159.402V194.714ZM167.371 194.714H171.356V193.714H167.371V194.714ZM175.341 194.714H179.326V193.714H175.341V194.714ZM183.311 194.714H187.295V193.714H183.311V194.714ZM191.28 194.714H195.265V193.714H191.28V194.714ZM199.25 194.714H203.235V193.714H199.25V194.714ZM207.22 194.714H211.205V193.714H207.22V194.714ZM215.189 194.714H219.174V193.714H215.189V194.714ZM223.159 194.714H227.144V193.714H223.159V194.714ZM231.129 194.714H235.114V193.714H231.129V194.714ZM239.098 194.714H243.083V193.714H239.098V194.714ZM247.068 194.714H251.053V193.714H247.068V194.714ZM255.038 194.714H259.023V193.714H255.038V194.714ZM263.008 194.714H266.992V193.714H263.008V194.714ZM270.977 194.714H274.962V193.714H270.977V194.714ZM278.947 194.714H282.932V193.714H278.947V194.714ZM286.917 194.714H290.902V193.714H286.917V194.714ZM294.886 194.714H298.871V193.714H294.886V194.714ZM302.856 194.714H306.841V193.714H302.856V194.714ZM310.826 194.714H314.811V193.714H310.826V194.714ZM318.796 194.714H322.781V193.714H318.796V194.714ZM326.765 194.714H330.75V193.714H326.765V194.714ZM334.735 194.714H338.72V193.714H334.735V194.714ZM342.705 194.714H346.69V193.714H342.705V194.714ZM350.675 194.714H354.659V193.714H350.675V194.714ZM358.644 194.714H362.629V193.714H358.644V194.714ZM366.614 194.714H370.599V193.714H366.614V194.714ZM374.584 194.714H378.569V193.714H374.584V194.714ZM382.553 194.714H386.538V193.714H382.553V194.714ZM390.523 194.714H394.508V193.714H390.523V194.714ZM398.493 194.714H402.478V193.714H398.493V194.714ZM406.463 194.714H410.448V193.714H406.463V194.714ZM414.432 194.714H418.417V193.714H414.432V194.714ZM422.402 194.714H426.387V193.714H422.402V194.714ZM430.372 194.714H434.357V193.714H430.372V194.714ZM438.342 194.714H442.326V193.714H438.342V194.714ZM446.311 194.714H450.296V193.714H446.311V194.714ZM454.281 194.714H458.266V193.714H454.281V194.714ZM462.251 194.714H466.236V193.714H462.251V194.714ZM470.22 194.714H474.205V193.714H470.22V194.714ZM478.19 194.714H482.175V193.714H478.19V194.714ZM486.16 194.714H490.145V193.714H486.16V194.714ZM494.13 194.714H498.115V193.714H494.13V194.714ZM502.099 194.714H506.084V193.714H502.099V194.714ZM510.069 194.714H514.054V193.714H510.069V194.714ZM518.039 194.714H522.024V193.714H518.039V194.714ZM526.009 194.714H528V193.714H526.009V194.714Z" fill="#2D2D2D"/>
<path opacity="0.15" d="M0 227H2V226H0V227ZM6 227H10V226H6V227ZM14 227H18V226H14V227ZM22 227H26V226H22V227ZM30 227H34V226H30V227ZM38 227H42V226H38V227ZM46 227H50V226H46V227ZM54 227H58V226H54V227ZM62 227H66V226H62V227ZM70 227H74V226H70V227ZM78 227H82V226H78V227ZM86 227H90V226H86V227ZM94 227H98V226H94V227ZM102 227H106V226H102V227ZM110 227H114V226H110V227ZM118 227H122V226H118V227ZM126 227H130V226H126V227ZM134 227H138V226H134V227ZM142 227H146V226H142V227ZM150 227H154V226H150V227ZM158 227H162V226H158V227ZM166 227H170V226H166V227ZM174 227H178V226H174V227ZM182 227H186V226H182V227ZM190 227H194V226H190V227ZM198 227H202V226H198V227ZM206 227H210V226H206V227ZM214 227H218V226H214V227ZM222 227H226V226H222V227ZM230 227H234V226H230V227ZM238 227H242V226H238V227ZM246 227H250V226H246V227ZM254 227H258V226H254V227ZM262 227H266V226H262V227ZM270 227H274V226H270V227ZM278 227H282V226H278V227ZM286 227H290V226H286V227ZM294 227H298V226H294V227ZM302 227H306V226H302V227ZM310 227H314V226H310V227ZM318 227H322V226H318V227ZM326 227H330V226H326V227ZM334 227H338V226H334V227ZM342 227H346V226H342V227ZM350 227H354V226H350V227ZM358 227H362V226H358V227ZM366 227H370V226H366V227ZM374 227H378V226H374V227ZM382 227H386V226H382V227ZM390 227H394V226H390V227ZM398 227H402V226H398V227ZM406 227H410V226H406V227ZM414 227H418V226H414V227ZM422 227H426V226H422V227ZM430 227H434V226H430V227ZM438 227H442V226H438V227ZM446 227H450V226H446V227ZM454 227H458V226H454V227ZM462 227H466V226H462V227ZM470 227H474V226H470V227ZM478 227H482V226H478V227ZM486 227H490V226H486V227ZM494 227H498V226H494V227ZM502 227H506V226H502V227ZM510 227H514V226H510V227ZM518 227H522V226H518V227ZM526 227H528V226H526V227Z" fill="#2D2D2D"/>
</svg>
