<svg width="28" height="31" viewBox="0 0 28 31" fill="none" xmlns="http://www.w3.org/2000/svg">
<path d="M6.49541 4.00438H17.5046V2.33331H6.49541V4.00438ZM20.3486 7.50124V20.4985H22V7.50124H20.3486ZM17.5046 23.9953H6.49541V25.6663H17.5046V23.9953ZM3.65138 20.4985V7.50124H2V20.4985H3.65138ZM6.49541 23.9953C5.03952 23.9953 3.65138 22.5552 3.65138 20.4985H2C2 23.2271 3.89784 25.6663 6.49541 25.6663V23.9953ZM20.3486 20.4985C20.3486 22.5552 18.9605 23.9953 17.5046 23.9953V25.6663C20.1022 25.6663 22 23.2271 22 20.4985H20.3486ZM17.5046 4.00438C18.9605 4.00438 20.3486 5.4445 20.3486 7.50124H22C22 4.77255 20.1022 2.33331 17.5046 2.33331V4.00438ZM6.49541 2.33331C3.89784 2.33331 2 4.77255 2 7.50124H3.65138C3.65138 5.4445 5.03952 4.00438 6.49541 4.00438V2.33331Z" fill="#FF8B6A"/>
<path d="M9.24756 7.74847C8.79155 7.74847 8.42188 8.12256 8.42188 8.58401C8.42188 9.04546 8.79155 9.41954 9.24756 9.41954V7.74847ZM17.5044 9.41954C17.9605 9.41954 18.3301 9.04546 18.3301 8.58401C18.3301 8.12256 17.9605 7.74847 17.5044 7.74847V9.41954ZM9.24756 9.41954L17.5044 9.41954V7.74847L9.24756 7.74847V9.41954Z" fill="#FF8B6A"/>
<path d="M6.49366 12.0812C6.03764 12.0812 5.66797 12.4553 5.66797 12.9167C5.66797 13.3782 6.03764 13.7522 6.49366 13.7522V12.0812ZM17.5028 13.7522C17.9589 13.7522 18.3285 13.3782 18.3285 12.9167C18.3285 12.4553 17.9589 12.0812 17.5028 12.0812V13.7522ZM6.49366 13.7522L17.5028 13.7522V12.0812L6.49366 12.0812V13.7522Z" fill="#FF8B6A"/>
<path d="M6.49366 16.4139C6.03764 16.4139 5.66797 16.788 5.66797 17.2494C5.66797 17.7109 6.03764 18.0849 6.49366 18.0849V16.4139ZM10.1634 18.0849C10.6194 18.0849 10.9891 17.7109 10.9891 17.2494C10.9891 16.788 10.6194 16.4139 10.1634 16.4139V18.0849ZM6.49366 18.0849H10.1634V16.4139H6.49366V18.0849Z" fill="#FF8B6A"/>
<ellipse cx="5.67134" cy="7.74896" rx="0.917431" ry="1.08295" fill="#FF8B6A"/>
<g clip-path="url(#clip0_1_11550)">
<circle cx="19.9985" cy="22.4998" r="6.6665" fill="white" stroke="#FF8B6A" stroke-width="1.8"/>
<g clip-path="url(#clip1_1_11550)">
<path d="M18.9094 23.0664C18.5104 22.77 17.9467 22.8532 17.6502 23.2522C17.3538 23.6512 17.437 24.215 17.836 24.5114L18.9094 23.0664ZM20.4667 25.3444L19.93 26.0669C20.3088 26.3483 20.8406 26.2894 21.1486 25.9319L20.4667 25.3444ZM24.499 22.043C24.8234 21.6664 24.7812 21.0981 24.4046 20.7737C24.028 20.4493 23.4597 20.4915 23.1353 20.8681L24.499 22.043ZM17.836 24.5114L19.93 26.0669L21.0034 24.622L18.9094 23.0664L17.836 24.5114ZM21.1486 25.9319L24.499 22.043L23.1353 20.8681L19.7849 24.757L21.1486 25.9319Z" fill="#FF8B6A"/>
</g>
</g>
<defs>
<clipPath id="clip0_1_11550">
<rect width="16" height="16" fill="white" transform="translate(12 14.5)"/>
</clipPath>
<clipPath id="clip1_1_11550">
<rect width="9.33301" height="9.33301" fill="white" transform="translate(15.332 17.8333)"/>
</clipPath>
</defs>
</svg>
