<svg width="28" height="28" viewBox="0 0 28 28" fill="none" xmlns="http://www.w3.org/2000/svg">
<path d="M21.6665 14.3247C22.0038 14.5841 22.0686 15.07 21.8112 15.4099C21.5538 15.7499 21.0717 15.8152 20.7343 15.5558L21.6665 14.3247ZM18.2125 16.1296L18.8878 16.4988C18.724 16.8032 18.3795 16.9609 18.0443 16.8851C17.709 16.8093 17.4645 16.5183 17.4454 16.1726L18.2125 16.1296ZM13.2327 16.1296L13.9487 16.4103C13.8147 16.7575 13.4543 16.9593 13.091 16.8906C12.7277 16.8219 12.4644 16.5021 12.4644 16.1296H13.2327ZM4.26902 10.8819C3.84474 10.8819 3.50071 10.5352 3.50071 10.1076C3.50071 9.68002 3.84474 9.33337 4.26902 9.33337V10.8819ZM20.7343 15.5558C20.468 15.351 20.278 15.3343 20.142 15.3539C19.9773 15.3777 19.7858 15.473 19.5782 15.6489C19.3744 15.8215 19.1988 16.0349 19.0701 16.2156C19.0073 16.3038 18.9591 16.3794 18.9276 16.4311C18.912 16.4568 18.9006 16.4764 18.8939 16.4882C18.8905 16.4941 18.8883 16.4981 18.8873 16.4999C18.8867 16.5008 18.8865 16.5012 18.8866 16.501C18.8867 16.5009 18.8868 16.5007 18.887 16.5003C18.8871 16.5002 18.8872 16.4999 18.8874 16.4997C18.8874 16.4996 18.8875 16.4993 18.8876 16.4993C18.8877 16.4991 18.8878 16.4988 18.2125 16.1296C17.5372 15.7604 17.5373 15.7601 17.5375 15.7599C17.5375 15.7598 17.5377 15.7595 17.5378 15.7593C17.538 15.7589 17.5382 15.7584 17.5385 15.7579C17.539 15.757 17.5396 15.7559 17.5403 15.7546C17.5417 15.7521 17.5434 15.7489 17.5455 15.7452C17.5496 15.7378 17.555 15.7281 17.5618 15.7162C17.5753 15.6926 17.5941 15.6603 17.618 15.6212C17.6656 15.543 17.7341 15.4359 17.8216 15.3129C17.9938 15.0711 18.2539 14.7477 18.5895 14.4635C18.9213 14.1824 19.373 13.9006 19.9242 13.8211C20.5041 13.7374 21.1026 13.8912 21.6665 14.3247L20.7343 15.5558ZM18.2125 16.1296C17.4454 16.1726 17.4454 16.1728 17.4454 16.1731C17.4454 16.1731 17.4454 16.1733 17.4454 16.1734C17.4454 16.1736 17.4454 16.1738 17.4455 16.1739C17.4455 16.1742 17.4455 16.1743 17.4455 16.1742C17.4455 16.174 17.4454 16.1731 17.4453 16.1716C17.4451 16.1685 17.4447 16.1627 17.4441 16.1545C17.4428 16.138 17.4407 16.1116 17.4372 16.0767C17.4304 16.0069 17.4185 15.9041 17.399 15.7796C17.3596 15.5271 17.2915 15.2023 17.1785 14.8871C16.9289 14.1905 16.6077 13.8929 16.2206 13.8929V12.3444C17.6591 12.3444 18.3339 13.5522 18.6238 14.3611C18.7806 14.7987 18.8682 15.2266 18.917 15.5387C18.9416 15.6965 18.957 15.8289 18.9663 15.9237C18.971 15.9712 18.9742 16.0095 18.9763 16.0371C18.9773 16.0509 18.9781 16.062 18.9786 16.0703C18.9789 16.0745 18.9791 16.0779 18.9793 16.0806C18.9794 16.082 18.9794 16.0832 18.9795 16.0842C18.9795 16.0847 18.9796 16.0851 18.9796 16.0855C18.9796 16.0857 18.9796 16.086 18.9796 16.0861C18.9796 16.0863 18.9796 16.0866 18.2125 16.1296ZM16.2206 13.8929C15.9831 13.8929 15.7284 13.9894 15.4508 14.2037C15.1708 14.4199 14.9067 14.7268 14.6731 15.0658C14.4421 15.4009 14.2588 15.7411 14.1325 16.0003C14.0699 16.1289 14.0225 16.2351 13.9914 16.3076C13.9758 16.3439 13.9644 16.3715 13.9572 16.3891C13.9537 16.3979 13.9512 16.4042 13.9497 16.4078C13.949 16.4096 13.9486 16.4107 13.9484 16.4111C13.9483 16.4114 13.9483 16.4114 13.9484 16.4112C13.9484 16.4112 13.9484 16.4111 13.9485 16.4109C13.9485 16.4108 13.9486 16.4107 13.9486 16.4106C13.9487 16.4105 13.9487 16.4103 13.2327 16.1296C12.5166 15.8489 12.5167 15.8487 12.5168 15.8485C12.5168 15.8484 12.5169 15.8482 12.517 15.848C12.5171 15.8477 12.5173 15.8473 12.5174 15.8468C12.5177 15.846 12.5182 15.8449 12.5187 15.8437C12.5196 15.8412 12.5209 15.838 12.5224 15.8341C12.5255 15.8263 12.5298 15.8157 12.5352 15.8025C12.5459 15.776 12.5613 15.7389 12.5811 15.6928C12.6206 15.6006 12.6783 15.4717 12.7531 15.318C12.9018 15.0126 13.1232 14.6001 13.411 14.1825C13.6961 13.7687 14.065 13.3228 14.5163 12.9744C14.9701 12.6241 15.5453 12.3444 16.2206 12.3444V13.8929ZM13.2327 16.1296C12.4644 16.1296 12.4644 16.1301 12.4644 16.1307C12.4644 16.1308 12.4644 16.1313 12.4644 16.1316C12.4644 16.1322 12.4644 16.1327 12.4644 16.1331C12.4644 16.1339 12.4644 16.1343 12.4644 16.1344C12.4644 16.1347 12.4644 16.1335 12.4643 16.131C12.4642 16.1261 12.4639 16.1158 12.4632 16.1006C12.4617 16.0702 12.4583 16.0202 12.4512 15.9533C12.437 15.8194 12.4076 15.6197 12.3473 15.3764C12.2263 14.889 11.9837 14.2363 11.4976 13.5832C10.5521 12.3127 8.56339 10.8819 4.26902 10.8819V9.33337C8.93833 9.33337 11.4315 10.9136 12.7269 12.6541C13.3613 13.5064 13.6788 14.3592 13.838 15.0009C13.9177 15.3221 13.9584 15.593 13.9791 15.7884C13.9895 15.8862 13.995 15.9655 13.9979 16.0233C13.9993 16.0522 14.0001 16.0758 14.0005 16.0936C14.0007 16.1025 14.0008 16.11 14.0009 16.116C14.001 16.119 14.001 16.1217 14.001 16.1239C14.001 16.1251 14.001 16.1261 14.001 16.127C14.001 16.1275 14.001 16.1281 14.001 16.1284C14.001 16.129 14.001 16.1296 13.2327 16.1296Z" fill="#828FA2"/>
<path d="M5.80347 18.8679C5.37914 18.8679 5.03516 19.2145 5.03516 19.6421C5.03516 20.0697 5.37914 20.4164 5.80347 20.4164V18.8679ZM23.7308 20.4164C24.1551 20.4164 24.4991 20.0697 24.4991 19.6421C24.4991 19.2145 24.1551 18.8679 23.7308 18.8679V20.4164ZM5.80347 20.4164H23.7308V18.8679H5.80347V20.4164Z" fill="#828FA2"/>
</svg>
