<svg width="84" height="1463" viewBox="0 0 84 1463" fill="none" xmlns="http://www.w3.org/2000/svg">
<rect width="84" height="1463" fill="white"/>
<path fill-rule="evenodd" clip-rule="evenodd" d="M33.667 102.5C33.667 102.04 34.0401 101.667 34.5003 101.667H40.3337C40.7939 101.667 41.167 102.04 41.167 102.5V108.333C41.167 108.794 40.7939 109.167 40.3337 109.167H34.5003C34.0401 109.167 33.667 108.794 33.667 108.333V102.5ZM35.3337 103.333V107.5H39.5003V103.333H35.3337ZM35.3337 107.5V103.333H39.5003V107.5H35.3337Z" fill="#FF8B6A"/>
<path d="M33.667 102.5C33.667 102.04 34.0401 101.667 34.5003 101.667H40.3337C40.7939 101.667 41.167 102.04 41.167 102.5V108.333C41.167 108.794 40.7939 109.167 40.3337 109.167H34.5003C34.0401 109.167 33.667 108.794 33.667 108.333V102.5ZM35.3337 103.333V107.5H39.5003V103.333H35.3337ZM35.3337 107.5V103.333H39.5003V107.5H35.3337Z" fill="#FF8B6A"/>
<path fill-rule="evenodd" clip-rule="evenodd" d="M42.833 102.5C42.833 102.04 43.2061 101.667 43.6663 101.667H49.4997C49.9599 101.667 50.333 102.04 50.333 102.5V108.333C50.333 108.794 49.9599 109.167 49.4997 109.167H43.6663C43.2061 109.167 42.833 108.794 42.833 108.333V102.5ZM44.4997 103.333V107.5H48.6663V103.333H44.4997ZM44.4997 107.5V103.333H48.6663V107.5H44.4997Z" fill="#FF8B6A"/>
<path d="M42.833 102.5C42.833 102.04 43.2061 101.667 43.6663 101.667H49.4997C49.9599 101.667 50.333 102.04 50.333 102.5V108.333C50.333 108.794 49.9599 109.167 49.4997 109.167H43.6663C43.2061 109.167 42.833 108.794 42.833 108.333V102.5ZM44.4997 103.333V107.5H48.6663V103.333H44.4997ZM44.4997 107.5V103.333H48.6663V107.5H44.4997Z" fill="#FF8B6A"/>
<path fill-rule="evenodd" clip-rule="evenodd" d="M42.833 111.667C42.833 111.206 43.2061 110.833 43.6663 110.833H49.4997C49.9599 110.833 50.333 111.206 50.333 111.667V117.5C50.333 117.96 49.9599 118.333 49.4997 118.333H43.6663C43.2061 118.333 42.833 117.96 42.833 117.5V111.667ZM44.4997 112.5V116.667H48.6663V112.5H44.4997ZM44.4997 116.667V112.5H48.6663V116.667H44.4997Z" fill="#FF8B6A"/>
<path d="M42.833 111.667C42.833 111.206 43.2061 110.833 43.6663 110.833H49.4997C49.9599 110.833 50.333 111.206 50.333 111.667V117.5C50.333 117.96 49.9599 118.333 49.4997 118.333H43.6663C43.2061 118.333 42.833 117.96 42.833 117.5V111.667ZM44.4997 112.5V116.667H48.6663V112.5H44.4997ZM44.4997 116.667V112.5H48.6663V116.667H44.4997Z" fill="#FF8B6A"/>
<path fill-rule="evenodd" clip-rule="evenodd" d="M33.667 111.667C33.667 111.206 34.0401 110.833 34.5003 110.833H40.3337C40.7939 110.833 41.167 111.206 41.167 111.667V117.5C41.167 117.96 40.7939 118.333 40.3337 118.333H34.5003C34.0401 118.333 33.667 117.96 33.667 117.5V111.667ZM35.3337 112.5V116.667H39.5003V112.5H35.3337ZM35.3337 116.667V112.5H39.5003V116.667H35.3337Z" fill="#FF8B6A"/>
<path d="M33.667 111.667C33.667 111.206 34.0401 110.833 34.5003 110.833H40.3337C40.7939 110.833 41.167 111.206 41.167 111.667V117.5C41.167 117.96 40.7939 118.333 40.3337 118.333H34.5003C34.0401 118.333 33.667 117.96 33.667 117.5V111.667ZM35.3337 112.5V116.667H39.5003V112.5H35.3337ZM35.3337 116.667V112.5H39.5003V116.667H35.3337Z" fill="#FF8B6A"/>
<path fill-rule="evenodd" clip-rule="evenodd" d="M35.7204 166.887C36.5018 166.106 37.5616 165.667 38.6667 165.667H45.3333C46.4384 165.667 47.4982 166.106 48.2796 166.887C49.061 167.668 49.5 168.728 49.5 169.833V171.5C49.5 171.96 49.1269 172.333 48.6667 172.333C48.2064 172.333 47.8333 171.96 47.8333 171.5V169.833C47.8333 169.17 47.5699 168.534 47.1011 168.066C46.6323 167.597 45.9964 167.333 45.3333 167.333H38.6667C38.0036 167.333 37.3677 167.597 36.8989 168.066C36.4301 168.534 36.1667 169.17 36.1667 169.833V171.5C36.1667 171.96 35.7936 172.333 35.3333 172.333C34.8731 172.333 34.5 171.96 34.5 171.5V169.833C34.5 168.728 34.939 167.668 35.7204 166.887Z" fill="#828FA2"/>
<path fill-rule="evenodd" clip-rule="evenodd" d="M41.9997 157.333C40.619 157.333 39.4997 158.453 39.4997 159.833C39.4997 161.214 40.619 162.333 41.9997 162.333C43.3804 162.333 44.4997 161.214 44.4997 159.833C44.4997 158.453 43.3804 157.333 41.9997 157.333ZM37.833 159.833C37.833 157.532 39.6985 155.667 41.9997 155.667C44.3009 155.667 46.1663 157.532 46.1663 159.833C46.1663 162.135 44.3009 164 41.9997 164C39.6985 164 37.833 162.135 37.833 159.833Z" fill="#828FA2"/>
<path fill-rule="evenodd" clip-rule="evenodd" d="M37.8337 221.251V223.829L42.0522 221.336L42.4931 221.329C44.2463 221.301 45.8242 221.124 47.004 220.945C47.7486 220.831 48.2659 220.312 48.3783 219.659C48.5342 218.754 48.667 217.607 48.667 216.333C48.667 215.059 48.5342 213.913 48.3783 213.008C48.2659 212.355 47.7486 211.835 47.004 211.722C45.7136 211.526 43.9489 211.333 42.0003 211.333C40.0517 211.333 38.2871 211.526 36.9967 211.722C36.2521 211.835 35.7347 212.355 35.6224 213.008C35.4665 213.913 35.3337 215.059 35.3337 216.333C35.3337 217.607 35.4665 218.754 35.6224 219.659C35.72 220.226 36.1158 220.68 36.6929 220.872L37.8337 221.251ZM33.9799 212.725C34.2217 211.321 35.3376 210.289 36.746 210.074C38.0954 209.869 39.9467 209.667 42.0003 209.667C44.054 209.667 45.9052 209.869 47.2547 210.074C48.6631 210.289 49.779 211.321 50.0208 212.725C50.1893 213.703 50.3337 214.946 50.3337 216.333C50.3337 217.721 50.1893 218.964 50.0208 219.942C49.779 221.346 48.6631 222.378 47.2547 222.592C46.0202 222.78 44.3657 222.965 42.5204 222.996L37.4243 226.007C36.8688 226.335 36.167 225.935 36.167 225.29V222.453C35.0391 222.078 34.1875 221.147 33.9799 219.942C33.8113 218.964 33.667 217.721 33.667 216.333C33.667 214.946 33.8113 213.703 33.9799 212.725Z" fill="#828FA2"/>
<path fill-rule="evenodd" clip-rule="evenodd" d="M37.8333 213.833C37.3731 213.833 37 214.206 37 214.667C37 215.127 37.3731 215.5 37.8333 215.5H46.1667C46.6269 215.5 47 215.127 47 214.667C47 214.206 46.6269 213.833 46.1667 213.833H37.8333ZM37.8333 217.167C37.3731 217.167 37 217.54 37 218C37 218.46 37.3731 218.833 37.8333 218.833H41.1667C41.6269 218.833 42 218.46 42 218C42 217.54 41.6269 217.167 41.1667 217.167H37.8333Z" fill="#828FA2"/>
<path fill-rule="evenodd" clip-rule="evenodd" d="M35.333 265.333C35.112 265.333 34.9 265.421 34.7437 265.577C34.5875 265.734 34.4997 265.946 34.4997 266.167V277.833C34.4997 278.054 34.5875 278.266 34.7437 278.423C34.9 278.579 35.112 278.667 35.333 278.667H48.6663C48.8873 278.667 49.0993 278.579 49.2556 278.423C49.4119 278.266 49.4997 278.054 49.4997 277.833V268.667C49.4997 268.446 49.4119 268.234 49.2556 268.077C49.0993 267.921 48.8873 267.833 48.6663 267.833H41.1663C40.8877 267.833 40.6275 267.694 40.473 267.462L39.0537 265.333H35.333ZM33.5652 264.399C34.0341 263.93 34.67 263.667 35.333 263.667H39.4997C39.7783 263.667 40.0385 263.806 40.193 264.038L41.6123 266.167H48.6663C49.3294 266.167 49.9653 266.43 50.4341 266.899C50.9029 267.368 51.1663 268.004 51.1663 268.667V277.833C51.1663 278.496 50.9029 279.132 50.4341 279.601C49.9653 280.07 49.3294 280.333 48.6663 280.333H35.333C34.67 280.333 34.0341 280.07 33.5652 279.601C33.0964 279.132 32.833 278.496 32.833 277.833V266.167C32.833 265.504 33.0964 264.868 33.5652 264.399Z" fill="#828FA2"/>
<path fill-rule="evenodd" clip-rule="evenodd" d="M47.8337 321H36.167C35.7068 321 35.3337 321.373 35.3337 321.833V331.833C35.3337 332.294 35.7068 332.667 36.167 332.667H47.8337C48.2939 332.667 48.667 332.294 48.667 331.833V321.833C48.667 321.373 48.2939 321 47.8337 321ZM36.167 319.333C34.7863 319.333 33.667 320.453 33.667 321.833V331.833C33.667 333.214 34.7863 334.333 36.167 334.333H47.8337C49.2144 334.333 50.3337 333.214 50.3337 331.833V321.833C50.3337 320.453 49.2144 319.333 47.8337 319.333H36.167Z" fill="#828FA2"/>
<path fill-rule="evenodd" clip-rule="evenodd" d="M40.3333 326C39.8731 326 39.5 326.373 39.5 326.833C39.5 327.294 39.8731 327.667 40.3333 327.667H46.1667C46.6269 327.667 47 327.294 47 326.833C47 326.373 46.6269 326 46.1667 326H40.3333ZM37.8333 329.333C37.3731 329.333 37 329.706 37 330.167C37 330.627 37.3731 331 37.8333 331H42.8333C43.2936 331 43.6667 330.627 43.6667 330.167C43.6667 329.706 43.2936 329.333 42.8333 329.333H37.8333Z" fill="#828FA2"/>
<path fill-rule="evenodd" clip-rule="evenodd" d="M37.8333 317.667C37.3731 317.667 37 318.04 37 318.5V321.833C37 322.294 37.3731 322.667 37.8333 322.667C38.2936 322.667 38.6667 322.294 38.6667 321.833V318.5C38.6667 318.04 38.2936 317.667 37.8333 317.667ZM46.1667 317.667C45.7064 317.667 45.3333 318.04 45.3333 318.5V321.833C45.3333 322.294 45.7064 322.667 46.1667 322.667C46.6269 322.667 47 322.294 47 321.833V318.5C47 318.04 46.6269 317.667 46.1667 317.667Z" fill="#828FA2"/>
<path fill-rule="evenodd" clip-rule="evenodd" d="M36.9595 380C36.702 380 36.5062 380.231 36.5485 380.485L37.3467 385.274C37.4806 386.078 38.1759 386.667 38.9906 386.667H45.0098C45.8245 386.667 46.5198 386.078 46.6538 385.274L47.4519 380.485C47.4943 380.231 47.2984 380 47.0409 380H36.9595ZM35.4839 378.333C34.969 378.333 34.5773 378.796 34.6619 379.304L35.7027 385.548C35.9705 387.155 37.3612 388.333 38.9906 388.333H45.0098C46.6393 388.333 48.0299 387.155 48.2978 385.548L49.3385 379.304C49.4232 378.796 49.0315 378.333 48.5165 378.333H35.4839Z" fill="#828FA2"/>
<path d="M40.3333 381.667C39.8731 381.667 39.5 382.04 39.5 382.5V384.167C39.5 384.627 39.8731 385 40.3333 385C40.7936 385 41.1667 384.627 41.1667 384.167V382.5C41.1667 382.04 40.7936 381.667 40.3333 381.667ZM43.6667 381.667C43.2064 381.667 42.8333 382.04 42.8333 382.5V384.167C42.8333 384.627 43.2064 385 43.6667 385C44.1269 385 44.5 384.627 44.5 384.167V382.5C44.5 382.04 44.1269 381.667 43.6667 381.667Z" fill="#828FA2"/>
<path d="M40.3333 381.667C39.8731 381.667 39.5 382.04 39.5 382.5V384.167C39.5 384.627 39.8731 385 40.3333 385C40.7936 385 41.1667 384.627 41.1667 384.167V382.5C41.1667 382.04 40.7936 381.667 40.3333 381.667ZM43.6667 381.667C43.2064 381.667 42.8333 382.04 42.8333 382.5V384.167C42.8333 384.627 43.2064 385 43.6667 385C44.1269 385 44.5 384.627 44.5 384.167V382.5C44.5 382.04 44.1269 381.667 43.6667 381.667Z" fill="#828FA2"/>
<path d="M40.9229 373.089C41.2484 372.764 41.2484 372.236 40.9229 371.911C40.5975 371.585 40.0698 371.585 39.7444 371.911L36.4111 375.244C36.0856 375.57 36.0856 376.097 36.4111 376.423C36.7365 376.748 37.2641 376.748 37.5896 376.423L40.9229 373.089ZM43.0777 373.089C42.7523 372.764 42.7523 372.236 43.0777 371.911C43.4032 371.585 43.9308 371.585 44.2563 371.911L47.5896 375.244C47.915 375.57 47.915 376.097 47.5896 376.423C47.2642 376.748 46.7365 376.748 46.4111 376.423L43.0777 373.089Z" fill="#828FA2"/>
<path d="M40.9229 373.089C41.2484 372.764 41.2484 372.236 40.9229 371.911C40.5975 371.585 40.0698 371.585 39.7444 371.911L36.4111 375.244C36.0856 375.57 36.0856 376.097 36.4111 376.423C36.7365 376.748 37.2641 376.748 37.5896 376.423L40.9229 373.089ZM43.0777 373.089C42.7523 372.764 42.7523 372.236 43.0777 371.911C43.4032 371.585 43.9308 371.585 44.2563 371.911L47.5896 375.244C47.915 375.57 47.915 376.097 47.5896 376.423C47.2642 376.748 46.7365 376.748 46.4111 376.423L43.0777 373.089Z" fill="#828FA2"/>
<path fill-rule="evenodd" clip-rule="evenodd" d="M47.8337 376.667H36.167C35.7068 376.667 35.3337 377.04 35.3337 377.5C35.3337 377.96 35.7068 378.333 36.167 378.333H47.8337C48.2939 378.333 48.667 377.96 48.667 377.5C48.667 377.04 48.2939 376.667 47.8337 376.667ZM36.167 375C34.7863 375 33.667 376.119 33.667 377.5C33.667 378.881 34.7863 380 36.167 380H47.8337C49.2144 380 50.3337 378.881 50.3337 377.5C50.3337 376.119 49.2144 375 47.8337 375H36.167Z" fill="#828FA2"/>
<rect width="26" height="26" transform="translate(29 478)" fill="white"/>
<path d="M49.7102 41.6177C48.838 41.6186 48.0017 41.9512 47.3851 42.5423C46.7683 43.1335 46.4214 43.935 46.4205 44.771V52.6254C46.4298 53.1875 46.3223 53.7456 46.1043 54.2674C45.8863 54.7892 45.5622 55.2642 45.1508 55.6648C44.7394 56.0654 44.2489 56.3836 43.708 56.6007C43.1671 56.8179 42.5864 56.9297 42 56.9297C41.4135 56.9297 40.8329 56.8179 40.292 56.6007C39.7511 56.3836 39.2606 56.0654 38.8492 55.6648C38.4378 55.2642 38.1137 54.7892 37.8957 54.2674C37.6777 53.7456 37.5702 53.1875 37.5795 52.6254V44.771C37.5795 43.9348 37.2329 43.1328 36.6159 42.5415C35.999 41.9502 35.1622 41.618 34.2897 41.618C33.4172 41.618 32.5805 41.9502 31.9635 42.5415C31.3466 43.1328 31 43.9348 31 44.771V53.457C31 54.8415 31.2845 56.2125 31.8373 57.4916C32.3901 58.7708 33.2004 59.9329 34.2218 60.912C35.2433 61.891 36.4559 62.6676 37.7905 63.1974C39.1251 63.7272 40.5555 63.9999 42 63.9999C43.4445 63.9999 44.875 63.7272 46.2095 63.1974C47.5441 62.6676 48.7567 61.891 49.7781 60.912C50.7996 59.9329 51.6099 58.7708 52.1626 57.4916C52.7155 56.2125 53 54.8415 53 53.457V44.771C52.999 43.935 52.6522 43.1335 52.0355 42.5423C51.4187 41.9512 50.5824 41.6186 49.7102 41.6177ZM51.5607 53.4564C51.5607 55.8867 50.5534 58.2174 48.7604 59.9359C46.9675 61.6543 44.5357 62.6198 42 62.6198C39.4643 62.6198 37.0325 61.6543 35.2396 59.9359C33.4466 58.2174 32.4393 55.8867 32.4393 53.4564V44.771C32.4435 44.3033 32.6403 43.8561 32.9869 43.5268C33.3334 43.1975 33.8017 43.0127 34.2897 43.0127C34.7778 43.0127 35.246 43.1975 35.5926 43.5268C35.9391 43.8561 36.136 44.3033 36.1402 44.771V52.6254C36.1402 54.1149 36.7576 55.5435 37.8565 56.5968C38.9554 57.65 40.4459 58.2417 42 58.2417C43.5541 58.2417 45.0446 57.65 46.1436 56.5968C47.2424 55.5435 47.8598 54.1149 47.8598 52.6254V44.771C47.8598 44.3006 48.0547 43.8495 48.4018 43.5169C48.7489 43.1843 49.2195 42.9975 49.7102 42.9975C50.2011 42.9975 50.6717 43.1843 51.0188 43.5169C51.3657 43.8495 51.5607 44.3006 51.5607 44.771V53.4564Z" fill="#FF8B6A"/>
<path d="M41.2803 43.2254V52.3184C41.2803 52.5014 41.3561 52.6768 41.4911 52.8062C41.626 52.9356 41.8091 53.0082 42 53.0082C42.1908 53.0082 42.3738 52.9356 42.5088 52.8062C42.6438 52.6768 42.7196 52.5014 42.7196 52.3184V43.2254C43.6487 43.0538 44.4778 42.5564 45.0449 41.8305C45.6119 41.1045 45.8763 40.202 45.7864 39.2992C45.6965 38.3964 45.2588 37.5581 44.5586 36.9481C43.8584 36.338 42.9462 36 42 36C41.0537 36 40.1415 36.338 39.4413 36.9481C38.7412 37.5581 38.3034 38.3964 38.2135 39.2992C38.1236 40.202 38.388 41.1045 38.9551 41.8305C39.5221 42.5564 40.3512 43.0538 41.2803 43.2254ZM42 37.3809C42.4676 37.3809 42.9248 37.5139 43.3136 37.7629C43.7025 38.0119 44.0055 38.3659 44.1845 38.78C44.3635 39.1941 44.4103 39.6498 44.319 40.0894C44.2278 40.529 44.0026 40.9328 43.6719 41.2498C43.3412 41.5667 42.9198 41.7825 42.4612 41.8699C42.0025 41.9574 41.527 41.9125 41.095 41.7409C40.6629 41.5694 40.2937 41.2789 40.0338 40.9062C39.774 40.5335 39.6354 40.0953 39.6354 39.6471C39.6362 39.0463 39.8855 38.4702 40.3288 38.0454C40.7721 37.6206 41.3731 37.3816 42 37.3809Z" fill="#FF8B6A"/>
</svg>
