<svg width="291" height="279" viewBox="0 0 291 279" fill="none" xmlns="http://www.w3.org/2000/svg">
<path d="M110.276 42.6316H48.6328V104.275H110.276V42.6316ZM101.47 95.4689H57.439V51.4378H101.47V95.4689Z" fill="#36414F"/>
<path d="M176.326 218.756H167.52V236.368H242.372V227.562H176.326V218.756Z" fill="#36414F"/>
<path d="M92.6648 60.2439H66.2461V86.6626H92.6648V60.2439Z" fill="#36414F"/>
<path d="M48.6328 236.368H110.276V174.725H48.6328V236.368ZM57.439 183.531H101.47V227.562H57.439V183.531Z" fill="#36414F"/>
<path d="M92.6648 192.338H66.2461V218.756H92.6648V192.338Z" fill="#36414F"/>
<path d="M180.727 42.6316V104.275H242.37V42.6316H180.727ZM233.564 95.4689H189.533V51.4378H233.564V95.4689Z" fill="#36414F"/>
<path d="M224.759 60.2439H198.34V86.6626H224.759V60.2439Z" fill="#36414F"/>
<path d="M242.37 113.081H224.758V130.694H242.37V113.081Z" fill="#36414F"/>
<path d="M66.2452 148.306H48.6328V165.919H66.2452V148.306Z" fill="#36414F"/>
<path d="M141.1 113.081H105.875V121.888H149.906V104.275V95.4689H158.712V77.8565H149.906H141.1H132.294V60.244H141.1V69.0503H171.922V42.6316H163.115V60.244H149.906V42.6316H145.503H127.89H123.487V86.6627H141.1V95.4689H123.487V104.275H141.1V113.081Z" fill="#36414F"/>
<path d="M61.8421 139.5H79.4546H88.2608H92.6639V148.306H75.0515V157.112H92.6639V165.919H127.889V157.112H101.47V148.306V130.694H88.2608V117.484H79.4546V130.694H70.6483V113.081H48.6328V121.888H61.8421V139.5Z" fill="#36414F"/>
<path d="M145.505 218.756V196.74H127.892V179.128H119.086V205.546H136.698V218.756H119.086V227.562H136.698V236.368H158.714V227.562H145.505V218.756Z" fill="#36414F"/>
<path d="M189.532 130.694H171.92V108.678H163.113V139.5H207.144V130.694H198.338V121.888H211.547V113.082H198.338H189.532H180.726V121.888H189.532V130.694Z" fill="#36414F"/>
<path d="M180.726 209.95H193.936V218.756H211.548V209.95V201.143V187.934H193.936V201.143H180.726V187.934H171.92V201.143H163.114V165.919H154.308V157.112H145.501V130.694H114.68V148.306H123.486V139.5H136.695V157.112V174.725H154.308V201.143V209.95H163.114H171.92H180.726Z" fill="#36414F"/>
<path d="M233.565 152.709H220.356H211.55H189.534V170.322H180.728V152.709H171.922V179.128H198.341V161.515H211.55V174.725H220.356V161.515H233.565V187.934H220.356V214.353H242.372V205.546H229.162V196.74H242.372V161.515V152.709V139.5H233.565V152.709Z" fill="#36414F"/>
<rect x="0.825583" y="0.825583" width="289.349" height="277.349" stroke="#E2E8ED" stroke-width="1.65117"/>
</svg>
